<?xml version="1.0" standalone="no"?>
<!DOCTYPE svg PUBLIC "-//W3C//DTD SVG 1.1//EN" "http://www.w3.org/Graphics/SVG/1.1/DTD/svg11.dtd" >
<svg xmlns="http://www.w3.org/2000/svg">
<metadata></metadata>
<defs>
<font id="fox_in_the_snowregular" horiz-adv-x="1155" >
<font-face units-per-em="2048" ascent="1638" descent="-410" />
<missing-glyph horiz-adv-x="823" />
<glyph horiz-adv-x="0" />
<glyph unicode="&#xd;" horiz-adv-x="823" />
<glyph unicode=" "  horiz-adv-x="823" />
<glyph unicode="&#x09;" horiz-adv-x="823" />
<glyph unicode="&#xa0;" horiz-adv-x="823" />
<glyph unicode="!" horiz-adv-x="671" d="M301 88q0 20 14.5 33.5t36.5 13.5q23 0 37 -13t14 -34q0 -20 -14 -33.5t-37 -13.5t-37 13.5t-14 33.5zM330 340q12 248 24.5 494.5t24.5 496.5q2 14 11 22.5t20.5 7.5t20.5 -9.5t9 -24.5q-12 -248 -24.5 -495.5t-24.5 -495.5q-10 -27 -33.5 -26t-27.5 30z" />
<glyph unicode="&#x22;" horiz-adv-x="872" d="M246 1034.5q0 12.5 10 22.5q137 121 166 305h-90q-16 0 -24.5 9t-8.5 20.5t7 20.5t24 11h127q29 -6 28 -34q0 -111 -54 -209.5t-136 -169.5q-12 -10 -24.5 -7t-18.5 11t-6 20.5zM512 1034.5q0 12.5 10 22.5q137 121 166 305h-90q-16 0 -24.5 9t-8.5 20.5t7.5 20.5 t23.5 11h127q29 -6 29 -34q0 -111 -54.5 -209.5t-136.5 -169.5q-12 -10 -24.5 -7t-18.5 11t-6 20.5z" />
<glyph unicode="#" horiz-adv-x="1421" d="M319 388q0 11 7.5 20.5t23.5 11.5q47 0 92 1t93 1q16 55 30.5 111.5t30.5 111.5q-37 -2 -75 -3t-75 -1q-16 0 -24 9t-8 20.5t7 20.5t23 11q41 0 84 1.5t86 3.5q12 47 24.5 92t27.5 92q12 27 34.5 21.5t24.5 -33.5q-12 -43 -24.5 -85t-24.5 -85q76 2 151.5 4t151.5 4 l49 196q12 27 34.5 22t24.5 -34q-10 -47 -21 -92l-22 -90q39 0 77 1t77 3q29 -6 29 -29.5t-27 -31.5q-43 -2 -86 -2.5t-86 -2.5q-14 -59 -27.5 -114.5t-27.5 -114.5q49 2 98 2t98 2q29 -6 29 -29.5t-27 -31.5q-53 -2 -107 -2t-108 -2q-10 -39 -18 -78t-18 -80 q-4 -16 -15.5 -21.5t-22 -3.5t-17.5 11.5t-5 25.5q8 35 16.5 72t18.5 74q-78 -2 -157 -2t-156 -3q-12 -49 -26.5 -97t-27.5 -95q-4 -16 -15 -21.5t-21.5 -3.5t-17.5 11.5t-5 25.5l49 178q-41 0 -83 -1t-83 -1q-16 0 -24.5 9.5t-8.5 20.5zM598 424q78 2 155.5 2t155.5 2 q14 57 26.5 113.5t27.5 113.5q-76 -4 -151 -5t-153 -5z" />
<glyph unicode="$" d="M136 -1q3 11 13.5 17.5t26.5 1.5q86 -23 169 -38t175 -11q29 174 58.5 346t58.5 347q-45 31 -90 68.5t-78 84.5q-41 57 -55.5 121.5t16.5 134.5q29 66 100.5 115t159.5 78l49 12q4 29 9.5 54.5t9.5 53.5q12 27 34.5 22t24.5 -34q-4 -20 -7 -40.5t-7 -41.5q59 10 113.5 10 t97.5 -10q55 -14 101 -39.5t76 -63.5t40 -87.5t-6 -110.5q-4 -16 -15.5 -21t-21.5 -3t-17.5 11t-5.5 25q23 92 -28.5 154t-141.5 76q-41 6 -93 6t-109 -10q-23 -135 -45.5 -270.5t-45.5 -270.5q29 -20 61 -38.5t64 -39.5q47 -31 92.5 -64.5t79 -72.5t55 -84t21.5 -96 q0 -49 -7 -91t-36 -83q-18 -29 -44.5 -50.5t-55.5 -41.5q-37 -27 -79 -44.5t-85 -31.5q-49 -14 -97 -24.5t-98 -14.5l-18 -111q-4 -16 -15.5 -21t-21.5 -3t-17 11t-5 26q4 25 7 49t7 47q-92 -2 -178 13.5t-174 37.5q-16 6 -20.5 17.5t-1.5 22.5zM472 961.5 q5 -35.5 21.5 -67.5t40 -61.5t48.5 -54.5q24 -24 65 -55l40 246t42 245q-12 -4 -16 -4q-82 -23 -147.5 -70.5t-86.5 -105.5q-12 -37 -7 -72.5zM584 -27q41 4 82 12.5t82 20.5q59 18 108 44t84 61q68 63 74 150t-84 190q-49 55 -114 94t-124 80q-29 -164 -54.5 -326 t-53.5 -326z" />
<glyph unicode="%" horiz-adv-x="1486" d="M272 903q2 45 24.5 88t65.5 78q96 74 209 64q84 -6 144.5 -61.5t62.5 -160.5q0 -35 -4 -67.5t-20 -65.5q-16 -23 -38 -14.5t-18 37.5q14 29 16.5 56.5t2.5 57.5q-2 72 -46 111t-104 45q-43 4 -87 -8t-79 -41t-51 -73t-10 -87q4 -31 22.5 -58.5t53.5 -45.5 q72 -37 140.5 -33t131.5 14q45 6 88 26.5t83 46.5t74 53.5t62 49.5q59 49 105.5 101.5t99.5 107.5q12 12 24.5 12.5t19.5 -8t9 -20.5t-8 -25l-799 -1056q-23 -16 -40 0t-5 41q88 115 160 210t137.5 181t129 170t133.5 176l-3 -2q-35 -29 -88 -58.5t-108 -48.5 q-80 -27 -171 -29.5t-159 17.5q-82 25 -123 87.5t-37 131.5zM835 194q3 76 46 142q23 33 53.5 60.5t66.5 43.5q41 18 85.5 24.5t93.5 -5.5q66 -18 101.5 -53t49.5 -78q16 -47 8 -99.5t-34 -99.5q-20 -37 -51 -66.5t-68 -49t-80 -26.5t-88 5q-86 23 -131 69q-55 57 -52 133z M894 206q-5 -56 36 -100q16 -16 40.5 -30.5t59.5 -22.5q70 -18 129.5 15.5t91.5 89.5q29 47 30 99t-34 93q-31 35 -86 49q-70 16 -131 -11.5t-96 -78.5q-35 -47 -40 -103z" />
<glyph unicode="&#x26;" horiz-adv-x="1105" d="M229 385q29 106 103 184t160 144q-20 39 -37 84q-27 66 -36 142.5t7 129.5q8 25 22.5 51.5t30.5 44.5q45 55 103.5 80t115.5 27q41 0 78 -13.5t62.5 -42t37 -72.5t3.5 -104q-10 -63 -54.5 -115.5t-87.5 -93.5q-33 -31 -74.5 -62.5t-87.5 -66.5q43 -76 101.5 -147.5 t120 -135t123 -117.5t114.5 -93q23 -18 47.5 -36.5t51.5 -35.5q49 39 98 84t100 96q12 12 24.5 12.5t19.5 -8t9 -20.5t-8 -25q-49 -49 -96 -93t-94 -83q41 -29 94 -57q49 -31 84 -49.5t66.5 -34.5t68.5 -33.5t90 -44.5q14 -8 16.5 -20.5t-3 -21.5t-16.5 -14t-25 1 q-53 27 -90 44t-70 33.5t-68 36t-86 50.5q-29 16 -57.5 34.5t-56.5 36.5q-102 -72 -217 -110.5t-267 -36.5q-88 0 -174 39t-149.5 103.5t-93 149.5t-3.5 179zM289 373q-18 -92 12.5 -167t91 -127t141 -80t164.5 -24q117 4 209 37t174 86q-23 16 -43 30.5t-41 31.5 q-55 43 -101 84t-97 88q-35 35 -71 71.5t-69 73.5q-35 41 -70.5 87t-66.5 98q-82 -61 -149.5 -133t-83.5 -156zM483.5 952.5q10.5 -61.5 30.5 -116.5q6 -20 14.5 -41t18.5 -41q23 16 43 32.5t41 32.5q29 25 62.5 53.5t61 61.5t47 69.5t19.5 77.5q2 72 -33.5 101.5 t-87.5 29.5q-59 0 -118 -36q-35 -23 -54.5 -53.5t-38.5 -65.5q-16 -43 -5.5 -104.5z" />
<glyph unicode="'" horiz-adv-x="671" d="M246 1034.5q0 12.5 10 22.5q137 121 166 305h-90q-16 0 -24.5 9t-8.5 20.5t7 20.5t24 11h127q29 -6 28 -34q0 -111 -54 -209.5t-136 -169.5q-12 -10 -24.5 -7t-18.5 11t-6 20.5z" />
<glyph unicode="(" horiz-adv-x="991" d="M442 522q27 231 133.5 444t286.5 373q27 12 41.5 -6t-2.5 -41q-170 -152 -273.5 -357.5t-125.5 -428.5q-23 -217 35.5 -428t212.5 -383q10 -12 9 -24.5t-9.5 -19.5t-20.5 -8t-24 9q-166 186 -227.5 412.5t-35.5 457.5z" />
<glyph unicode=")" horiz-adv-x="991" d="M285 1333q14 18 41 6q180 -160 286.5 -372.5t132.5 -444.5q27 -231 -34.5 -457.5t-227.5 -412.5q-12 -10 -24.5 -9t-20.5 8t-9 19.5t9 24.5q154 172 212.5 383t35.5 428q-23 223 -126 429t-273 357q-16 23 -2 41z" />
<glyph unicode="*" horiz-adv-x="1179" d="M305 921.5q2 12.5 14 20.5q53 29 108.5 57.5t111.5 57.5q-23 29 -45.5 54.5t-44.5 53.5q-10 12 -8.5 24.5t10 20t20.5 7.5t25 -11q16 -23 34.5 -44t36.5 -44l35 176q6 14 16.5 19.5t20.5 3.5t17.5 -12.5t5.5 -26.5l-35 -174q27 14 52.5 28.5t51.5 28.5q29 6 40 -14.5 t-11 -38.5q-33 -16 -64.5 -34.5t-62.5 -35.5q39 -47 78 -96t80 -96q12 -25 -5.5 -41.5t-40.5 0.5q-37 43 -72.5 87t-70.5 87l-43 -215q-14 -23 -36.5 -17.5t-22.5 33.5l41 209q-47 -25 -96.5 -50t-96.5 -50q-14 -6 -25.5 -2t-15.5 13t-2 21.5z" />
<glyph unicode="+" horiz-adv-x="1380" d="M430 465q0 10 8 20.5t25 12.5h162t182 2q-2 94 -3 184t-5 166q6 29 28.5 30t32.5 -26q4 -78 5 -168t3 -184q92 2 181.5 3t162.5 5q29 -6 30 -28.5t-25 -32.5q-76 -4 -165 -5.5t-184 -3.5q2 -92 2 -180t2 -160q0 -16 -9 -24t-19 -8t-20.5 8t-12.5 24q-2 72 -2 159t-2 179 q-92 -2 -181 -2h-163q-16 0 -24.5 9.5t-8.5 19.5z" />
<glyph unicode="," horiz-adv-x="671" d="M246 -276.5q0 12.5 10 22.5q137 121 166 305h-90q-16 0 -24.5 9.5t-8.5 20.5t7 20.5t24 11.5h127q29 -6 28 -35q0 -111 -54 -209t-136 -170q-12 -10 -24.5 -7t-18.5 11t-6 20.5z" />
<glyph unicode="-" horiz-adv-x="1404" d="M430 465q0 10 8 20.5t25 12.5q80 0 177 1t197.5 3t198 3t176.5 5q29 -6 30 -28.5t-25 -32.5q-80 -4 -178.5 -5.5t-199 -3.5t-198.5 -3t-178 -1q-16 0 -24.5 9.5t-8.5 19.5z" />
<glyph unicode="." horiz-adv-x="671" d="M301 88q0 20 14.5 33.5t36.5 13.5q23 0 37 -13t14 -34q0 -20 -14 -33.5t-37 -13.5t-37 13.5t-14 33.5z" />
<glyph unicode="/" horiz-adv-x="1015" d="M246 -61.5q-4 12.5 4 26.5q188 362 374.5 721t374.5 721q20 20 41 8t11 -41q-188 -362 -375 -720.5t-375 -721.5q-10 -12 -21.5 -14t-20.5 3t-13 17.5z" />
<glyph unicode="0" horiz-adv-x="909" d="M60 593.5q-1 73.5 3 145.5q10 72 26.5 148t44.5 148.5t68 139t97 121.5q37 37 86 61.5t107 28.5q74 4 140 -36.5t113 -130.5q66 -129 89.5 -272.5t3.5 -291.5q-4 -78 -28 -159.5t-46 -145.5q-23 -63 -53.5 -114.5t-77.5 -102.5q-68 -80 -147.5 -105.5t-157.5 1.5 q-49 20 -92 55t-76 88q-37 63 -57.5 134t-31 142.5t-11.5 145zM121 586.5q0 -74.5 14 -152.5q2 -16 7 -36.5t11.5 -43t13.5 -44t13 -36.5q31 -74 77 -124t101 -66q106 -31 228 86q35 35 65.5 89t56 120.5t43 141.5t27.5 149q16 127 -1 267t-87 255q-41 72 -92 103.5 t-104 31.5q-59 -4 -118 -43t-106 -110q-8 -12 -18 -32t-21.5 -41.5t-20.5 -42t-15 -36.5q-29 -72 -44.5 -142.5t-25.5 -140.5q-4 -78 -4 -152.5z" />
<glyph unicode="1" horiz-adv-x="638" d="M11 1131.5q-11 21.5 7 39.5q109 59 214.5 119t211.5 119q20 10 35 2t15 -31q-23 -176 -40.5 -332.5t-35 -309t-34.5 -308.5t-38 -330q45 4 89 6.5t91 6.5q29 -6 29 -30t-27 -32q-92 -6 -181 -12t-179 -12q-16 0 -24.5 9t-8.5 20.5t7.5 20.5t23.5 11q29 2 58.5 3t58.5 5 q20 170 37.5 319.5t34 295t34 296l37.5 322.5q-94 -53 -187.5 -105.5t-189.5 -105.5q-27 -8 -38 13.5z" />
<glyph unicode="2" horiz-adv-x="892" d="M66 71.5q-7 18.5 10 34.5q47 39 92 79t90 81q74 74 160 153t158.5 168t119.5 192.5t43 228.5q-2 51 -15 106t-46 96q-33 43 -82 70t-104 35q-47 6 -92.5 -2t-86.5 -29q-61 -29 -100 -87t-43 -136q-10 -27 -33.5 -26t-27.5 30q-4 84 46 155.5t126 114.5q47 27 101 35 t107 2q72 -8 140 -41q80 -39 119.5 -112.5t49 -159.5t-8 -174t-48.5 -156q-37 -80 -90 -151.5t-116 -133.5q-86 -86 -176.5 -172t-184.5 -163q88 -4 161 -6.5t142.5 -4.5t145 -5t170.5 -5q29 -6 28.5 -29.5t-26.5 -31.5q-176 6 -349.5 12t-347.5 12q-25 2 -32 20.5z" />
<glyph unicode="3" horiz-adv-x="929" d="M16.5 177.5q16.5 21.5 44.5 4.5q68 -43 137.5 -71.5t151.5 -34.5q84 -6 173 14.5t151 81.5q59 59 90 143t35 175.5t-20.5 177.5t-76.5 151q-39 51 -93 81t-113 46q-23 6 -39.5 10.5t-46.5 8.5q-25 4 -32 21.5t9 33.5q86 63 170 124.5t170 123.5q-123 6 -245.5 11 t-245.5 11q-16 0 -24.5 9.5t-8.5 20.5t7 20.5t23 11.5q147 -6 292 -13.5t292 -13.5q20 -4 26.5 -20.5t-7.5 -32.5q-55 -41 -98.5 -73t-83.5 -60.5t-81 -58t-92 -66.5q10 -2 17.5 -4t15.5 -4q66 -18 132.5 -55.5t107.5 -96.5q47 -70 73.5 -153t30.5 -169t-14.5 -168.5 t-61.5 -151.5t-110.5 -119t-161.5 -68q-39 -8 -84 -11.5t-84 0.5q-94 14 -167 41t-150 78q-25 23 -8.5 44.5z" />
<glyph unicode="4" horiz-adv-x="974" d="M49 295q135 268 271.5 534.5t273.5 534.5q6 14 18.5 18t21.5 0t15 -15t0 -26q-131 -256 -260 -511t-260 -513q154 2 308.5 3.5t310.5 3.5q2 16 2 32.5t2 32.5q2 14 11 22.5t20.5 7.5t20.5 -9.5t9 -24.5q-2 -16 -2 -30.5t-2 -28.5h111q29 -6 28.5 -30t-26.5 -32h-115 q-4 -70 -7 -138.5t-7 -137.5q-10 -27 -34 -26t-28 30q4 68 7 135.5t7 134.5q-166 -2 -331.5 -3t-331.5 -3q-39 4 -33 39z" />
<glyph unicode="5" horiz-adv-x="929" d="M94 19.5q0 11.5 7.5 20.5t23.5 11q72 2 146.5 7t147.5 21.5t139.5 47.5t121.5 86q74 72 109.5 177.5t31.5 216t-49 209.5t-133 161q-53 37 -116.5 54.5t-129 20.5t-132 -7.5t-126.5 -26.5q-29 2 -35 31q6 66 12.5 131t12.5 131q4 29 33 30q135 -4 271 -6t273 -6 q29 -6 29 -29.5t-26 -31.5q-131 4 -261.5 6t-259.5 6l-18 -190q61 10 128.5 17t135.5 3t130.5 -22.5t115.5 -61.5q94 -76 147.5 -187.5t59.5 -231.5t-34 -236.5t-128 -202.5q-59 -59 -130 -93t-147.5 -52.5t-157.5 -24.5t-159 -8q-16 0 -24.5 9t-8.5 20.5z" />
<glyph unicode="6" horiz-adv-x="966" d="M41 500q-4 123 14.5 243.5t63.5 231.5q31 76 74 145.5t102 128.5q63 66 142 92.5t161 18.5q92 -8 173 -56.5t128 -134.5q6 -14 1 -25t-15.5 -15.5t-21.5 -1.5t-19 18q-41 72 -106.5 109.5t-139.5 43.5q-68 4 -135.5 -18.5t-122.5 -71.5q-43 -39 -77 -88t-62 -104 q-35 -70 -56.5 -146.5t-33 -155.5t-11.5 -155t11 -143q8 -51 22 -101.5t37 -97.5q29 -53 69 -94t99 -64q41 -16 86 -21t90 -5q37 0 77 15t77 45t66.5 71t45.5 90q25 80 26 167t-28 163q-33 92 -106.5 154.5t-194.5 60.5q-35 0 -71.5 -5.5t-71.5 -17.5q-47 -16 -85 -46 t-73 -68q-23 -16 -40 0t-5 40q45 51 99.5 88t119.5 54q53 14 104.5 15t104.5 -7q106 -16 173 -81.5t102 -158.5q33 -92 32.5 -193.5t-30.5 -187.5q-49 -139 -142.5 -199.5t-212.5 -60.5q-16 0 -39.5 2t-48 7.5t-47 11.5t-37.5 12q-66 33 -112.5 78t-77.5 98 q-41 68 -57.5 149t-20.5 171z" />
<glyph unicode="7" horiz-adv-x="958" d="M70 1264.5q0 11.5 7 20.5t23 11q213 4 425 6.5t427 6.5q20 -4 26.5 -20.5t-7.5 -33.5q-37 -33 -70 -69.5t-67 -75.5q-172 -193 -319.5 -412t-233.5 -467q-16 -43 -26.5 -88t-23.5 -90q-4 -16 -15 -21t-21.5 -3t-17.5 11t-5 26q12 47 23.5 94t27.5 92q76 221 202 417.5 t273 377.5q55 68 113.5 134t124.5 126q20 -8 13 -15.5t-20.5 -15.5t-20.5 -15.5t14 -13.5q-125 -2 -222.5 -3t-188.5 -3t-188.5 -3t-220.5 -3q-16 0 -24 9t-8 20.5z" />
<glyph unicode="8" horiz-adv-x="987" d="M98.5 440.5q26.5 96.5 91.5 175.5q29 37 64 69t72 58q39 29 79.5 49.5t81.5 43.5q-66 59 -117 126.5t-63 163.5q-8 86 41 157t125 103q80 35 166 11q78 -23 126 -88.5t58 -143.5q14 -109 -41 -184.5t-143 -128.5q-10 -6 -21.5 -13.5t-21.5 -13.5q8 -6 16.5 -13t18.5 -13 q78 -61 149.5 -139t112.5 -171q27 -61 33 -137q4 -66 -13.5 -119t-51.5 -95t-81 -72.5t-100 -49.5q-92 -33 -193.5 -28.5t-187.5 45.5q-61 31 -110.5 87t-75.5 122q-41 102 -14.5 198.5zM150 383q-4 -49 11 -94t42 -86q23 -35 54.5 -66t70.5 -49q59 -29 136 -37t152 8 q90 20 159 73.5t85 146.5q14 74 -7.5 142t-61.5 128q-41 59 -93.5 109.5t-103.5 91.5q-14 10 -28.5 21t-28.5 24q-80 -45 -162 -96.5t-142 -120.5q-35 -41 -57 -88.5t-26 -106.5zM369 1133q10 -90 60 -151.5t116 -115.5q29 14 62.5 35t64 44.5t54.5 52t32 61.5q10 41 6 79 t-16 79q-27 78 -86.5 105.5t-124.5 16.5q-35 -6 -68 -23.5t-56.5 -44t-35.5 -61t-8 -77.5z" />
<glyph unicode="9" horiz-adv-x="966" d="M46 195.5q5 11.5 15.5 15.5t21.5 1t19 -17q41 -72 106.5 -110t139.5 -44q68 -4 135.5 18.5t122.5 71.5q43 39 77 88t62 105q33 70 55.5 146.5t34 154t11.5 154.5t-10 145q-8 51 -22.5 101t-37.5 97q-29 53 -68.5 94t-99.5 64q-41 16 -86 21.5t-90 5.5q-37 0 -77 -15.5 t-76.5 -45t-66.5 -70.5t-46 -91q-25 -80 -26 -167t28 -162q33 -92 106.5 -154.5t194.5 -60.5q35 0 72 5t71 17q47 16 85 46t73 69q23 16 40 0t5 -41q-45 -51 -99 -88t-120 -53q-53 -14 -104.5 -15.5t-104.5 6.5q-106 16 -173 82t-101 158q-33 92 -33 193.5t31 187.5 q49 139 142 199.5t212 60.5q16 0 39.5 -2t48.5 -7t47.5 -11.5t36.5 -12.5q66 -33 113 -78t77 -98q41 -68 57.5 -148.5t20.5 -170.5q4 -123 -14.5 -244t-63.5 -231q-31 -76 -73.5 -145.5t-102.5 -129.5q-63 -66 -142 -92.5t-161 -17.5q-92 8 -173 56t-128 134q-6 14 -1 25.5z " />
<glyph unicode=":" horiz-adv-x="671" d="M301 88q0 20 14.5 33.5t36.5 13.5q23 0 37 -13t14 -34q0 -20 -14 -33.5t-37 -13.5t-37 13.5t-14 33.5zM301 559q0 20 14.5 33.5t36.5 13.5q23 0 37 -13t14 -34q0 -20 -14 -33.5t-37 -13.5t-37 13.5t-14 33.5z" />
<glyph unicode=";" horiz-adv-x="671" d="M246 -276.5q0 12.5 10 22.5q137 121 166 305h-90q-16 0 -24.5 9.5t-8.5 20.5t7 20.5t24 11.5h127q29 -6 28 -35q0 -111 -54 -209t-136 -170q-12 -10 -24.5 -7t-18.5 11t-6 20.5zM301 559q0 20 14.5 33.5t36.5 13.5q23 0 37 -13t14 -34q0 -20 -14 -33.5t-37 -13.5 t-37 13.5t-14 33.5z" />
<glyph unicode="&#x3c;" horiz-adv-x="1216" d="M522 606q129 80 271.5 146.5t277.5 132.5q14 6 26.5 2t17.5 -13.5t3 -21.5t-16 -21q-125 -61 -256 -121.5t-254 -131.5q35 -29 75 -54.5t76 -50.5q59 -41 100.5 -68.5t77 -52t72.5 -49t88 -59.5q16 -23 3 -41.5t-40 -7.5q-51 35 -87.5 59.5t-72.5 49t-77 52t-100 68.5 q-43 31 -92.5 63.5t-90.5 67.5q-29 25 -2 51z" />
<glyph unicode="=" horiz-adv-x="1490" d="M430 342q0 10 8 20.5t25 12.5q80 0 177 1t197.5 3t198 3t176.5 5q29 -6 30 -28.5t-25 -32.5q-80 -4 -178.5 -5.5t-199 -3.5t-198.5 -3t-178 -1q-16 0 -24.5 9.5t-8.5 19.5zM432 583.5q0 10.5 8.5 20.5t24.5 12q80 0 177 1t197.5 3.5t198 3.5t176.5 5q29 -6 30 -28.5 t-25 -33.5q-80 -4 -178.5 -5t-199 -3t-198.5 -3t-178 -1q-16 0 -24.5 9t-8.5 19.5z" />
<glyph unicode="&#x3e;" horiz-adv-x="1216" d="M424 851.5q-2 12.5 3 22t17.5 13.5t26.5 -2q135 -66 277.5 -132.5t271.5 -146.5q27 -27 -2 -51q-41 -35 -90 -67.5t-92 -63.5q-59 -41 -100.5 -68.5t-77 -52t-72.5 -49.5t-88 -59q-27 -10 -40.5 8t3.5 41q51 35 88 59.5t72.5 49t76.5 52t101 68.5q37 25 76.5 50.5 t74.5 54.5q-123 72 -254 132t-256 121q-14 8 -16 20.5z" />
<glyph unicode="?" horiz-adv-x="978" d="M47 1057q0 59 18.5 112.5t51.5 98.5q37 49 87 86t109 61q88 35 184.5 38t182.5 -30q47 -18 88 -47.5t76 -66.5q25 -27 46 -58.5t34 -66.5q27 -78 34 -144.5t-20 -138.5q-16 -45 -54 -95t-73 -85q-41 -41 -89 -83t-93 -89q-47 -47 -77 -103.5t-26 -123.5q0 -16 -8 -25.5 t-19.5 -10.5t-21.5 6t-12 23q-4 78 22.5 136.5t73.5 111.5q35 41 78 79t84 77q47 43 86 89t61 101q20 47 22.5 103.5t-18.5 124.5q-16 51 -40.5 90t-59.5 69q-45 39 -99 63.5t-114 33.5q-55 6 -109.5 -2.5t-107.5 -26.5t-97 -49t-77 -74q-61 -79 -61 -188q-10 -27 -34 -26 t-28 30zM465 88q0 20 14.5 33.5t36.5 13.5q23 0 37 -13t14 -34q0 -20 -14 -33.5t-37 -13.5t-37 13.5t-14 33.5z" />
<glyph unicode="@" horiz-adv-x="1087" d="M113 403q2 41 12 82t27 78q27 66 70.5 119t101.5 92q78 53 173 78t191 16q47 -4 93 -20.5t87 -44.5q47 -33 79 -81t38 -108q20 -203 -137 -319q-41 -31 -77 -38t-64 3q-61 27 -72 109q-29 -31 -66 -62q-41 -33 -91 -49t-93 -10q-49 8 -79 47t-13 119q16 68 59 131 q41 57 94 94q35 25 74 37t74 4q39 -8 70.5 -40t54.5 -93q0 -29 -22.5 -35t-37.5 18q-27 76 -79 86q-51 10 -107 -28q-47 -31 -82 -86q-29 -45 -39 -94.5t13 -85.5q31 -31 77.5 -20t89.5 46q39 29 69 67t48 58q16 16 34.5 9t21.5 -31q-16 -49 -9.5 -82t29.5 -45q20 -10 50 -1 t65 46q51 53 72.5 113.5t5.5 146.5q-6 39 -30 70.5t-59 54.5q-66 47 -149 53q-86 8 -168 -13.5t-152 -68.5q-49 -35 -89 -80t-64 -104q-29 -70 -33 -142q-6 -125 51 -200q37 -51 94.5 -80t122.5 -39q43 -6 89.5 -6t91.5 8q66 10 124 33.5t107 58.5q27 12 41 -6t-2 -41 q-55 -39 -120.5 -64.5t-137.5 -37.5q-129 -23 -248 6q-61 16 -114.5 47t-90.5 80q-35 47 -54 107.5t-15 137.5z" />
<glyph unicode="A" horiz-adv-x="1544" d="M197 16q-1 4 -1 9q0 9 5 18q78 119 157.5 235.5t157.5 235.5q-76 -2 -146.5 -2h-131.5q-16 0 -24.5 9t-8.5 19.5t8 20.5t25 12q70 0 151.5 1t169.5 1l485 725q4 10 13.5 15.5t17.5 5.5q16 0 22.5 -13.5t4.5 -29.5q-6 -125 -8 -256v-48q0 -107 7 -212q9 -129 32.5 -255 t70.5 -243q76 -195 191 -215q11 -2 23 -2q31 -1 64 15q46 22 91 57q59 47 109.5 104.5t80.5 89.5q12 12 23.5 11.5t18.5 -8.5q9 -11 9 -23q0 -11 -12 -23q-14 -16 -36.5 -42.5t-50 -57.5t-59.5 -61.5t-69 -55.5q-67 -47 -139 -63q-21 -5 -40 -5q-50 0 -97 29 q-63 39 -100 98.5t-64 129.5q-41 106 -65.5 224t-35 239.5t-11.5 242.5v48q0 96 3 186q-102 -152 -202.5 -302.5t-202.5 -301.5q96 2 186 3t168 5q12 0 19.5 -7.5t9.5 -17.5q2 -12 -4 -23.5t-21 -13.5q-86 -4 -189.5 -6t-211.5 -4l-338 -504q-10 -12 -21.5 -14t-20.5 3 t-13 17z" />
<glyph unicode="B" horiz-adv-x="1138" d="M49 198q17 21 45 5q136 -103 284 -161q144 -56 310 -56h12q90 2 180.5 30.5t149.5 102.5q74 94 74 209v6q-2 82 -37 153.5t-92 118.5q-47 41 -111.5 60.5t-130.5 23.5q-25 2 -32 20.5t10 34.5q61 37 119.5 80t93.5 109q21 40 21 78q-1 7 -1 13q-4 44 -28.5 78t-65.5 56.5 t-86 26.5q-15 2 -29 2q-55 0 -107 -24q-66 -30 -118 -66q-10 -254 -40 -503t-79 -497q-4 -16 -15 -21t-21.5 -3t-17.5 11t-5 26q49 250 78.5 498.5t38.5 504.5q2 14 12 25q86 55 172 85q56 20 120 21q33 0 68 -6q47 -8 87 -39t64 -74q26 -43 32 -93q2 -13 1 -25 q0 -36 -14 -70q-27 -63 -72 -110.5t-100 -86.5q37 -10 78 -27.5t78 -42t68.5 -53t52.5 -57.5q48 -71 64 -155q8 -39 7 -78q0 -44 -10 -88q-16 -72 -59 -134.5t-115 -103.5q-111 -62 -233 -72q-32 -2 -64 -3q-91 0 -182 20q-123 27 -239 81t-208 126q-15 14 -15 27q0 9 7 17z " />
<glyph unicode="C" horiz-adv-x="1146" d="M217 506q4 110 33 216.5t82 203t127 174.5q61 66 156.5 118t215.5 56h7q56 0 114 -29q62 -31 88 -94q6 -16 0 -26.5t-16 -14.5t-22.5 -1t-18.5 17q-20 51 -60 71t-89 20q-63 0 -116.5 -16.5t-99 -43.5t-81 -60.5t-66.5 -70.5q-66 -78 -110 -169q-43 -91 -65 -189 q-21 -93 -21 -187v-9q1 -99 26 -191q16 -66 48 -122.5t79 -99.5t111.5 -69.5t148.5 -30.5q14 -1 27 -1q66 0 130 16q77 20 148 53q109 53 201 125.5t174 160.5q12 12 24.5 12.5t19.5 -7.5q9 -11 9 -25q0 -10 -8 -21q-86 -92 -182 -169.5t-213 -131.5q-82 -37 -160 -57 q-65 -17 -138 -17q-15 0 -30 1q-86 2 -160.5 34.5t-133 86t-99.5 124t-59 150.5q-22 90 -22 183q0 15 1 30z" />
<glyph unicode="D" horiz-adv-x="1130" d="M40 186q16 22 46 4q92 -59 185.5 -105t199.5 -75q80 -20 166 -28q26 -2 52 -2q59 0 116 12q129 29 208 98.5t121 162.5t49 205q2 34 2 68q0 78 -11 158q-12 86 -36 174t-73 160q-59 88 -135 130t-162 46q-10 1 -20 1q-66 1 -130 -23q-74 -26 -147 -78 q-29 -238 -48.5 -471.5t-55.5 -470.5q-10 -27 -34 -26t-28 30q18 129 34.5 259t29.5 263q10 109 22 214t21 216q0 12 17 26.5t40 29t48.5 27.5t43.5 19q102 41 197 41q19 0 39 -2q63 -4 123.5 -28.5t119.5 -77.5q68 -61 111 -149.5t67 -187.5q23 -98 27 -200q1 -34 1 -66 q0 -64 -5 -122q-8 -80 -34.5 -163t-86.5 -142q-122 -129 -274 -168q-84 -22 -176 -22q-73 0 -150 14q-131 25 -245.5 78.5t-225.5 125.5q-15 14 -15 27q-1 9 6 18z" />
<glyph unicode="E" horiz-adv-x="1146" d="M125 733q0 10 8 20.5t25 12.5h88q4 27 10 51.5t12 50.5q6 31 18.5 73t25 85t24.5 84t20 72q2 12 28 21t58.5 15.5t66.5 11.5t54 7q111 11 244 19q90 6 178 5q41 0 82 -1q29 -6 29 -30t-27 -32q-52 2 -103.5 2t-101.5 -2q-102 -4 -207 -12q-25 -2 -59.5 -5t-69 -7.5 t-65.5 -11.5t-49 -15q-35 -88 -61.5 -185.5t-45.5 -195.5q74 0 153 1t157.5 3t152.5 4t137 4q29 -6 30 -28.5t-26 -32.5q-66 -2 -141.5 -4t-155 -4t-160.5 -3t-157 -1q-13 -80 -19 -194l-2 -36q0 -96 25 -194q16 -66 49 -123.5t82 -100.5q47 -41 110.5 -67.5t145.5 -30.5 q14 -1 27 -1q66 0 130 16q77 20 148 53q109 53 201 125.5t174 160.5q12 12 24.5 12.5t19.5 -7.5q9 -11 9 -25q0 -10 -8 -21q-86 -92 -182 -169.5t-213 -131.5q-82 -37 -160 -57q-65 -17 -138 -17q-15 0 -30 1q-84 4 -155.5 33.5t-128.5 78.5q-61 53 -104.5 126t-63.5 157 q-22 88 -22 174q0 13 1 27q4 100 19 211h-78q-16 0 -24.5 9t-8.5 19z" />
<glyph unicode="F" horiz-adv-x="876" d="M-180 918q24 72 88 131q45 41 103.5 74.5t120 59t120.5 44t104 30.5q113 27 207 46.5t183.5 31t178.5 14.5q38 1 79 1q55 0 114 -2q23 -8 23 -31t-25 -27q-54 2 -105 2t-98 -2q-94 -4 -184 -14t-180 -28.5t-189 -43.5q-37 -10 -93 -27.5t-117.5 -43t-119 -59.5t-98.5 -75 q-43 -45 -58 -97q-5 -17 -5 -34q0 -38 22 -80q8 -25 -10.5 -35.5t-38.5 5.5q-31 58 -31 109q1 27 9 51zM106 20q-1 -3 0 -5q0 -7 4 -14q6 -9 19 -15q28 -6 55 -6q32 0 60 8q54 14 98.5 46t78.5 78t56 99q41 94 62.5 193.5t31.5 203.5q98 2 192.5 4t203.5 6q26 9 26 31 q0 25 -30 31q-104 -4 -197.5 -6t-190.5 -4q4 39 5.5 76.5t3.5 76.5q2 78 4 159v27q0 67 -8 132q-9 25 -30 25h-4q-24 -2 -28 -31q10 -78 10 -155t-4 -153q-2 -37 -3 -77.5t-5 -81.5h-147q-16 -2 -24.5 -12.5t-8.5 -20.5t8.5 -19.5t24.5 -9.5h143q-12 -123 -42 -240.5 t-91 -209.5q-47 -66 -105 -96q-38 -19 -85 -19q-25 0 -52 6q-14 -2 -21.5 -9.5t-9.5 -17.5z" />
<glyph unicode="G" horiz-adv-x="1300" d="M215 500q2 106 31 211q29 111 83 210t130 179q61 66 156.5 118t215.5 56h7q56 0 114 -29q62 -31 88 -94q6 -16 0 -26.5t-16 -14.5t-22.5 -1t-18.5 17q-20 51 -60 71t-89 20q-63 0 -116.5 -16.5t-99 -43.5t-81 -60.5t-66.5 -70.5q-59 -72 -102 -153.5t-66 -170.5 q-29 -106 -29 -213.5t27 -207.5q33 -113 127 -205q51 -49 116.5 -81t143.5 -36q13 -1 26 -1q39 0 80 5q56 6 108 24.5t97 50.5t76 79q-59 16 -114 49q-29 16 -59 44t-54 56q-18 25 -29.5 59.5t-12.5 71.5v7q0 33 9 64q10 34 37 56q43 37 90 38h4q45 0 84 -21q47 -25 83 -70 t52 -94q18 -56 18 -109q0 -50 -16 -98q15 -1 30 -1q76 0 149 26q102 37 174 118q10 12 22 12.5t20 -7.5q11 -9 11 -24q0 -11 -8 -22q-37 -43 -87.5 -76.5t-107.5 -56.5q-55 -23 -114 -32q-35 -5 -69 -5q-23 0 -46 2q-41 -76 -123 -133q-78 -43 -158 -60q-65 -14 -136 -14 q-17 0 -34 1q-80 4 -149.5 30.5t-126.5 73.5q-66 53 -111 129t-65 162q-23 94 -23 192v15zM870 418v-7q0 -42 21 -83q23 -43 62.5 -79t82.5 -52q16 -6 33.5 -11.5t36.5 -9.5q14 45 18 98v8q0 45 -22 90q-23 50 -58 85q-29 29 -64 40q-14 4 -27 4q-20 0 -38 -9 q-43 -29 -45 -74z" />
<glyph unicode="H" horiz-adv-x="1544" d="M205 540.5q0 10.5 8 20.5t25 12h51q18 182 32.5 359.5t24.5 382.5q10 29 33.5 26.5t28.5 -30.5q-14 -203 -27.5 -379t-30.5 -359q76 0 160 1t167 3.5t163 3.5t147 5q29 -6 30 -28.5t-26 -33.5q-68 -4 -148.5 -5t-165.5 -3t-171 -3t-162 -1q-10 -111 -22.5 -229.5 t-24.5 -255.5q-2 -16 -12.5 -23.5t-20.5 -7.5t-19 9t-9 28q12 135 24 251.5t23 227.5h-45q-16 0 -24.5 9t-8.5 19.5zM1066 700q-1 42 -1 83q0 69 3 137q5 108 16.5 210.5t23.5 194.5q11 20 27 20q5 1 9 -1q22 -6 21 -35q-12 -94 -22 -193q-9 -100 -15 -202q-4 -74 -4 -148 v-54q2 -100 17 -196q18 -137 63 -252q76 -195 191 -215q10 -1 20 -1q31 0 63 14q42 18 83 51q31 25 60.5 52.5t56 55t48 52t37.5 40.5q12 12 23.5 11.5t18.5 -8.5q9 -11 9 -23q0 -11 -12 -23q-14 -18 -36.5 -43.5t-51 -54.5t-61.5 -58.5t-70 -54.5q-33 -23 -67.5 -40 t-69.5 -25q-23 -5 -46 -5q-11 0 -23 1q-34 4 -66 24q-63 39 -100 98.5t-64 129.5q-43 113 -62 243q-16 104 -19 215z" />
<glyph unicode="I" horiz-adv-x="765" d="M40 1281q-1 4 -1 7q0 18 22 27q145 18 291 29.5t293 21.5q20 -4 29 -25q10 -80 19 -158.5t16 -158.5q10 -120 12 -240v-41q0 -101 -8 -208q-4 -61 -18.5 -131t-40 -136.5t-61.5 -125t-86 -99.5q-49 -41 -113 -59q-33 -10 -71 -10q-35 0 -73 8q-47 10 -86 30.5t-78 42.5 q-25 23 -8.5 44.5t45.5 4.5q33 -20 65.5 -37.5t71.5 -23.5q31 -5 59 -5q66 0 115 29q70 42 115 119q37 66 59.5 136.5t34.5 148.5q19 113 19 230v47q-4 142 -15 270q-6 72 -13 142.5t-18 142.5q-135 -10 -271 -21t-271 -27q-29 2 -34 26z" />
<glyph unicode="J" horiz-adv-x="794" d="M-54 -54q5 70 25 136q18 61 45 113.5t62 105.5q20 20 40.5 8t10.5 -41q-31 -47 -62.5 -109.5t-48.5 -128.5q-15 -55 -15 -107q0 -13 1 -25q4 -64 45 -117q29 -27 65 -33q27 -4 53 -4h17q57 4 114.5 32.5t109 70.5t91.5 91.5t64 94.5q41 74 66.5 158.5t40 178t16.5 190.5 q1 32 1 65q0 65 -3 131q-8 147 -26.5 288.5t-39.5 264.5q-72 -6 -136 -12.5t-128.5 -12.5t-130 -12t-141.5 -12q-16 0 -24.5 9t-8.5 20t7 20.5t24 11.5q141 14 282.5 26.5t282.5 26.5q20 -4 29 -24q25 -127 45 -279.5t26 -312.5q2 -52 2 -103.5t-2 -102.5 q-4 -103 -18 -200.5t-41 -185.5t-70 -164q-57 -102 -137 -177t-190 -116q-57 -18 -121 -22h-17q-78 0 -122 33q-49 38 -69 96q-15 47 -15 101q0 14 1 29z" />
<glyph unicode="K" horiz-adv-x="1839" d="M16 100q16 22 45 4q33 -20 66 -37.5t72 -23.5q31 -5 59 -5q66 0 114 29q70 42 115 119q23 39 39.5 81t28.5 87q23 78 32 162t11 169q1 28 1 57q0 56 -3 112q-4 84 -10 164q-6 72 -13.5 142.5t-17.5 142.5q-47 -29 -91 -59t-97 -64q-20 -12 -41.5 -26t-46.5 -28 q-29 -10 -42.5 9.5t7.5 40.5q27 18 64.5 39.5t82.5 50.5q47 29 96.5 60.5t96.5 51.5q20 -4 28 -24q10 -80 19.5 -165t15.5 -165q11 -120 13 -240v-45q0 -99 -9 -204q-4 -61 -18.5 -131t-40 -136.5t-61 -125t-85.5 -99.5t-114 -59q-33 -10 -71 -10q-35 0 -73 8 q-47 10 -86 30.5t-77 42.5q-15 14 -15 27q-1 9 6 18zM700 608q-1 4 -1 8q0 15 12 27q170 129 339.5 252t335.5 256q11 5 19 5q13 0 23 -12q14 -18 -3 -40q-162 -129 -328.5 -252t-332.5 -246q37 -106 94 -206.5t134 -181.5t172.5 -139.5t211.5 -80.5q63 -12 127 -12t127 16 q66 18 124 51t110.5 75t100.5 89t95 96q12 12 24.5 12.5t19.5 -7.5q10 -12 10 -25q0 -10 -9 -21q-102 -109 -207.5 -192.5t-246.5 -134.5q-66 -23 -141.5 -23t-143.5 15q-127 27 -232.5 90t-188.5 153t-144.5 199.5t-100.5 228.5z" />
<glyph unicode="L" horiz-adv-x="1249" d="M82 33q0 35 20.5 59.5t50 41t64.5 24.5t64 8t59 -6q12 47 18.5 91t12.5 77q14 94 29.5 206.5t37 228.5t53 226.5t80.5 198.5q55 100 136 160.5t198 60.5q78 0 164 -41q16 -10 16 -29q0 -12 -8 -21t-22 -9q-2 0 -15 4q-35 16 -71.5 22t-75.5 6q-94 0 -159.5 -50 t-112.5 -136q-47 -82 -77 -188.5t-50.5 -219t-35 -225t-28.5 -207.5q-6 -35 -13 -77.5t-18 -90.5q27 -8 52.5 -17t50.5 -21q100 -51 201.5 -83t203.5 -32q154 0 292 86t267 233q10 10 25 11q29 0 29 -29q0 -12 -9 -23q-61 -72 -131.5 -134t-148.5 -108t-164 -73t-180 -27 q-76 0 -147.5 19.5t-139.5 44.5q-47 16 -103.5 45t-115.5 49q-25 -66 -68 -112t-114 -46q-47 0 -82 31t-35 72zM147 25q6 -14 10 -23.5t33 -9.5q49 0 81 32.5t51 79.5q-10 2 -22.5 3.5t-23.5 1.5q-18 0 -39.5 -4.5t-40 -14.5t-32.5 -25.5t-17 -39.5z" />
<glyph unicode="M" horiz-adv-x="1810" d="M90 -12q41 205 97.5 403.5t119.5 396.5q37 117 78 235t102 224q11 11 24 11q6 0 11 -2q19 -7 21 -31q0 -121 12 -240q10 -92 26.5 -181t45.5 -181q10 -37 28.5 -84t42 -93.5t54 -86.5t67.5 -60q32 -17 69 -17h11q43 3 92 42q29 23 51.5 46t44.5 52q31 37 57.5 79t51.5 83 q49 86 91 174t77 180q12 27 34.5 23.5t24.5 -31.5q-4 -29 -7 -60.5t-7 -70.5q-4 -49 -9 -122q-3 -46 -3 -94q0 -29 1 -60q3 -81 14.5 -160.5t43 -142t83.5 -99.5q45 -32 112 -32q11 0 22 1q66 6 117 35q29 14 62.5 36.5t56.5 43.5q35 29 63.5 56.5t50.5 51.5 q10 10 21.5 10.5t21 -5t12.5 -15.5q1 -3 1 -7q0 -7 -4 -15q-25 -29 -45.5 -49.5t-40 -38t-42 -35t-49.5 -37.5q-29 -23 -72.5 -47.5t-78.5 -32.5q-37 -8 -76 -13q-15 -2 -30 -2q-24 0 -46 5q-70 16 -115.5 59t-75.5 102.5t-45.5 130t-20.5 144.5q-3 46 -3 90q0 27 1 53 q3 68 7 125l-46 -94t-50 -90q-25 -43 -53.5 -86t-60.5 -84q-23 -29 -47.5 -54.5t-55.5 -50.5q-70 -57 -130 -60h-11q-53 0 -99 28q-50 30 -91.5 88.5t-73 125t-53 132t-33.5 115.5q-23 96 -36.5 194t-19.5 203q-111 -270 -192.5 -555t-140.5 -572q-4 -16 -16 -21 q-8 -4 -15 -4q-3 0 -7 1q-10 2 -17 11q-5 7 -5 19v7z" />
<glyph unicode="N" horiz-adv-x="1605" d="M160 8q35 168 74.5 337t91 335t116 325.5t148.5 311.5q13 13 25 13q3 0 7 -1q16 -4 23 -24q29 -193 61.5 -382.5t90.5 -375.5q20 -74 50 -163t73 -167t103 -130t142 -52q88 0 131 55t70 143q23 81 28 171q2 36 2 72q0 55 -4 111q-8 93 -24 183t-37 170q-4 14 3 24.5 t17.5 13.5t21.5 -2t18 -20q45 -182 57 -366q3 -47 3 -94q0 -137 -26 -275q-6 -31 -22.5 -68.5t-34.5 -66.5q-37 -55 -84 -80.5t-113 -30.5h-11q-33 -1 -77 9q-51 12 -107 62t-114.5 152.5t-111.5 284.5q-18 57 -37 122t-37.5 150t-38 193.5t-39.5 253.5 q-63 -117 -108.5 -241.5t-86.5 -249.5q-57 -178 -102 -355.5t-82 -359.5q-4 -16 -15 -22q-8 -4 -16 -4q-4 0 -6 1q-10 1 -17 11q-5 7 -5 19v7z" />
<glyph unicode="O" horiz-adv-x="1331" d="M166 651q20 141 90 268.5t184 206.5q92 66 201 92q83 19 167 19q26 0 52 -2q14 -4 21.5 -14.5t6.5 -21.5t-10.5 -18t-25.5 -7q-23 2 -45 2q-119 0 -228 -46q-130 -54 -221 -167q-74 -97 -110 -227q-27 -98 -26 -195q0 -33 3 -66q12 -129 72.5 -241.5t181.5 -174.5 q98 -49 206 -51h11q102 0 195 37q106 41 189 121t118 190q27 86 27 183.5t-23.5 193.5t-70 183.5t-109.5 150.5q-10 23 1 38t36 11q70 -25 135 -25q6 1 12 1q70 2 150 18q29 0 34 -24q1 -4 1 -7q0 -18 -21 -28q-72 -15 -129 -19q-11 -1 -23 -1q-46 0 -96 11q51 -72 90 -164 q40 -92 60 -189q18 -85 17 -166v-24q-3 -93 -36 -165q-14 -31 -25 -55.5t-23.5 -48t-28 -46t-39.5 -47.5q-57 -63 -130 -105t-153 -62q-76 -19 -156 -18h-8q-84 1 -162 23q-29 8 -60.5 25.5t-62 39t-58.5 45.5t-46 46q-92 109 -124 244q-19 82 -19 165q0 55 8 111z" />
<glyph unicode="P" horiz-adv-x="937" d="M76 37q33 311 79 617.5t124 611.5q8 20 30 22q106 12 215 16h31q93 0 184 -18q43 -8 86 -23.5t80 -41.5q117 -81 155 -189q24 -68 24 -136q0 -41 -9 -83q-12 -66 -44 -125t-78 -108.5t-104 -83t-126 -47.5q-44 -9 -87 -9q-63 0 -126 19q-66 23 -122 61.5t-105 87.5 q-23 18 -11.5 40t39.5 16q23 -10 40.5 -31t35.5 -37q51 -41 110.5 -65.5t125.5 -26.5h18q77 0 143 30q74 34 128 92q56 58 84 135q27 72 26 150v11q-4 115 -82 196q-41 41 -90 66.5t-105 40.5q-82 20 -170 20q-19 -1 -39 -1q-108 -6 -204 -15q-66 -299 -115 -595t-80 -601 q-10 -26 -32 -26h-1q-24 1 -28 30z" />
<glyph unicode="Q" horiz-adv-x="1331" d="M166 651q20 141 90 268.5t184 206.5q92 66 201 92q83 19 167 19q26 0 52 -2q14 -4 21.5 -14.5t6.5 -21.5t-10.5 -18t-25.5 -7q-23 2 -45 2q-118 0 -228 -46q-130 -53 -221 -167q-74 -96 -110 -227q-26 -97 -26 -195q0 -33 3 -66q12 -129 72.5 -241.5t181.5 -174.5 q92 -47 195 -51h22q90 0 174 29q-111 66 -193.5 175.5t-135.5 225.5q-6 29 15.5 38t39.5 -13q45 -98 107.5 -191.5t152.5 -156.5q45 -33 84 -49q90 45 157.5 118.5t100.5 171.5q27 86 27 183.5t-23.5 193.5t-70 183.5t-109.5 150.5q-10 23 1 38t36 11q70 -25 135 -25 q6 0 12 1q70 2 150 18q29 0 34 -23.5t-20 -35.5q-72 -16 -129 -19q-11 -1 -23 -1q-46 0 -96 11q51 -72 90 -164t60 -189q17 -85 17 -166v-24q-3 -93 -36 -165q-14 -31 -25 -55.5t-23.5 -48t-28 -46t-39.5 -47.5q-53 -57 -121 -98q45 -11 88 -11q70 0 136 29q108 47 206 146 q29 29 52.5 55.5t53.5 58.5q20 20 41 8q14 -8 14 -24q0 -7 -3 -16q-43 -53 -76 -86l-74 -74q-37 -35 -80 -67.5t-90 -53.5q-87 -36 -167 -36h-12q-85 3 -163 34q-98 -41 -204 -48q-22 -1 -43 -1q-85 0 -167 22q-29 8 -60.5 25.5t-62 39t-58.5 45.5t-46 46q-92 109 -124 244 q-19 82 -19 165q0 55 8 111z" />
<glyph unicode="R" horiz-adv-x="1331" d="M322 37q33 311 78.5 617.5t123.5 611.5q8 20 31 22q106 12 215 16h31q93 0 184 -18q43 -8 86 -23.5t80 -41.5q117 -81 155 -189q24 -68 23 -137q0 -41 -8 -82q-12 -66 -44 -125t-78 -108.5t-104.5 -83t-125.5 -47.5q-44 -9 -87 -9q-63 0 -126 19q-39 12 -79 36.5 t-73 47.5q12 -35 28.5 -76t37.5 -82q29 -59 75 -133t111 -127q53 -43 106.5 -65.5t106.5 -26.5q18 -2 36 -2q83 0 161 39q94 47 180 133q29 29 52.5 55.5t53.5 58.5q20 20 41 8q14 -8 14 -24q0 -7 -3 -16q-43 -53 -76 -86l-74 -74q-37 -35 -80 -67.5t-90 -53.5 q-91 -38 -178 -38q-66 0 -129 22q-145 47 -258 196q-131 168 -203 443q-4 23 8.5 34t28.5 3q25 -10 43 -31t37 -37q51 -41 110.5 -65.5t124.5 -26.5h18q76 0 143 30q75 34 129 92t83 135q27 72 27 150v11q-4 115 -82 196q-41 41 -90 66.5t-105 40.5q-82 20 -170 20 q-19 -1 -39 -1q-108 -6 -204 -15q-66 -299 -115 -595t-80 -601q-10 -27 -33.5 -26t-27.5 30z" />
<glyph unicode="S" d="M136 -1q3 11 13.5 17.5t26.5 1.5q86 -23 170 -38q66 -12 138 -12q19 0 38 1q115 4 226 37q59 18 108 44t84 61q68 63 74 150v11q0 82 -84 179q-51 59 -119 99t-131 83q-53 35 -111.5 79t-99.5 103q-41 57 -55 121q-5 21 -5 42q0 45 21 93q29 66 100.5 115t159.5 78 q86 29 173 36q25 2 49 2q57 0 102 -12q55 -14 101 -39.5t76 -63.5q30 -37 40 -87q4 -19 4 -40q0 -33 -10 -71q-4 -16 -15.5 -21t-21.5 -3t-17.5 11t-5.5 25q7 28 7 54q0 57 -36 100q-52 62 -141 76q-38 7 -87 7q-20 0 -42 -1q-76 -4 -153 -27q-82 -23 -147.5 -70.5 t-86.5 -105.5q-8 -26 -8 -51q0 -11 1 -21q5 -36 21.5 -68t40 -61.5t48.5 -54.5q43 -43 109.5 -84t135.5 -86q47 -31 92.5 -64.5t79 -72.5t55 -84t21.5 -96q0 -49 -7 -91t-36 -83q-18 -29 -44.5 -50.5t-55.5 -41.5q-37 -27 -79 -44.5t-85 -31.5q-123 -39 -244 -41 q-20 -1 -40 -1q-75 0 -145 12q-89 15 -181 40q-16 5 -20 17q-3 7 -3 14q0 5 1 9z" />
<glyph unicode="T" horiz-adv-x="747" d="M-180 918q24 72 88 131q45 41 103.5 74.5t120 59t120.5 44t104 30.5q113 27 207 46.5t183.5 31t178.5 14.5q38 1 79 1q55 0 114 -2q23 -8 23 -31t-25 -27q-54 2 -105 2t-98 -2q-94 -4 -184 -14t-180 -28.5t-189 -43.5q-37 -10 -93 -27.5t-117.5 -43t-119 -59.5t-98.5 -75 q-43 -45 -58 -97q-5 -17 -5 -34q0 -38 22 -80q8 -25 -10.5 -35.5t-38.5 5.5q-31 58 -31 109q1 27 9 51zM106 20q-1 -3 0 -5q0 -7 4 -14q6 -9 19 -15q28 -6 55 -6q32 0 60 8q54 14 98.5 46t78.5 78t56 99q63 143 83 301t24 311q2 78 4 159v27q0 67 -8 132q-9 25 -31 25h-3 q-24 -2 -28 -31q10 -78 10 -155t-4 -153q-2 -78 -8 -168t-21.5 -179t-43 -173t-72.5 -151q-47 -66 -105 -96q-38 -19 -85 -19q-25 0 -52 6q-14 -2 -21.5 -9.5t-9.5 -17.5z" />
<glyph unicode="U" horiz-adv-x="1495" d="M186 635q0 158 18.5 313t53.5 309q10 23 28 23q2 0 6 -1q22 -5 25 -34q-59 -264 -67 -534q-1 -41 -1 -83v-43q1 -65 8 -129.5t24.5 -127t48.5 -117.5q49 -92 120.5 -136t150.5 -46h7q75 0 149 39q77 41 138 118q51 68 85 141.5t55.5 151.5t33.5 159t23 163 q10 68 17 152.5t11 168.5q2 14 11.5 22.5t20.5 7.5t20.5 -9t9.5 -25v-23.5t-2 -23.5q-2 -45 -4 -96t-2 -94q-1 -46 -1 -92q0 -114 4 -229q5 -161 48 -316q6 -25 16 -53.5t25.5 -55t37 -45t50.5 -22.5l18 -2q33 0 67 18q44 22 72 43q53 39 104.5 88t94.5 100q12 12 24.5 12.5 t19.5 -7.5q9 -11 9 -25q0 -10 -8 -21q-37 -51 -89 -100t-85 -76q-23 -18 -55.5 -37.5t-57.5 -31.5q-56 -27 -101 -27q-14 0 -27 3q-54 11 -91 52t-60.5 104.5t-36.5 131t-19.5 131t-8.5 108.5q-2 27 -2 41.5v28.5q-25 -139 -73 -269t-148 -233q-65 -68 -145 -102 q-73 -31 -149 -30h-13q-82 3 -157 44t-132 121q-74 109 -96.5 241t-22.5 261z" />
<glyph unicode="V" horiz-adv-x="1015" d="M-27 1018q-1 4 -1 8q0 8 5 18q41 61 78 108.5t90 100.5q14 15 33 29q12 8 21 9q5 0 10 -3q18 -10 18 -59q10 -319 90 -607t213 -579q127 258 272.5 504t303.5 487q20 20 40 8q14 -8 14 -24q0 -8 -3 -17q-166 -254 -316.5 -512t-285.5 -532q-11 -15 -27 -15h-2 q-16 1 -26 19q-133 293 -223.5 598t-110.5 629q-37 -41 -71 -85t-66 -91q-10 -12 -21.5 -14.5t-21 3t-13.5 17.5z" />
<glyph unicode="W" horiz-adv-x="1730" d="M61 1165q27 25 71 47.5t93 42t97.5 34t87.5 22.5q5 1 10 1q15 0 23 -10q10 -14 1 -34q-51 -98 -92 -210t-66.5 -229.5t-33.5 -236.5q-3 -40 -3 -78q0 -78 11 -152q6 -45 18.5 -95t36 -93t58.5 -74.5t86 -40.5q45 4 85 27t77 51q66 51 119 124t93.5 154t70.5 162.5 t46 151.5q10 23 28.5 23t29.5 -23l4 2q-2 -2 -2 -8q6 -45 14 -114.5t22.5 -146.5t38 -154t58.5 -138q29 -49 64.5 -86t82.5 -41q39 6 71 28.5t58.5 54.5t47 67.5t34.5 66.5q81 184 97 394q5 67 5 133q0 140 -24 274q4 29 27.5 31t33.5 -25q18 -102 22 -218q1 -31 2 -61 q0 -86 -10 -172q-12 -116 -42.5 -226.5t-81.5 -205.5q-27 -49 -66 -96q-14 -18 -30.5 -35.5t-38.5 -32.5q-53 -34 -99 -34h-2q-44 0 -80 22q-38 22 -69 60t-55.5 84.5t-42 95.5t-29.5 90q-20 70 -29.5 128t-17.5 122q-45 -135 -118 -260t-179 -224q-20 -18 -35.5 -30.5 t-30 -21.5t-32 -18t-41.5 -22q-40 -19 -77 -19q-30 0 -58 13q-60 29 -103 88.5t-67.5 133t-30.5 128.5q-8 75 -8 147q0 41 3 83q7 112 29.5 219.5t57 215t81.5 218.5q-25 -6 -61.5 -18.5t-73.5 -27.5t-69.5 -32.5t-51.5 -36.5q-23 -16 -40 0q-10 10 -10 22q0 9 5 19z" />
<glyph unicode="X" horiz-adv-x="1568" d="M-4 1100q49 53 104.5 104t118.5 86q10 4 19 4q16 0 26 -14q10 -16 22.5 -31.5t22.5 -31.5q45 -70 91 -139.5t94 -139.5q41 -57 80.5 -113.5t80.5 -113.5q2 -4 7 -9q78 119 156.5 234.5t164.5 228.5q12 12 24.5 12.5t19.5 -8t9 -20.5t-8 -25q-86 -117 -168 -234.5 t-160 -240.5q16 -23 34 -45t36 -45q41 -51 92 -115.5t111.5 -127t129 -118t141.5 -86.5q74 -32 150 -36h13q70 0 141 37q70 37 126.5 89t107.5 111q12 12 24.5 12.5t19.5 -7.5q9 -11 9 -25q0 -10 -8 -21q-39 -45 -79 -87t-91 -76q-49 -33 -103.5 -61t-115.5 -34 q-21 -2 -43 -2q-89 0 -173 40q-104 50 -196 130t-170 173.5t-137 168.5q-14 18 -26.5 36t-26.5 36q-113 -176 -217.5 -354.5t-208.5 -358.5q-10 -12 -22 -14q-3 -1 -6 -1q-8 0 -14 4q-10 5 -14 17.5t4 26.5q104 184 212 367.5t225 363.5q-4 6 -10.5 13.5t-10.5 15.5 q-41 57 -81 113.5t-81 113.5q-55 80 -105 162t-110 160q-51 -37 -97 -78t-89 -88q-23 -16 -40 0q-10 9 -10 22q0 9 5 19z" />
<glyph unicode="Y" horiz-adv-x="974" d="M121 1278q2 16 11 22.5t20 6.5q10 0 19 -8.5t11 -24.5q-3 -30 -3 -62.5t3 -66.5q6 -68 24.5 -132.5t50.5 -124t77 -104.5q55 -57 131 -84q46 -17 100 -17q35 0 74 7q12 2 23.5 5t21.5 7q23 78 45.5 139.5t56.5 133.5q8 18 21.5 46t30 58.5t37 62.5t43.5 56q31 35 66 52 q18 8 36 8q16 0 33 -7q14 -8 18 -22q8 -24 8 -50v-11q-2 -31 -11 -64t-22.5 -63.5t-23.5 -55.5q-29 -72 -70 -136.5t-94 -113.5q-29 -25 -59.5 -45t-65.5 -35q-47 -160 -78.5 -321.5t-66.5 -321.5q-4 -16 -16 -21q-8 -4 -15 -4q-3 0 -6 1q-10 2 -17.5 11t-5.5 26 q16 80 34 161.5t36 159.5q14 66 26.5 118t28.5 116q6 35 13 53q-4 0 -7.5 -1t-7.5 -1q-45 -8 -86 -8q-58 0 -109 17q-85 28 -151 89q-53 49 -91 113.5t-60.5 137.5t-30.5 150q-5 43 -5 85q0 32 3 63zM758 737q41 27 80 66q41 43 73.5 95t55.5 110q6 16 16 40.5t21 51.5 q14 37 19 66q1 7 1 13q0 15 -10 15q-20 0 -43 -24.5t-47 -63.5q-35 -53 -65 -117.5t-48 -107.5q-16 -35 -28.5 -71t-24.5 -73z" />
<glyph unicode="Z" horiz-adv-x="1464" d="M287 138q1 26 19 54q20 32 47.5 63.5t56 58t45.5 40.5q147 137 309 261t315 266q31 29 51.5 58.5t20.5 57.5q0 25 -18.5 47.5t-65.5 45.5q-66 28 -146 28h-6q-20 1 -41 1l-61 -2q-51 -3 -102 -9q-92 -10 -175 -35.5t-167 -60.5q-16 -4 -26.5 2t-13.5 16t1 21.5t18 17.5 q170 74 350 98q92 13 183 14q17 0 34 -1q53 -2 110.5 -12.5t107.5 -43.5q45 -29 64.5 -58.5t19.5 -59.5q0 -41 -25 -79t-62 -75q-86 -86 -177 -161t-189 -152q-86 -66 -170 -138.5t-162 -146.5q-29 -29 -55.5 -62.5t-28.5 -62.5q4 -31 24.5 -54.5t53.5 -39.5 q35 -18 80 -30.5t92 -21t91 -11.5t79 -5q52 -3 103 -3t101 3q100 6 195 29q158 35 289 117q125 78 223 200q12 12 24.5 12.5t20 -8t9.5 -20.5v-4q0 -10 -9 -21q-109 -133 -237 -213q-68 -43 -141.5 -72.5t-151.5 -47.5q-123 -29 -250 -34q-37 -1 -75 -1q-91 0 -187 8 q-49 4 -115.5 14.5t-128 35t-104.5 65.5q-47 45 -47 111z" />
<glyph unicode="[" horiz-adv-x="995" d="M399 -217q35 418 70 832.5t70 834.5q4 29 32 31q68 2 135.5 4t135.5 4q29 -6 28.5 -29.5t-26.5 -32.5q-61 -2 -123 -3t-123 -5l-135 -1603q72 4 144.5 7t144.5 7q29 -6 28.5 -29.5t-26.5 -31.5q-80 -4 -160 -8.5t-160 -8.5q-29 2 -35 31z" />
<glyph unicode="\" horiz-adv-x="1015" d="M78 1374q-10 29 10.5 41t40.5 -8q188 -362 374.5 -720.5t375.5 -721.5q8 -14 4 -26.5t-13.5 -17.5t-21.5 -3t-21 14q-188 362 -374.5 721t-374.5 721z" />
<glyph unicode="]" horiz-adv-x="995" d="M243.5 -218.5q0.5 23.5 26.5 32.5q61 2 123 3t123 5l135 1603q-72 -4 -144.5 -7t-144.5 -7q-29 6 -28.5 29.5t26.5 32.5l160 8l160 8q29 -2 35 -31q-35 -418 -70 -832.5t-70 -834.5q-4 -29 -32 -31q-68 -2 -135.5 -4t-135.5 -4q-29 6 -28.5 29.5z" />
<glyph unicode="_" horiz-adv-x="1314" d="M246 -51q0 10 8 20.5t25 12.5q53 0 134 1t175 2t194.5 2t194.5 2t175 3t134 4q29 -6 30 -28.5t-26 -33.5q-53 -2 -134 -4t-176 -3t-195.5 -2t-195.5 -2t-176 -2t-134 -1q-16 0 -24.5 9.5t-8.5 19.5z" />
<glyph unicode="`" horiz-adv-x="1142" d="M502 997.5q-2 12.5 3 21.5t17.5 13t26.5 -2q51 -35 92 -62.5t79 -54t79 -54.5t94 -64q18 -18 7 -40t-38 -14q-53 37 -94 65t-79 54.5t-79 54t-92 62.5q-14 8 -16 20.5z" />
<glyph unicode="a" d="M176 118q0 44 10 91q20 82 65.5 163t88.5 128q66 70 146 117q76 45 156 45h7q55 0 97 -22t71 -53.5t44.5 -68t19.5 -67.5q4 -18 -4.5 -28.5t-18.5 -11.5t-21.5 6t-13.5 23q-16 76 -61 116t-111 44h-11q-66 0 -140 -43q-80 -47 -150 -141q-45 -59 -77.5 -131t-32.5 -148 q0 -81 53 -115q34 -22 76 -21q24 0 51 7q57 16 110.5 51t100.5 78t88 91t78 94q14 18 35.5 12t19.5 -35q-4 -23 -9 -55.5t-7 -61.5q-1 -14 -1 -27q0 -33 7 -62q10 -40 32.5 -63.5t58.5 -27.5q5 -1 10 -1q33 0 77 22q51 25 107.5 67.5t109.5 89.5q41 35 76 70l63 63 q12 12 24.5 12.5t19.5 -7.5q10 -12 10 -25q0 -10 -9 -21q-35 -35 -76.5 -74.5t-89.5 -78.5q-61 -51 -126.5 -95t-131.5 -69q-36 -13 -65 -13q-18 0 -34 5q-42 12 -69.5 45t-41 80t-13.5 94v33q-35 -41 -76 -82t-85 -76t-90 -59.5t-91 -32.5q-34 -6 -54 -9q-9 -1 -18 -1 q-14 0 -30 2q-55 8 -89 33.5t-49.5 62.5t-15.5 81z" />
<glyph unicode="b" horiz-adv-x="1290" d="M213 295q0 12 4 18l43.5 43.5t38.5 42.5q-6 63 -6 131q0 125 24.5 250t61.5 236q6 20 17.5 51t26.5 66.5t34.5 73.5t42.5 73q37 59 82 99t94 40q53 0 71.5 -47t18.5 -108q0 -117 -33 -234t-90 -233q-55 -113 -127 -216.5t-149 -195.5q16 -68 45.5 -136.5t76.5 -125.5 t117 -95t164 -44q16 -1 30 -1q90 0 144 42q62 49 62 143q0 76 -31 162q-2 4 -2 10q0 14 9 21.5t19 7.5q16 0 29 -15q16 -33 41 -62.5t55.5 -52t63.5 -36t67 -13.5q82 0 136.5 29t113.5 94q10 10 23.5 14.5t23.5 -5.5t11 -26q0 -14 -11 -24q-51 -59 -126.5 -101t-141.5 -46 q-11 -1 -22 -1q-60 0 -107 20q-55 22 -92 57q2 -10 2 -18.5v-16.5q0 -47 -17.5 -93t-54.5 -83q-37 -38 -94 -58q-44 -16 -102 -15q-17 0 -35 1q-102 8 -179 47t-134 98q-51 53 -85 121t-53 142q-14 -14 -26.5 -28t-24.5 -26q-10 -6 -20 -6q-29 0 -29 29zM354 501 q0 -18 2 -36q78 96 136.5 191.5t105.5 203.5q23 51 41 104.5t37 112.5q14 45 20 95.5t6 92.5q0 43 -6 69q-6 25 -16 24h-2q-35 -4 -67.5 -34t-65.5 -79q-39 -59 -74 -142t-60.5 -178.5t-41 -195.5t-15.5 -194v-34z" />
<glyph unicode="c" horiz-adv-x="1112" d="M215 282q2 54 23 105q41 102 122 178q41 37 87.5 64.5t99.5 42.5q49 14 93.5 14.5t84.5 -14.5q47 -18 76.5 -60t29.5 -112q0 -16 -9 -23.5t-21.5 -6.5t-21.5 9t-9 25q0 45 -20.5 71.5t-53.5 38.5q-30 10 -64 10q-2 0 -3 1q-33 0 -66 -11q-86 -25 -153 -84 q-76 -68 -115 -163q-17 -45 -19 -93v-18q0 -39 9 -76q16 -66 54 -107.5t91 -66.5q43 -20 92 -30q50 -9 100 -11q17 -1 33 -1q34 0 67 3q50 4 95 10q78 16 142.5 46t123.5 71q70 47 130.5 104.5t117.5 114.5q12 12 24.5 12.5t20.5 -7.5q9 -9 9 -22q0 -12 -9 -24 q-59 -59 -123.5 -118.5t-138.5 -108.5q-66 -43 -137.5 -74.5t-153.5 -48.5q-51 -10 -109 -14q-26 -2 -51 -2q-32 0 -65 3q-59 5 -115.5 19.5t-105.5 40.5q-55 31 -96 81t-58 124q-8 44 -8 89v19z" />
<glyph unicode="d" horiz-adv-x="1439" d="M205 229q0 53 22 115q76 158 189.5 238t222.5 80q57 0 101 -20.5t73 -52.5t45 -69t21 -69v-11q0 -31 -27 -30q-10 0 -19.5 7t-11.5 23q-16 78 -65 119t-119 41q-45 0 -108.5 -29.5t-122 -80t-99.5 -120t-41 -149.5q0 -23 9.5 -53.5t31 -59t59 -49t97.5 -20.5 q68 0 132 29.5t121.5 74.5t105.5 96.5t85 94.5q-6 76 -6 153v20q0 163 30 325q32 172 91 325q16 41 43 101.5t65 115.5q33 47 72 79t86 32q66 0 92.5 -46t26.5 -118q0 -74 -22.5 -165t-52 -177t-58.5 -153.5t-43 -96.5q-27 -55 -53.5 -105.5t-57 -99.5t-68.5 -101t-87 -112 q6 -59 29.5 -110t60.5 -90t83 -60.5t93 -21.5q59 0 117.5 26.5t113.5 69.5q27 20 62 55t66.5 67t57 55.5t35.5 23.5q29 0 29 -29q0 -18 -28.5 -52t-67.5 -70t-78 -68.5t-59 -47.5q-20 -14 -43 -30.5t-52.5 -29.5t-67.5 -22.5t-87 -9.5q-55 0 -107.5 23.5t-95.5 63.5 t-72.5 91.5t-35.5 108.5q-49 -55 -104.5 -104.5t-114 -88t-119 -61.5t-119.5 -23q-61 0 -109.5 20.5t-81 56.5t-49 81t-16.5 94zM961 436.5q0 -18.5 2 -35.5v-2q117 152 198.5 323t136.5 347q4 14 12.5 43t15.5 62.5t13.5 70.5t6.5 70q0 39 -12.5 73.5t-45.5 34.5 q-25 0 -49.5 -19.5t-46.5 -49.5q-39 -53 -69.5 -118t-45.5 -101q-59 -158 -87.5 -326t-28.5 -338v-34.5z" />
<glyph unicode="e" horiz-adv-x="978" d="M193 223q12 100 71.5 186.5t138.5 149.5q18 14 37 27.5t39 23.5q33 18 75 34q42 14 85 20q16 2 31 3q27 -1 52 -7q40 -10 73 -39q37 -35 44 -75q3 -14 2 -29q1 -26 -7 -51q-12 -40 -39 -75.5t-58 -62.5q-43 -39 -103 -60q-58 -20 -124 -26q-36 -3 -72 -3l-60 2 q-66 5 -120 17q-4 -10 -5 -21.5t-3 -21.5q-3 -17 -3 -34q0 -31 10 -60q15 -45 48 -79t80 -55.5t102 -25.5q29 -3 57 -3q121 0 242 48q104 41 206 119t204 188q10 12 22.5 12.5t20.5 -7.5q10 -10 10 -24q0 -11 -8 -22q-78 -80 -153.5 -145.5t-153.5 -112.5q-100 -60 -206 -90 q-83 -23 -178 -24q-26 0 -52 2q-92 6 -153.5 37.5t-98.5 78.5q-36 44 -48 98q-8 34 -8 69q0 19 3 38zM281 317q51 -12 106 -16q22 -2 44 -2q33 0 67 4q56 6 106.5 23.5t93.5 48.5q20 14 41 39.5t31 53.5q8 23 8 47v9q-2 28 -26 51t-56 28q-16 2 -32 2.5t-33 -2.5 q-33 -5 -64.5 -18.5t-56.5 -27.5q-72 -41 -133.5 -102.5t-95.5 -137.5z" />
<glyph unicode="f" horiz-adv-x="940" d="M104 74q11 22 39 16q127 -53 265 -60q27 -1 53 -1q112 0 221 24q66 16 127 38t121 52q137 72 235 176q12 10 23.5 8.5t17.5 -10t6 -20.5t-8 -25q-51 -53 -109.5 -99t-123.5 -81q-72 -41 -151 -68.5t-163 -41.5q-91 -17 -183 -17q-46 0 -92 5q-138 12 -267 65 q-15 12 -15 26q0 6 4 13zM217 313q100 106 191.5 218t164.5 235q39 66 72 134.5t57 139.5q20 59 33 119t17 125q1 9 1 17q0 28 -11 49q-9 20 -33 20q-10 0 -23 -4q-59 -35 -113 -90q-74 -82 -115.5 -187.5t-62.5 -207.5q-33 -164 -40 -313q-2 -50 -2 -100q0 -99 9 -198 q16 -178 57.5 -352t98.5 -362q0 -29 -22 -35q-5 -1 -9 -1q-17 0 -28 19q-49 166 -90 329t-62 331q-8 59 -11 119.5t-5 121.5v29q0 137 17 283q18 163 73 305q31 84 79 170t120 141q29 23 70 44q34 19 65 19q6 0 12 -1q37 -4 55.5 -27t25.5 -55q5 -24 5 -51v-16 q-2 -36 -4 -62q-4 -37 -8 -56.5t-15 -52.5q-29 -98 -67.5 -192.5t-91.5 -184.5q-76 -127 -169.5 -239.5t-195.5 -221.5q-23 -16 -40 0q-10 10 -10 22q0 9 5 19z" />
<glyph unicode="g" horiz-adv-x="1077" d="M178 140q2 48 15 93q29 100 86 192.5t141 152.5q68 49 131 67q44 13 84 13q53 0 100 -23q97 -49 146 -184q4 -16 -3.5 -25.5t-18.5 -12.5t-22.5 2t-15.5 19q-10 27 -20 50.5t-29 45.5q-25 35 -58.5 49.5t-70.5 14.5h-8q-57 0 -115 -28q-63 -31 -106 -72 q-47 -47 -84 -103.5t-62 -118.5q-12 -31 -21 -68.5t-9 -74.5t10 -68.5t37 -50.5q20 -16 59 -16t74 10q53 14 105 47t100 76q51 47 92 95t65 89q10 10 27 13q25 0 39 -27q8 -58 8 -115q0 -66 -10 -131q-21 -123 -47 -241q-35 -152 -100.5 -286t-186.5 -247q-37 -35 -73 -45 q-17 -5 -33 -5q-17 0 -32 6q-28 11 -47.5 44t-21.5 82q-1 11 -1 22q0 86 42 162q47 86 119 148q156 131 336 219q72 35 132 75t116 83q72 57 133 119.5t116 127.5q12 12 24.5 12.5t19.5 -7.5q10 -12 10 -25q0 -10 -9 -21q-66 -74 -142.5 -149.5t-168.5 -140.5 q-35 -25 -69.5 -47.5t-71.5 -40.5q-53 -29 -97 -52.5t-84 -48t-78 -51.5t-81 -61q-47 -39 -94 -90.5t-74 -110.5q-18 -43 -21 -88v-10q0 -40 19 -82q23 -25 51 -9q59 43 106.5 101.5t86.5 128.5q43 80 74.5 168t52 179t31 179t10.5 168q-39 -53 -91.5 -110.5t-107.5 -92.5 q-59 -35 -128 -64q-49 -20 -99 -20q-21 0 -43 4q-55 8 -87 40t-45 75q-12 37 -12 79v12z" />
<glyph unicode="h" horiz-adv-x="1579" d="M211 295q0 12 4 18q72 72 123 144.5t92 132.5q88 125 149.5 239.5t96.5 237.5q2 12 8 36.5t10 55.5t8.5 63.5t4.5 61.5q0 35 -6.5 55.5t-24.5 20.5q-31 0 -63.5 -25.5t-63.5 -67.5t-58.5 -94.5t-46.5 -103.5q-41 -115 -68.5 -245t-27.5 -265q0 -127 17.5 -244.5 t58.5 -224.5q57 123 116.5 232.5t119 192.5t122 131t129.5 48q72 0 126.5 -50t99.5 -122q43 -72 74.5 -147.5t65.5 -138t80 -102.5t118 -40q49 0 95 22.5t87 56.5t76.5 73t64.5 69q10 10 23 11q10 0 19 -9.5t9 -23.5q0 -10 -10 -25q-35 -39 -75 -80t-85 -75.5t-95 -57 t-107 -22.5q-82 0 -140.5 48t-101.5 117.5t-75 145.5t-62 129q-43 76 -90 117t-103 41q-41 0 -81 -28t-77.5 -72t-73.5 -101t-69 -119q-16 -29 -40.5 -83t-51.5 -108t-51.5 -94t-36.5 -40q-16 0 -29 20q-59 119 -81.5 249t-22.5 263q0 180 34.5 366.5t131.5 346.5 q18 29 41.5 62.5t52.5 61t61.5 46t69.5 18.5q53 0 73.5 -41t20.5 -102q0 -47 -8 -98.5t-19.5 -97.5t-22.5 -81.5t-17 -52.5q-25 -66 -66 -139.5t-86 -138.5q-72 -109 -139.5 -207.5t-157.5 -188.5q-10 -6 -20 -6q-29 0 -29 29z" />
<glyph unicode="i" horiz-adv-x="899" d="M211 297q0 12 10 22q39 41 73 81t64 75q23 23 45 14q10 -4 17.5 -17t7.5 -32q10 -252 109 -348q55 -53 135 -53q22 0 47 4q115 20 203 84q55 39 102 87t94 99q10 12 22.5 12.5t20.5 -7.5q11 -10 11 -25q0 -11 -9 -21q-53 -55 -103 -105t-106 -89q-47 -35 -100 -58.5 t-115 -33.5q-33 -5 -65 -5q-40 0 -80 8q-70 15 -123 79q-39 47 -65.5 122.5t-36.5 194.5l-109 -115q-12 -10 -24.5 -7t-18.5 12.5t-6 21.5zM358 741q0 20 14.5 33.5t37.5 13.5t37 -13t14 -34q0 -20 -14.5 -33.5t-36.5 -13.5q-23 0 -37.5 13.5t-14.5 33.5z" />
<glyph unicode="j" horiz-adv-x="659" d="M-115 -641q-1 11 -1 22q0 86 42 162q47 86 119 148q66 57 142.5 108t154.5 92q27 123 28 244v35q0 104 -5 215l-103 -115q-12 -10 -24.5 -7t-18.5 11.5t-6 20.5t10 22q43 41 76 83t63 77q16 20 37 14t25 -36q8 -139 10 -269v-19q0 -120 -22 -243q72 37 133 80t117 90 q61 53 114 108.5t103 112.5q12 12 24 12.5t19 -7.5q10 -12 10 -25q0 -10 -8 -21q-57 -66 -123 -130t-142 -124q-45 -35 -91 -66.5t-97 -57.5q-20 -10 -35.5 -20.5t-36.5 -20.5q-27 -104 -62.5 -200.5t-88.5 -182.5q-33 -53 -71 -102.5t-85 -92.5q-37 -35 -72 -45 q-17 -5 -33 -5q-17 0 -32 6q-29 11 -48.5 44t-21.5 82zM-56 -620v-10q0 -19 3 -36q4 -22 14 -32t29 -12q5 -1 9 -1q13 0 24 6q29 16 56 48t54 67q70 92 118 201.5t77 208.5q-53 -29 -98.5 -61.5t-98.5 -75.5q-47 -41 -95 -93.5t-73 -111.5q-8 -20 -13 -47t-6 -51zM340 762 q0 20 14.5 33.5t36.5 13.5q23 0 37 -13.5t14 -33.5t-14 -33.5t-37 -13.5t-37 13.5t-14 33.5z" />
<glyph unicode="k" horiz-adv-x="1357" d="M217 313q23 23 41 43.5t37 40.5q-3 54 -3 109v28q1 68 5 136q10 145 47 289.5t113 271.5q6 8 14 21.5t18.5 27.5t20.5 26.5t16 20.5q16 20 36 36.5t40 31.5q22 16 50 22q14 3 28 3t27 -3q43 -10 56 -60q10 -38 10 -86q0 -15 -1 -30q-4 -49 -14 -102.5t-22.5 -99.5 t-24 -82.5t-17.5 -51.5q-25 -66 -59.5 -130t-79.5 -130q-51 -78 -98 -142.5t-101 -125.5q10 -78 25.5 -149.5t42.5 -137.5q41 86 83 168t89 164q33 57 75 111.5t88 92.5t96 57q33 12 66 12q17 0 35 -3q45 -8 65.5 -32.5t24.5 -57.5l2 -20q0 -24 -8 -50q-10 -36 -26 -71 q-14 -29 -61.5 -79t-123.5 -99q35 -86 76 -138q27 -33 53.5 -54t55.5 -38q53 -29 99 -33q23 -2 42 -2t35 2q57 10 111.5 44t103.5 75q51 43 93 88t71 78q12 14 24.5 15.5t22.5 -5.5q11 -7 11 -21q0 -12 -13 -28q-74 -90 -133.5 -145t-128.5 -96q-39 -23 -80 -41.5t-86 -22.5 q-18 -1 -35 -1q-112 0 -199 56q-55 37 -96 88q-12 14 -28.5 40t-32 55.5t-27.5 59.5t-18 54q63 16 114 61.5t82 95.5t36 94q1 6 1 12q0 34 -25 49q-27 14 -55.5 11t-58 -19.5t-58 -42t-53.5 -56.5q-37 -47 -68.5 -100t-60.5 -107q-41 -76 -79 -152.5t-74 -156.5 q-12 -16 -28.5 -15t-27.5 19q-37 72 -59.5 151t-32.5 158l-41 -43q-23 -16 -40 0q-10 10 -10 22q0 9 5 19zM350 459q23 27 41.5 51.5t36.5 50.5q88 125 149.5 243t98.5 263q4 20 15 75.5t16 108.5q2 17 2 33q1 21 -3 39q-6 31 -22 37q-4 1 -8 1q-24 1 -50 -19 q-30 -22 -59 -60q-39 -47 -72 -107.5t-51 -105.5q-52 -135 -78 -293q-18 -113 -19 -228q0 -44 3 -89z" />
<glyph unicode="l" horiz-adv-x="1013" d="M207 289q0 8 10 23.5t25.5 31.5t31 31.5t25.5 27.5q-8 41 -11 85t-3 87q0 135 29.5 284t83 273.5t132 205.5t160.5 81q53 0 72.5 -46t19.5 -107q0 -111 -30.5 -221.5t-83 -216t-120 -204t-138.5 -184.5q-10 -14 -22.5 -26.5t-22.5 -26.5q39 -193 145 -275.5t250 -82.5 q72 0 137.5 24.5t123.5 65.5t109.5 91t98.5 103q12 12 26 13q27 0 27 -29q0 -16 -18.5 -41t-45 -52.5t-55 -53t-49.5 -41.5q-82 -66 -174 -104t-190 -38q-70 0 -134.5 20.5t-120 63.5t-101.5 111.5t-79 167.5q-14 -16 -28.5 -32t-30.5 -32q-10 -8 -23 -8q-10 0 -18 9t-8 22z M346 604q0 -35 2 -67.5t6 -67.5q117 137 204 285.5t132 312.5q10 33 21.5 87t11.5 106q0 33 -8 66.5t-37 33.5t-84 -49t-110.5 -145.5t-96.5 -238t-41 -323.5z" />
<glyph unicode="m" horiz-adv-x="2340" d="M213 295q0 10 8 20q27 29 62.5 70t70.5 76q23 23 45.5 37t38.5 16q10 2 19.5 -4t13.5 -12q8 -8 8 -66q0 -33 -4 -70.5t-8 -76.5q-4 -43 -8 -78t-6 -49q35 74 67.5 140.5t77.5 133.5q43 66 75 107t68 75q41 37 85 59.5t92 24.5h7q55 0 98 -32q46 -34 81 -84 q47 -68 77.5 -150t53.5 -143q8 -25 19.5 -53.5t26.5 -55t34.5 -46t42.5 -28.5q18 -6 36.5 -1.5t37 14.5t34 23.5t27.5 23.5q33 29 62.5 65.5t62.5 71.5t69.5 62.5t84.5 37.5q20 4 40 4q27 0 51 -8q42 -14 76 -45q49 -41 89 -96t75 -96q43 -48 93 -70q20 -8 42 -9q34 0 74 21 q25 12 56.5 36t65.5 52.5t65.5 59.5t56.5 59q12 12 24.5 11.5t20.5 -8t9 -19.5v-2q0 -11 -9 -23q-55 -63 -128 -124.5t-132 -96.5q-39 -23 -72 -28t-61 2q-37 6 -70 29.5t-62.5 54t-57 65.5t-56.5 68q-16 20 -35.5 40.5t-42 36t-47.5 23.5t-53 4q-29 -4 -56.5 -24.5t-55 -48 t-56.5 -61.5t-60 -65q-41 -45 -83.5 -75.5t-90.5 -30.5q-39 0 -71 22q-47 31 -79 89.5t-56 123.5q-23 57 -42.5 116t-44 109t-56.5 87t-79 49q-19 4 -37 4q-27 1 -51 -9q-39 -16 -80 -57q-66 -70 -136 -176t-124 -217q-29 -59 -50 -115.5t-36 -107.5q-4 -15 -14 -21 q-9 -6 -18 -5h-4q-12 1 -18.5 9.5t-6.5 20.5q2 33 5 73t8 83t9.5 87t8.5 83q6 59 8 102t-2 47t-17.5 -9t-31.5 -36q-23 -25 -47.5 -55t-47.5 -53q-12 -14 -25.5 -15.5t-22.5 4.5q-11 8 -11 23z" />
<glyph unicode="n" horiz-adv-x="1558" d="M211 295q0 10 8 20q84 92 132 143.5t89 55.5q31 -4 34 -26q2 -13 2 -33q0 -14 -1 -31q-12 -131 -15 -174t-9 -92q59 123 116.5 222t113.5 168.5t114.5 108.5t119.5 41q57 0 101.5 -22.5t81.5 -70.5t70.5 -123.5t74.5 -184.5q27 -78 54.5 -122t52 -65.5t47 -27.5t41.5 -6 q31 0 71.5 18.5t85.5 51t92.5 75.5t88.5 90q10 10 24 11q29 0 29 -29q0 -14 -8 -23q-45 -51 -95.5 -97t-100.5 -82t-99 -56.5t-94 -20.5q-57 0 -107.5 36t-97.5 116q-37 63 -67 145t-62.5 155t-75.5 123t-109 50q-51 0 -109.5 -51t-115.5 -130t-109.5 -174.5t-89.5 -183.5 q-10 -25 -19 -54.5t-18.5 -54t-19.5 -42t-24 -17.5q-12 0 -21.5 7.5t-9.5 21.5q6 109 12 173.5t9 102t7.5 73.5t10.5 108q0 18 -4 18q-6 0 -21.5 -16.5t-36 -40t-43.5 -50t-41 -46.5q-16 -16 -30 -17q-29 0 -29 29z" />
<glyph unicode="o" horiz-adv-x="1236" d="M219 279q0 80 33 148.5t88 127.5q12 12 24.5 12t19.5 -8t9 -20.5t-8 -24.5q-47 -49 -75.5 -106.5t-28.5 -128.5q0 -80 34.5 -143.5t90.5 -104.5q52 -39 114 -57q47 -13 93 -12q16 0 32 1q53 4 102.5 26.5t92.5 63.5q14 14 26.5 29.5t22.5 32.5q-53 16 -106.5 42.5 t-112.5 71.5q-35 27 -70 70t-57 94q-17 41 -25 84q-3 18 -4 36q0 24 6 46q10 45 34 72.5t54 38.5q27 10 57 10q33 0 70 -12q59 -18 107 -60q80 -68 116 -155q36 -82 35 -166q0 -37 -6 -74q-4 -16 -7 -29.5t-7 -27.5q8 -2 15 -3t18 -1q37 -4 75 -4h25q51 2 104 14 q59 14 128 55t122 100q8 10 20.5 8.5t19.5 -10t7 -21.5t-14 -28q-88 -100 -215 -147q-60 -23 -124 -31q-32 -4 -65 -4t-67 4q-18 2 -36.5 4t-37.5 6q-27 -47 -65.5 -87t-91.5 -68q-47 -25 -97 -35q-36 -7 -72 -7q-14 0 -28 1q-106 6 -191 57q-80 49 -132 131t-52 189z M583 484q7 -44 29 -85q25 -47 61 -85.5t75 -63.5q41 -27 81.5 -47.5t85.5 -32.5q4 12 7.5 25.5t7.5 27.5q3 24 3 49q-1 48 -13 96q-20 74 -66 136q-20 29 -53 56.5t-68 45.5q-37 20 -72 20q-6 0 -12 -1q-41 -4 -63 -56q-6 -24 -6 -49q0 -18 3 -36z" />
<glyph unicode="p" horiz-adv-x="1560" d="M211 295q0 10 8 20q20 23 50 57t59.5 64.5t58.5 53t51 24.5q10 2 19.5 -4t13.5 -12q8 -10 7 -53.5t-6 -95.5t-11 -99t-6 -66q35 74 66.5 127.5t76.5 120.5q43 66 75 107t68 75q41 37 85 59.5t92 24.5h10q122 0 205 -139q27 -43 55.5 -113.5t56.5 -148.5q31 -86 63.5 -131 t55.5 -64q33 -26 72 -26h9q44 4 89 28q25 12 56.5 36t65.5 52.5t65.5 59.5t56.5 59q12 12 24.5 11.5t20.5 -8t9 -19.5v-2q0 -11 -9 -23q-55 -63 -127 -126.5t-133 -94.5q-70 -34 -131 -34q-12 0 -23 1q-47 6 -92 41t-88 109q-35 59 -62.5 143t-64.5 162q-37 80 -69 117 t-79 47q-19 4 -37 4q-27 0 -51 -9q-39 -16 -80 -57q-33 -35 -68.5 -81t-71.5 -99t-69.5 -111.5t-62.5 -115.5q-23 -43 -42 -85t-34 -81q-8 -23 -20 -73t-25.5 -113.5t-27 -132t-25.5 -126t-20.5 -97.5t-10.5 -44q-6 -14 -17 -18q-7 -3 -14 -3q-4 0 -8 1q-10 2 -17 11t-3 22 q2 4 9 44t19.5 100t26.5 133t27.5 144.5t25 134t17.5 101.5q8 66 17 127t15.5 110.5t9.5 80t-1 34.5q-4 2 -20.5 -13t-38 -39t-45.5 -52.5t-42 -48.5q-12 -14 -25.5 -15.5t-22.5 4.5q-11 9 -11 23z" />
<glyph unicode="q" horiz-adv-x="1085" d="M186 140q2 48 15 93q29 100 86 192.5t141 152.5q110 79 210 79h3q82 0 146.5 -51t101.5 -155q4 -16 -3 -25.5t-18.5 -12.5t-22.5 2t-16 19q-10 27 -20 50.5t-29 45.5q-25 33 -57.5 47.5t-67.5 16.5h-14q-56 0 -113 -28q-63 -31 -106 -72q-47 -47 -84 -103.5t-62 -118.5 q-12 -31 -21 -68.5t-9 -74.5t10 -68.5t37 -50.5q23 -14 58.5 -14t70.5 8q53 14 108.5 48t102.5 77q49 45 90 93t65 89q10 10 27 13q25 0 39 -27q2 -23 3 -52.5t0 -60t-4 -60.5l-5 -50q-2 -31 -11.5 -86.5t-21.5 -122t-26.5 -138t-26.5 -137.5q96 182 215 342 q147 203 328 383q12 12 24 12.5t19 -7.5q10 -12 10 -25q0 -10 -8 -21q-186 -186 -334 -391q-86 -121 -160 -250t-135 -268q-12 -15 -27 -15q-5 0 -10 1q-20 6 -20 31v2q16 104 35.5 204.5t39.5 204.5q20 106 37 211t23 213q-39 -53 -91.5 -110.5t-107.5 -92.5 q-59 -35 -128 -64q-49 -20 -99 -20q-21 0 -43 4q-55 8 -87 40t-45 75q-12 37 -12 79v12z" />
<glyph unicode="r" horiz-adv-x="962" d="M206 287q0 11 7 20q33 35 73 77t83 80t84 64.5t77 31.5q6 1 12 1q28 -1 48 -19q26 -22 37 -83q8 -48 8 -102q0 -23 -1 -47q-5 -81 -17.5 -164t-31 -163.5t-32.5 -148.5q-5 -14 -15 -19q-8 -4 -15 -4q-3 0 -6 1q-11 2 -19.5 11t-3.5 23q20 92 36.5 173t28.5 165 q6 56 10 98q3 33 3 72v19q-1 49 -11 85t-41 34q-25 -4 -58.5 -30t-70.5 -59.5t-70.5 -69.5t-58.5 -61q-16 -16 -28.5 -16t-19.5 8q-8 9 -8 23zM631 637q0 16 8 25q7 10 19 11h3q10 1 19 -7q10 -8 12 -23q6 -39 14.5 -77t22.5 -77q25 -66 57.5 -114.5t83.5 -100.5 q57 -51 123 -57q29 -2 57.5 4t57.5 25q33 23 76 71q10 12 22.5 11.5t20.5 -8.5q7 -8 7 -20q0 -16 -15 -34q-27 -29 -48.5 -47t-42.5 -29q-52 -29 -108 -29q-11 0 -23 1q-92 8 -174 82q-47 43 -85 99t-64 118q-37 86 -43 176z" />
<glyph unicode="s" horiz-adv-x="876" d="M203 299q35 35 73.5 78t79.5 90q55 63 104.5 116.5t74.5 69.5q14 11 30 11q5 0 9 -1q22 -4 44 -20q39 -27 74 -70q29 -35 52.5 -70.5t33.5 -53.5q31 -51 53.5 -104.5t32.5 -108.5q11 -54 11 -107q0 -23 -2 -45q-7 -74 -46 -137q-41 -72 -122 -119q-65 -35 -137 -39h-18 q-62 0 -118 25q-35 16 -64.5 40.5t-52.5 59.5q-8 14 -5 26.5t12.5 18.5t21.5 4t23 -14q25 -33 54.5 -53.5t61.5 -30.5q38 -13 76 -13q41 0 84 15q68 23 115 83t51 146v12q0 88 -27 177q-23 70 -59 135q-37 66 -79 110.5t-77 69.5q-27 -20 -46 -40.5t-44 -49.5 q-55 -63 -111.5 -128t-117.5 -124q-22 -16 -40 0q-10 9 -11 21q0 9 6 20z" />
<glyph unicode="t" horiz-adv-x="655" d="M95 628q-1 4 -1 10t2 12q4 12 19 18q63 23 125 47q14 68 28 133q23 100 47.5 193t44.5 171q4 14 14 18q7 3 16 4q2 0 6 -1q12 -2 19 -11.5t5 -21.5q-20 -78 -44 -168t-46 -188q-10 -51 -21 -103l84 33q137 53 279 107q29 4 36 -18.5t-16 -39.5l-278 -106 q-59 -23 -119 -47q0 -10 -2 -23q-16 -98 -21 -192q-2 -33 -2 -65q0 -30 2 -60q4 -60 19 -113q23 -86 69 -125t101 -41q4 0 8 -1q43 0 90 20q51 20 103 53q61 41 115 92t91 94q20 23 43 9q14 -9 14 -23q0 -9 -7 -21q-43 -53 -97.5 -104t-115.5 -92q-57 -39 -123 -66 q-62 -24 -119 -24q-23 0 -45 4q-61 10 -106.5 52t-67.5 110q-34 110 -34 246q0 21 1 42q2 98 18 201v2l-94 -35q-16 -4 -26.5 2t-13.5 16z" />
<glyph unicode="u" horiz-adv-x="1540" d="M217 309q41 47 80 92t82 88q16 16 34.5 9.5t20.5 -31.5q0 -74 9.5 -142.5t35.5 -131.5q16 -41 40 -79t65 -69q35 -27 74.5 -36t72.5 -9q53 0 94 30.5t72 71.5q41 55 65.5 126t38.5 132q4 29 9.5 66t11.5 66q2 14 12 19q6 3 13 3q3 0 7 -1q10 -3 18.5 -11t8.5 -23 q0 -41 5.5 -89t17.5 -97t31.5 -95t48.5 -83t67.5 -61.5t87.5 -28.5q9 -1 18 -1q29 0 58 10q39 13 78 36q37 23 71.5 51.5t67.5 58.5q37 37 70 72t55 63q12 12 23.5 12.5t19.5 -7.5q9 -10 9 -23q0 -11 -9 -23q-45 -53 -99 -109t-114 -104q-59 -45 -121 -73q-55 -24 -112 -24 q-8 0 -17 1q-53 4 -110.5 33t-89.5 74q-31 41 -48.5 79.5t-27.5 73.5q-4 12 -8 25.5t-9 28.5q-16 -68 -44.5 -132.5t-77.5 -113.5q-46 -47 -106 -69q-50 -18 -103 -18q-10 0 -19 1q-59 4 -112.5 29.5t-94.5 72.5q-45 55 -71 129q-20 53 -28.5 108.5t-12.5 108.5 q-29 -31 -56.5 -62.5t-56.5 -64.5q-23 -16 -40 0q-10 10 -10 22q0 9 5 19z" />
<glyph unicode="v" horiz-adv-x="1421" d="M211 309q12 14 35.5 42t49.5 56.5t49.5 53t35.5 33.5q18 10 32.5 -6.5t16.5 -28.5q10 -31 20.5 -61.5t20.5 -61.5q25 -66 66 -137.5t94 -135.5q57 -70 122.5 -117.5t131.5 -51.5q12 -2 53 26.5t84 91.5q33 45 55 101q-53 16 -109.5 58t-103.5 99q-52 62 -76 142 q-19 63 -19 113q0 13 1 24q8 66 39 103.5t76 41.5q6 1 13 1q37 1 78 -19q48 -22 83 -55q72 -68 102 -160q23 -69 23 -142v-12q-2 -80 -27 -151q57 -10 115 -10h4q57 0 119 16q59 14 127.5 55t122.5 100q8 10 20 8.5t19.5 -10t7.5 -21.5t-15 -28q-47 -53 -106.5 -92 t-124.5 -61q-56 -17 -116 -25q-29 -4 -59 -4q-32 0 -65 4q-18 2 -35.5 4t-33.5 6q-10 -23 -20.5 -44t-20.5 -44q-14 -27 -39 -57.5t-53.5 -58t-57 -47t-49.5 -21.5h-8q-14 0 -35 5q-27 7 -58.5 21.5t-63.5 34t-56 41.5q-90 78 -156 172q-63 94 -106 207q-8 18 -19.5 51 t-15.5 50q-29 -29 -60.5 -67t-62.5 -73q-23 -16 -40 0q-10 10 -10 22q0 9 5 19zM842 467q10 -47 36.5 -98.5t67.5 -94.5q31 -35 69 -62.5t83 -41.5q14 52 21 108q3 23 3 46q0 33 -6 65q-10 66 -49 127q-43 66 -98 94q-30 15 -57 15q-2 -1 -4 -1q-28 -2 -50 -26 q-22 -35 -22 -81q0 -23 6 -50z" />
<glyph unicode="w" horiz-adv-x="2129" d="M213 307q25 25 51.5 53.5t52.5 51.5q31 29 66 59.5t82 50.5q8 3 16 3q19 0 39 -17q25 -23 42.5 -60.5t27.5 -58.5q16 -29 39.5 -82t52.5 -112q20 -41 43 -80t46.5 -69t48 -47t46.5 -17q27 0 49.5 14t40 38.5t30.5 56.5t24 67q12 39 22 76.5t19.5 68.5t20.5 52.5t28 25.5 l10 2l10 -2q14 -4 25.5 -16.5t21 -29t17.5 -33.5t16 -32q16 -29 39 -70.5t51 -82.5q31 -45 67 -79t77 -40q29 0 56.5 41t51.5 98q25 59 47.5 123t40.5 109q6 16 15.5 34.5t21.5 34.5q23 29 45 37q9 2 19 2q32 0 71 -24q35 -23 63.5 -53.5t45.5 -49.5q59 -66 135 -104 q63 -35 120 -35h11q68 4 98.5 30.5t67.5 65.5q12 12 23.5 12t19.5 -8q9 -9 9 -22q0 -11 -9 -23q-18 -20 -41 -41.5t-49 -38.5q-53 -31 -113 -34h-15q-64 0 -128 30q-29 14 -57.5 32.5t-57.5 45.5q-25 16 -56.5 49t-60.5 62q-25 23 -44 36t-31 7q-29 -16 -44.5 -56.5 t-25.5 -66.5q-8 -20 -18.5 -51t-23.5 -67t-28.5 -73t-36.5 -69q-23 -37 -51 -63.5t-63 -30.5q-7 -1 -13 -1q-32 0 -71 23q-16 10 -34.5 27.5t-31.5 29.5q-23 25 -41 51.5t-37 55.5q-27 45 -54 94t-50 90q-8 -41 -22.5 -97t-30.5 -106q-10 -25 -28.5 -59.5t-35.5 -56.5 q-29 -35 -62.5 -51.5t-58.5 -16.5h-5q-45 0 -85 37q-43 39 -84 98q-29 41 -53 86t-44.5 88t-37 78t-28.5 58q-10 16 -25.5 44.5t-32.5 51.5q-23 -6 -45 -24.5t-55 -49.5q-35 -33 -67 -67t-52 -54q-23 -16 -40 0q-10 10 -10 22q0 9 5 19z" />
<glyph unicode="x" horiz-adv-x="1044" d="M210 293q0 11 9 20q8 8 24.5 25.5t53.5 58.5q41 47 69 78q25 27 50 27h6q20 -6 31 -35q10 -23 21 -54.5t22 -54.5q20 -55 39.5 -92t48.5 -90q29 -49 62.5 -97t74.5 -89q63 25 129 55q117 53 227.5 119.5t188.5 152.5q12 12 24.5 10.5t19.5 -11t7 -22.5t-12 -24 q-74 -78 -196 -154.5t-259 -140.5q-20 -10 -39.5 -18t-40.5 -16q66 -61 137.5 -111.5t145.5 -91.5q14 -8 16 -20.5t-3 -21.5q-4 -8 -16 -14q-5 -2 -11 -3q-7 0 -15 4q-82 45 -162 104t-151 129q-80 -33 -155 -57.5t-140 -40.5q-16 -6 -28.5 0t-16.5 16t-1 20.5t15 16.5 q53 18 124 42t153 54q-29 31 -55.5 65t-49.5 68q-70 115 -119 242q-10 20 -16 43t-16 45q-20 -23 -36 -39t-30 -33q-14 -16 -35.5 -38.5t-46.5 -51.5q-10 -10 -20.5 -8t-18.5 10q-9 10 -9 23z" />
<glyph unicode="y" horiz-adv-x="1396" d="M213 297q0 12 10 22q43 41 79 84t67 78q12 16 26 16q6 0 13 -3q20 -11 22 -54q10 -233 92 -331q60 -70 154 -70q21 0 45 4q68 12 122 37.5t98 60.5t80 75t64 81q16 25 44 21.5t32 -31.5q7 -53 7 -105q0 -39 -4 -78q-9 -92 -27 -182q70 33 128 71t107 79 q76 61 134.5 124.5t109.5 116.5q12 12 24.5 12.5t19.5 -7.5q9 -10 9 -23q0 -10 -8 -21q-55 -63 -120.5 -126.5t-139.5 -122.5q-92 -74 -197 -129q-23 -10 -43 -21.5t-41 -21.5q-2 -10 -4 -21.5t-4 -21.5q-27 -111 -66.5 -211.5t-105.5 -192.5q-25 -35 -52.5 -66.5 t-62.5 -62.5q-41 -41 -82 -48q-11 -2 -22 -2q-27 0 -47 13q-49 33 -56 119q-1 12 -1 23q0 87 40 165q23 43 53.5 78t67.5 66q66 57 140.5 106t150.5 90q18 86 27.5 168t9.5 158l-12 -12q-12 -12 -23.5 -25.5t-28.5 -25.5q-66 -63 -135 -105.5t-166 -58.5q-35 -6 -68 -6 q-36 0 -71 7q-67 13 -121 72q-41 47 -70.5 126t-39.5 204l-109 -119q-12 -10 -24.5 -7t-18.5 12.5t-6 21.5zM672 -635q12 -77 49 -77q14 0 31 10q29 20 56.5 44.5t49.5 53.5q72 86 118 192.5t77 225.5q-49 -29 -94.5 -59.5t-94.5 -71.5q-57 -47 -104 -90.5t-70 -102.5 q-10 -27 -16 -60q-4 -19 -4 -39q0 -13 2 -26z" />
<glyph unicode="z" horiz-adv-x="899" d="M197 291q63 63 104 106t94 88q29 25 59.5 45.5t65.5 36.5q47 23 91 26q7 0 14 1q36 0 65 -14q42 -20 64 -68q12 -27 13 -61q0 -26 -7 -56q-20 -78 -70.5 -143.5t-101.5 -128.5q16 0 31.5 1t31.5 3q51 4 98.5 10t88.5 17q33 8 66.5 19t68.5 30q37 20 74.5 49t76.5 70 q12 10 23.5 9t17.5 -9q8 -11 8 -25q0 -11 -10 -23q-74 -78 -168 -122q-72 -37 -149 -56q-47 -10 -104.5 -18t-116.5 -12q-23 -2 -43.5 -3.5t-40.5 -1.5q-6 -6 -11 -14q-23 -35 -40 -72.5t-17 -78.5q0 -18 9.5 -26.5t19.5 -12.5q18 -6 42.5 -2t47.5 10q63 20 122.5 53 t112.5 68q14 6 26.5 2t18 -13.5t3 -21.5t-16.5 -21q-37 -25 -78 -47t-82 -43q-23 -10 -47 -20t-47 -17q-41 -11 -77 -11q-16 0 -30 2q-48 7 -71 42q-16 22 -16 56q0 29 12 67q8 29 19.5 53.5t25.5 46.5q-23 2 -43.5 3.5t-40.5 5.5q-14 4 -19.5 14t-4.5 20.5t9.5 18.5t22.5 8 q27 -4 56.5 -6t60.5 -2q29 39 60.5 76t60.5 75q23 31 42 65t29 69q7 25 7 44q0 14 -4 26q-9 28 -31 40t-49 12q-32 0 -72 -16q-47 -18 -84 -46t-72 -62q-37 -35 -73.5 -75t-79.5 -81q-22 -16 -40 0q-10 9 -11 21q0 9 6 20z" />
<glyph unicode="{" horiz-adv-x="1069" d="M380 540.5q3 16.5 21 24.5q59 25 84 75t33 112q8 59 7 119.5t-1 120t5.5 117.5t27.5 116q25 68 67 106.5t91 50.5q63 16 132 -10t124 -92q10 -12 9 -24.5t-9 -19.5t-20.5 -8t-24.5 9q-39 47 -85 71.5t-91 20.5q-41 -4 -77 -34.5t-59 -90.5q-29 -74 -27.5 -169t0.5 -190 t-22.5 -178t-93.5 -132h2q45 -45 65.5 -102.5t24.5 -119t-4 -124t-20 -119.5q-16 -68 -37 -130.5t-19 -134.5q2 -129 58 -176q41 -37 102.5 -23.5t132.5 79.5q27 12 41 -6.5t-2 -40.5q-27 -23 -55.5 -43.5t-63.5 -34.5q-14 -4 -37.5 -10.5t-40.5 -8.5q-41 -4 -69.5 7.5 t-50.5 31.5q-33 31 -49.5 76t-22.5 96t-3 100.5t13 88.5q8 37 20.5 71.5t22.5 69.5q10 41 15.5 85t7.5 87q2 66 -10.5 124t-59.5 109q-10 6 -19.5 12.5t-19.5 10.5q-16 14 -13 30.5z" />
<glyph unicode="|" horiz-adv-x="1077" d="M522 -299q14 451 26.5 898t26.5 900q2 14 11.5 22.5t20.5 7.5t20.5 -9.5t9.5 -24.5q-14 -453 -26.5 -899t-26.5 -899q-10 -27 -34 -26t-28 30z" />
<glyph unicode="}" horiz-adv-x="1069" d="M204 -313.5q1 12.5 9 19.5t20.5 8t24.5 -9q39 -47 85 -71.5t91 -20.5q41 4 77 34.5t58 90.5q29 74 28 169t0 190.5t22.5 178t93.5 132.5h-2q-45 45 -65.5 101t-25 117.5t4 125t20.5 120.5q16 68 36.5 130.5t18.5 134.5q-2 129 -57 176q-41 37 -102.5 23.5t-132.5 -79.5 q-27 -12 -41.5 6.5t2.5 41.5q27 23 55.5 43t62.5 34q14 4 38 10.5t40 8.5q41 4 70 -7.5t51 -31.5q33 -31 49.5 -76t22.5 -96t2 -100.5t-12 -88.5q-8 -37 -20.5 -71.5t-22.5 -69.5q-10 -41 -15.5 -85t-7.5 -87q-2 -66 10.5 -124t59.5 -109q10 -6 19 -12.5t20 -10.5 q16 -14 13 -30.5t-22 -24.5q-59 -25 -83.5 -75t-32.5 -112q-8 -59 -7.5 -119.5t0.5 -120t-6 -117.5t-26 -116q-25 -68 -67 -106.5t-91 -50.5q-63 -16 -132 10t-124 92q-10 12 -9 24.5z" />
<glyph unicode="&#xa1;" horiz-adv-x="671" d="M301 -612q12 248 24.5 495.5t24.5 495.5q10 27 34 25.5t28 -29.5q-12 -248 -25 -494.5t-25 -496.5q-2 -16 -12 -23.5t-20.5 -6.5t-19.5 9t-9 25zM338 627q0 20 14.5 33.5t36.5 13.5q23 0 37 -13.5t14 -33.5t-14 -33.5t-37 -13.5t-37 13t-14 34z" />
<glyph unicode="&#xa2;" horiz-adv-x="1112" d="M215 281.5q2 54.5 23 105.5q39 102 121.5 179t187.5 106q29 8 63 12q10 47 18.5 96t18.5 97q12 27 35 21.5t25 -34.5q-10 -47 -17.5 -91t-17.5 -89q70 -8 114.5 -53t44.5 -131q0 -16 -9 -23.5t-21.5 -6.5t-21.5 9t-9 25q0 57 -30.5 85.5t-77.5 33.5q-31 -164 -61 -326 t-58 -324q70 -12 140.5 -9t133.5 13q82 16 153.5 51t134 80.5t118 98.5t108.5 106q12 12 24.5 12.5t20.5 -7t9 -20.5t-9 -26q-55 -55 -115.5 -110.5t-128 -103.5t-144.5 -83.5t-165 -52.5q-66 -12 -141.5 -14t-149.5 10q-6 -29 -12 -59.5t-10 -59.5q-4 -16 -15.5 -21 t-21.5 -3t-17 11t-5 26q4 31 10 60.5t10 57.5q-90 27 -157.5 83.5t-90.5 160.5q-10 53 -8 107.5zM276.5 273.5q-2.5 -48.5 8.5 -93.5q20 -82 72 -128t124 -66q29 160 59.5 317.5t59.5 317.5l-37 -7q-92 -27 -162.5 -93t-105.5 -154q-16 -45 -18.5 -93.5z" />
<glyph unicode="&#xa3;" horiz-adv-x="1249" d="M82 33q0 35 20.5 59.5t50 41t64.5 24.5t64 8t59 -6q12 47 18.5 91t12.5 77q10 59 10 131.5t-2 156.5h-199q-16 0 -24.5 9.5t-8.5 19.5t8.5 20.5t24.5 12.5h197q-4 72 -5 142.5t1 140.5q4 100 18.5 190t50.5 156q31 57 82 85.5t111 32.5q96 6 192 -36q72 -31 134 -103 q10 -16 2 -33q-4 -12 -15.5 -17t-23.5 1q-4 2 -13 10q-25 29 -56.5 49.5t-66.5 36.5q-41 16 -79.5 25.5t-73.5 5.5q-84 -10 -131 -94q-31 -55 -46.5 -131t-19.5 -164q-4 -72 -4 -146.5t2 -148.5q129 2 259 4t235 6q29 -6 30 -28.5t-26 -32.5q-104 -4 -234.5 -6t-259.5 -5 q2 -86 1 -163.5t-11 -139.5q-6 -35 -13 -77.5t-18 -90.5q27 -8 52.5 -17t50.5 -21q100 -51 201.5 -83t203.5 -32q154 0 292 86t267 233q10 10 25 11q29 0 29 -29q0 -12 -9 -23q-61 -72 -131.5 -134t-148.5 -108t-164 -73t-180 -27q-76 0 -147.5 19.5t-139.5 44.5 q-47 16 -103.5 45t-115.5 49q-25 -66 -68 -112t-114 -46q-47 0 -82 31t-35 72zM147 25q6 -14 10 -23.5t33 -9.5q49 0 81 32.5t51 79.5q-10 2 -22.5 3.5t-23.5 1.5q-18 0 -39.5 -4.5t-40 -14.5t-32.5 -25.5t-17 -39.5z" />
<glyph unicode="&#xa4;" horiz-adv-x="1241" d="M257.5 865.5q16.5 21.5 45.5 4.5q33 -23 63.5 -44t63.5 -44q55 55 133 82q70 23 140.5 14.5t130.5 -42.5q23 -14 45 -31t41 -39l180 147q27 12 41 -6t-2 -41l-183 -147q23 -39 36.5 -84t8.5 -92q-6 -78 -35.5 -138.5t-76.5 -105.5q41 -31 82 -63.5t82 -65.5 q16 -23 2.5 -41t-39.5 -8q-45 35 -88 69.5t-88 69.5h-2q-10 -6 -20.5 -11t-20.5 -9q-78 -35 -165 -30t-161 60q-29 -31 -55.5 -62.5t-55.5 -62.5q-23 -16 -40 0.5t-5 40.5q27 31 54.5 62t56.5 63q-16 16 -29 35q-33 45 -46 96.5t-17 104.5q4 106 55 186q-31 23 -61.5 44.5 t-61.5 43.5q-25 23 -8.5 44.5zM395 543q6 -61 30 -118.5t83 -100.5q53 -41 112.5 -49.5t114.5 8.5q86 25 145.5 95.5t59.5 168.5q0 86 -46 150.5t-116 97.5q-63 29 -135 24.5t-137 -51.5q-57 -41 -81 -99t-30 -126z" />
<glyph unicode="&#xa5;" horiz-adv-x="1077" d="M121 1278q2 16 11 22.5t20 6.5q10 0 19 -8.5t11 -24.5q-6 -61 0 -129t24.5 -132.5t50.5 -124t77 -104.5q55 -57 131 -84.5t174 -9.5q12 2 23.5 5t21.5 7q23 78 45.5 139.5t56.5 133.5q8 18 21.5 46t30 58.5t37 62.5t43.5 56q31 35 65.5 51.5t69.5 1.5q14 -8 18 -22 q10 -29 8 -60.5t-11 -64.5t-22.5 -63.5t-23.5 -55.5q-29 -72 -70 -136.5t-94 -113.5q-29 -25 -59.5 -45t-65.5 -35q-27 -88 -49 -188q68 2 136.5 4t140.5 6q29 -6 29.5 -28.5t-25.5 -32.5q-76 -4 -150 -6t-145 -4q-6 -27 -12.5 -52.5t-10.5 -52.5q76 2 153 4t156 6 q29 -6 30 -28.5t-25 -32.5q-86 -4 -166 -6t-162 -6q-10 -57 -21.5 -113.5t-23.5 -112.5q-4 -16 -15.5 -21t-21.5 -3t-17.5 11t-5.5 26q10 53 21.5 106t23.5 107q-59 -2 -119.5 -3.5t-121.5 -1.5q-16 0 -24.5 9.5t-8.5 19.5t8 20.5t25 12.5q66 0 128 1t126 3q4 12 6 23.5 t6 23.5q4 16 6 29.5t6 27.5q-68 -2 -135 -3t-139 -1q-16 0 -24.5 9.5t-8.5 19.5t8 20.5t25 12.5q74 0 145.5 1t143.5 3q6 29 12 56.5t16 58.5q6 35 13 53q-4 0 -7.5 -1t-7.5 -1q-109 -20 -194.5 8.5t-151.5 89.5q-53 49 -91 113.5t-60.5 137.5t-30.5 149.5t-2 148.5z M758 737q41 27 80 66q41 43 73.5 95t55.5 110q6 16 16 40.5t21 51.5q14 37 19 65.5t-9 28.5q-20 0 -43 -24.5t-47 -63.5q-35 -53 -65 -117.5t-48 -107.5q-16 -35 -28.5 -71t-24.5 -73z" />
<glyph unicode="&#xa8;" horiz-adv-x="899" d="M358 905q0 20 14.5 33.5t37.5 13.5t37 -13t14 -34q0 -20 -14.5 -33.5t-36.5 -13.5q-23 0 -37.5 13.5t-14.5 33.5zM604 905q0 20 14.5 33.5t36.5 13.5q23 0 37.5 -13t14.5 -34q0 -20 -14.5 -33.5t-37.5 -13.5t-37 13.5t-14 33.5z" />
<glyph unicode="&#xad;" horiz-adv-x="1404" d="M430 465q0 10 8 20.5t25 12.5q80 0 177 1t197.5 3t198 3t176.5 5q29 -6 30 -28.5t-25 -32.5q-80 -4 -178.5 -5.5t-199 -3.5t-198.5 -3t-178 -1q-16 0 -24.5 9.5t-8.5 19.5z" />
<glyph unicode="&#xb4;" horiz-adv-x="1142" d="M498.5 754.5q-11.5 21.5 7.5 40.5q53 37 94 64.5t79 54t78 54t93 62.5q14 6 26.5 2t17.5 -13t3 -21.5t-16 -20.5q-53 -35 -93 -62.5t-78 -54t-79 -54.5t-94 -65q-27 -8 -38.5 13.5z" />
<glyph unicode="&#xb8;" horiz-adv-x="1705" d="M388 -482.5q3 11.5 13.5 17.5t26.5 2q49 -14 98 -21.5t103 1.5q23 2 48 7t50 14t46.5 23.5t35.5 35.5q37 49 27 112q-6 45 -33 65.5t-62.5 23.5t-74.5 -5t-70 -22q-37 -10 -43 28q0 41 19.5 99.5t35.5 93.5q6 14 18.5 18t21.5 0t15.5 -15t0.5 -26q-10 -23 -21.5 -58.5 t-17.5 -62.5q49 14 98 12.5t89 -21t64.5 -59.5t22.5 -99q-2 -33 -12 -67t-33 -58q-41 -45 -95 -69t-113.5 -31t-120 -1t-115.5 23q-16 6 -20.5 17t-1.5 22.5z" />
<glyph unicode="&#xbf;" horiz-adv-x="978" d="M62 -351.5q-7 66.5 20 138.5q16 45 54 95t73 85q41 41 89 83t93 89q47 47 77 103.5t26 124.5q0 16 8 25t19 10t20.5 -6t13.5 -23q4 -78 -22.5 -136.5t-73.5 -111.5q-35 -41 -78 -79t-84 -77q-47 -43 -86 -89t-61 -101q-20 -47 -22.5 -103.5t17.5 -124.5q16 -51 41 -90 t60 -69q45 -39 99 -63.5t114 -33.5q55 -6 109.5 2.5t107.5 26.5t97 49t77 74q61 79 61 188q10 27 34 26t28 -30q0 -59 -18.5 -112.5t-51.5 -98.5q-37 -49 -87 -85.5t-109 -61.5q-88 -35 -184.5 -38t-182.5 30q-47 18 -88 48t-76 66q-25 27 -46 59t-34 66q-27 78 -34 144.5z M453 600q0 20 14 33.5t37 13.5t37 -13.5t14 -33.5t-14.5 -33.5t-36.5 -13.5q-23 0 -37 13.5t-14 33.5z" />
<glyph unicode="&#xc0;" horiz-adv-x="1544" d="M197 16.5q-4 12.5 4 26.5q78 119 157.5 235.5t157.5 235.5q-76 -2 -146.5 -2h-131.5q-16 0 -24.5 9t-8.5 19.5t8 20.5t25 12q70 0 151.5 1t169.5 1l485 725q4 10 13.5 15.5t17.5 5.5q16 0 22.5 -13.5t4.5 -29.5q-6 -125 -8 -256t7 -260t32.5 -255t70.5 -243 q76 -195 191 -215q41 -8 87 13.5t91 56.5q59 47 109.5 104.5t80.5 89.5q12 12 23.5 11.5t18.5 -9t8.5 -20.5t-11.5 -25q-14 -16 -36.5 -42.5t-50 -57.5t-59.5 -61.5t-69 -55.5q-66 -47 -138.5 -63.5t-137.5 24.5q-63 39 -100 98.5t-64 129.5q-41 106 -65.5 224t-35 239.5 t-11.5 242.5t3 234q-102 -152 -202.5 -302.5t-202.5 -301.5q96 2 186 3t168 5q12 0 19.5 -7.5t9.5 -17.5q2 -12 -4 -23.5t-21 -13.5q-86 -4 -189.5 -6t-211.5 -4l-338 -504q-10 -12 -21.5 -14t-20.5 3t-13 17.5zM713 1656.5q-2 12.5 3 21.5t17.5 13t26.5 -2q51 -35 92 -62.5 t79 -54t79 -54.5t94 -64q18 -18 7 -40t-38 -14q-53 37 -94 65t-79 54.5t-79 54t-92 62.5q-14 8 -16 20.5z" />
<glyph unicode="&#xc1;" horiz-adv-x="1544" d="M197 16.5q-4 12.5 4 26.5q78 119 157.5 235.5t157.5 235.5q-76 -2 -146.5 -2h-131.5q-16 0 -24.5 9t-8.5 19.5t8 20.5t25 12q70 0 151.5 1t169.5 1l485 725q4 10 13.5 15.5t17.5 5.5q16 0 22.5 -13.5t4.5 -29.5q-6 -125 -8 -256t7 -260t32.5 -255t70.5 -243 q76 -195 191 -215q41 -8 87 13.5t91 56.5q59 47 109.5 104.5t80.5 89.5q12 12 23.5 11.5t18.5 -9t8.5 -20.5t-11.5 -25q-14 -16 -36.5 -42.5t-50 -57.5t-59.5 -61.5t-69 -55.5q-66 -47 -138.5 -63.5t-137.5 24.5q-63 39 -100 98.5t-64 129.5q-41 106 -65.5 224t-35 239.5 t-11.5 242.5t3 234q-102 -152 -202.5 -302.5t-202.5 -301.5q96 2 186 3t168 5q12 0 19.5 -7.5t9.5 -17.5q2 -12 -4 -23.5t-21 -13.5q-86 -4 -189.5 -6t-211.5 -4l-338 -504q-10 -12 -21.5 -14t-20.5 3t-13 17.5zM873.5 1434.5q-11.5 21.5 7.5 40.5q53 37 94 64.5t79 54 t78 54t93 62.5q14 6 26.5 2t17.5 -13t3 -21.5t-16 -20.5q-53 -35 -93 -62.5t-78 -54t-79 -54.5t-94 -65q-27 -8 -38.5 13.5z" />
<glyph unicode="&#xc2;" horiz-adv-x="1544" d="M197 16.5q-4 12.5 4 26.5q78 119 157.5 235.5t157.5 235.5q-76 -2 -146.5 -2h-131.5q-16 0 -24.5 9t-8.5 19.5t8 20.5t25 12q70 0 151.5 1t169.5 1l485 725q4 10 13.5 15.5t17.5 5.5q16 0 22.5 -13.5t4.5 -29.5q-6 -125 -8 -256t7 -260t32.5 -255t70.5 -243 q76 -195 191 -215q41 -8 87 13.5t91 56.5q59 47 109.5 104.5t80.5 89.5q12 12 23.5 11.5t18.5 -9t8.5 -20.5t-11.5 -25q-14 -16 -36.5 -42.5t-50 -57.5t-59.5 -61.5t-69 -55.5q-66 -47 -138.5 -63.5t-137.5 24.5q-63 39 -100 98.5t-64 129.5q-41 106 -65.5 224t-35 239.5 t-11.5 242.5t3 234q-102 -152 -202.5 -302.5t-202.5 -301.5q96 2 186 3t168 5q12 0 19.5 -7.5t9.5 -17.5q2 -12 -4 -23.5t-21 -13.5q-86 -4 -189.5 -6t-211.5 -4l-338 -504q-10 -12 -21.5 -14t-20.5 3t-13 17.5zM788 1389q-1 10 7 22q66 53 127 107.5t125 112.5q25 12 45 -2 q63 -57 123.5 -111.5t122.5 -110.5q16 -25 -1.5 -42t-41.5 -3q-55 51 -111.5 102.5t-114.5 100.5q-59 -49 -117.5 -99t-115.5 -102q-12 -6 -23.5 -4t-17.5 10.5t-7 18.5z" />
<glyph unicode="&#xc3;" horiz-adv-x="1544" d="M197 16.5q-4 12.5 4 26.5q78 119 157.5 235.5t157.5 235.5q-76 -2 -146.5 -2h-131.5q-16 0 -24.5 9t-8.5 19.5t8 20.5t25 12q70 0 151.5 1t169.5 1l485 725q4 10 13.5 15.5t17.5 5.5q16 0 22.5 -13.5t4.5 -29.5q-6 -125 -8 -256t7 -260t32.5 -255t70.5 -243 q76 -195 191 -215q41 -8 87 13.5t91 56.5q59 47 109.5 104.5t80.5 89.5q12 12 23.5 11.5t18.5 -9t8.5 -20.5t-11.5 -25q-14 -16 -36.5 -42.5t-50 -57.5t-59.5 -61.5t-69 -55.5q-66 -47 -138.5 -63.5t-137.5 24.5q-63 39 -100 98.5t-64 129.5q-41 106 -65.5 224t-35 239.5 t-11.5 242.5t3 234q-102 -152 -202.5 -302.5t-202.5 -301.5q96 2 186 3t168 5q12 0 19.5 -7.5t9.5 -17.5q2 -12 -4 -23.5t-21 -13.5q-86 -4 -189.5 -6t-211.5 -4l-338 -504q-10 -12 -21.5 -14t-20.5 3t-13 17.5zM729 1465q31 35 64.5 57t70.5 29q66 12 133 -33 q29 -18 51.5 -45t52.5 -43q55 -29 121 -10q33 10 58.5 30.5t35.5 50.5q6 14 18.5 18.5t22 0.5t15.5 -15.5t0 -25.5q-16 -45 -53 -76t-84 -43q-63 -18 -123 0q-35 10 -62.5 31.5t-54.5 44.5q-29 23 -54.5 41t-54.5 18q-25 0 -51 -16t-61 -55q-23 -16 -40.5 0t-4.5 41z" />
<glyph unicode="&#xc4;" horiz-adv-x="1544" d="M197 16.5q-4 12.5 4 26.5q78 119 157.5 235.5t157.5 235.5q-76 -2 -146.5 -2h-131.5q-16 0 -24.5 9t-8.5 19.5t8 20.5t25 12q70 0 151.5 1t169.5 1l485 725q4 10 13.5 15.5t17.5 5.5q16 0 22.5 -13.5t4.5 -29.5q-6 -125 -8 -256t7 -260t32.5 -255t70.5 -243 q76 -195 191 -215q41 -8 87 13.5t91 56.5q59 47 109.5 104.5t80.5 89.5q12 12 23.5 11.5t18.5 -9t8.5 -20.5t-11.5 -25q-14 -16 -36.5 -42.5t-50 -57.5t-59.5 -61.5t-69 -55.5q-66 -47 -138.5 -63.5t-137.5 24.5q-63 39 -100 98.5t-64 129.5q-41 106 -65.5 224t-35 239.5 t-11.5 242.5t3 234q-102 -152 -202.5 -302.5t-202.5 -301.5q96 2 186 3t168 5q12 0 19.5 -7.5t9.5 -17.5q2 -12 -4 -23.5t-21 -13.5q-86 -4 -189.5 -6t-211.5 -4l-338 -504q-10 -12 -21.5 -14t-20.5 3t-13 17.5zM905 1450q0 20 14.5 33.5t37.5 13.5t37 -13t14 -34 q0 -20 -14.5 -33.5t-36.5 -13.5q-23 0 -37.5 13.5t-14.5 33.5zM1151 1450q0 20 14.5 33.5t36.5 13.5q23 0 37.5 -13t14.5 -34q0 -20 -14.5 -33.5t-37.5 -13.5t-37 13.5t-14 33.5z" />
<glyph unicode="&#xc5;" horiz-adv-x="1544" d="M197 16.5q-4 12.5 4 26.5q78 119 157.5 235.5t157.5 235.5q-76 -2 -146.5 -2h-131.5q-16 0 -24.5 9t-8.5 19.5t8 20.5t25 12q70 0 151.5 1t169.5 1l485 725q4 10 13.5 15.5t17.5 5.5q16 0 22.5 -13.5t4.5 -29.5q-6 -125 -8 -256t7 -260t32.5 -255t70.5 -243 q76 -195 191 -215q41 -8 87 13.5t91 56.5q59 47 109.5 104.5t80.5 89.5q12 12 23.5 11.5t18.5 -9t8.5 -20.5t-11.5 -25q-14 -16 -36.5 -42.5t-50 -57.5t-59.5 -61.5t-69 -55.5q-66 -47 -138.5 -63.5t-137.5 24.5q-63 39 -100 98.5t-64 129.5q-41 106 -65.5 224t-35 239.5 t-11.5 242.5t3 234q-102 -152 -202.5 -302.5t-202.5 -301.5q96 2 186 3t168 5q12 0 19.5 -7.5t9.5 -17.5q2 -12 -4 -23.5t-21 -13.5q-86 -4 -189.5 -6t-211.5 -4l-338 -504q-10 -12 -21.5 -14t-20.5 3t-13 17.5zM897 1503q4 51 25.5 93t64.5 71q49 33 106 22q29 -4 55.5 -20 t49.5 -39q25 -29 39 -62.5t12 -68.5q-2 -63 -33 -107q-39 -59 -106.5 -70t-124.5 23q-35 23 -59.5 62t-28.5 96zM958 1499q4 -33 17.5 -58.5t46.5 -50.5q29 -10 51 -10t51 10q43 33 57 84q10 37 -4 75t-53 67q-29 10 -52.5 10t-51.5 -10q-31 -25 -44.5 -51.5t-17.5 -65.5z " />
<glyph unicode="&#xc6;" horiz-adv-x="1781" d="M86 16.5q-4 12.5 4 26.5q78 119 158 235.5t158 235.5q-76 -2 -147 -2h-132q-16 0 -24.5 9t-8.5 19.5t8.5 20.5t24.5 12q70 0 151.5 1t170.5 1l485 725q4 10 13 15.5t18 5.5q10 0 18 -9t8 -7q2 12 27.5 21t58.5 15.5t67 11.5t54 7q111 10 244 18t260 4q29 -6 29 -29.5 t-27 -31.5q-104 4 -205.5 0t-206.5 -12q-25 -2 -59.5 -5.5t-69.5 -7.5t-65.5 -11t-48.5 -15q-18 -43 -34 -109.5t-29 -137.5t-24.5 -139.5t-19.5 -117.5q-16 -94 -24 -180q82 2 162.5 5t149 5t119 4t72.5 2q12 0 19.5 -7t9.5 -17q2 -12 -4 -23.5t-21 -13.5q-25 0 -76 -2 t-120.5 -4.5t-151.5 -5.5t-164 -5q-4 -61 1.5 -122.5t21.5 -120.5q16 -66 49 -123.5t82 -100.5q47 -41 110.5 -67.5t145.5 -30.5q80 -4 156.5 15.5t148.5 52.5q109 53 201 125.5t174 160.5q12 12 24.5 12.5t19.5 -8t9 -20.5t-8 -25q-86 -92 -182.5 -169.5t-212.5 -131.5 q-82 -37 -160 -57t-168 -16q-84 4 -155.5 33.5t-129.5 78.5q-61 53 -104 126t-64 157q-14 53 -18 108.5t0 120.5q-123 -4 -227.5 -6t-147.5 -2l-338 -504q-10 -12 -21 -14t-20.5 3t-13.5 17.5zM522 578q37 0 129 2t207 6q6 72 18.5 139.5t26.5 142.5q4 27 13.5 76 t20.5 106.5t22.5 114t21.5 97.5l-53 -80q-102 -152 -203 -302t-203 -302z" />
<glyph unicode="&#xc7;" horiz-adv-x="1146" d="M217 506.5q4 109.5 33 216t82 203t127 174.5q61 66 156.5 118t215.5 56q59 2 121 -29t88 -94q6 -16 0 -26.5t-16 -14.5t-22.5 -1t-18.5 17q-20 51 -60 71t-89 20q-63 0 -116.5 -16.5t-99 -43.5t-81 -60.5t-66.5 -70.5q-66 -78 -110 -169t-65.5 -188.5t-20.5 -196.5 t26 -191q16 -66 48 -122.5t79 -99.5t111.5 -69.5t148.5 -30.5q80 -4 157 15.5t148 52.5q109 53 201 125.5t174 160.5q12 12 24.5 12.5t19.5 -8t9 -20.5t-8 -25q-86 -92 -182 -169.5t-213 -131.5q-82 -37 -160 -57t-168 -16q-8 0 -15 1t-13 1q-10 -23 -20.5 -55.5 t-14.5 -57.5q49 14 98 12t89 -21.5t64.5 -59.5t22.5 -99q-2 -33 -12 -66.5t-33 -58.5q-41 -45 -95 -68.5t-113.5 -30.5t-120 -1t-115.5 22q-16 6 -20.5 17.5t-1.5 23t13.5 17.5t26.5 2q49 -14 98.5 -21.5t102.5 0.5q23 2 48.5 7.5t50 14.5t46 23.5t35.5 34.5q37 49 27 113 q-6 45 -33 65.5t-62.5 23.5t-74.5 -5t-70 -23q-37 -10 -43 29q0 35 14.5 85t30.5 87q-141 33 -235.5 137.5t-126.5 245.5q-25 104 -21 213.5z" />
<glyph unicode="&#xc8;" horiz-adv-x="1146" d="M125 733q0 10 8 20.5t25 12.5h88q4 27 10 51.5t12 50.5q6 31 18.5 73t25 85t24.5 84t20 72q2 12 28 21t58.5 15.5t66.5 11.5t54 7q111 10 244 18.5t260 4.5q29 -6 29 -30t-27 -32q-104 4 -205.5 0t-206.5 -12q-25 -2 -59.5 -5t-69 -7.5t-65.5 -11.5t-49 -15 q-35 -88 -61.5 -185.5t-45.5 -195.5q74 0 153 1t157.5 3t152.5 4t137 4q29 -6 30 -28.5t-26 -32.5q-66 -2 -141.5 -4t-155 -4t-160.5 -3t-157 -1q-14 -80 -19.5 -194t23.5 -230q16 -66 49 -123.5t82 -100.5q47 -41 110.5 -67.5t145.5 -30.5q80 -4 157 15.5t148 52.5 q109 53 201 125.5t174 160.5q12 12 24.5 12.5t19.5 -8t9 -20.5t-8 -25q-86 -92 -182 -169.5t-213 -131.5q-82 -37 -160 -57t-168 -16q-84 4 -155.5 33.5t-128.5 78.5q-61 53 -104.5 126t-63.5 157q-25 102 -21 201.5t19 210.5h-78q-16 0 -24.5 9t-8.5 19zM502 1624.5 q-2 12.5 3 21.5t17.5 13t26.5 -2q51 -35 92 -62.5t79 -54t79 -54.5t94 -64q18 -18 7 -40t-38 -14q-53 37 -94 65t-79 54.5t-79 54t-92 62.5q-14 8 -16 20.5z" />
<glyph unicode="&#xc9;" horiz-adv-x="1146" d="M125 733q0 10 8 20.5t25 12.5h88q4 27 10 51.5t12 50.5q6 31 18.5 73t25 85t24.5 84t20 72q2 12 28 21t58.5 15.5t66.5 11.5t54 7q111 10 244 18.5t260 4.5q29 -6 29 -30t-27 -32q-104 4 -205.5 0t-206.5 -12q-25 -2 -59.5 -5t-69 -7.5t-65.5 -11.5t-49 -15 q-35 -88 -61.5 -185.5t-45.5 -195.5q74 0 153 1t157.5 3t152.5 4t137 4q29 -6 30 -28.5t-26 -32.5q-66 -2 -141.5 -4t-155 -4t-160.5 -3t-157 -1q-14 -80 -19.5 -194t23.5 -230q16 -66 49 -123.5t82 -100.5q47 -41 110.5 -67.5t145.5 -30.5q80 -4 157 15.5t148 52.5 q109 53 201 125.5t174 160.5q12 12 24.5 12.5t19.5 -8t9 -20.5t-8 -25q-86 -92 -182 -169.5t-213 -131.5q-82 -37 -160 -57t-168 -16q-84 4 -155.5 33.5t-128.5 78.5q-61 53 -104.5 126t-63.5 157q-25 102 -21 201.5t19 210.5h-78q-16 0 -24.5 9t-8.5 19zM494.5 1336.5 q-11.5 21.5 7.5 40.5q53 37 94 64.5t79 54t78 54t93 62.5q14 6 26.5 2t17.5 -13t3 -21.5t-16 -20.5q-53 -35 -93 -62.5t-78 -54t-79 -54.5t-94 -65q-27 -8 -38.5 13.5z" />
<glyph unicode="&#xca;" horiz-adv-x="1146" d="M125 733q0 10 8 20.5t25 12.5h88q4 27 10 51.5t12 50.5q6 31 18.5 73t25 85t24.5 84t20 72q2 12 28 21t58.5 15.5t66.5 11.5t54 7q111 10 244 18.5t260 4.5q29 -6 29 -30t-27 -32q-104 4 -205.5 0t-206.5 -12q-25 -2 -59.5 -5t-69 -7.5t-65.5 -11.5t-49 -15 q-35 -88 -61.5 -185.5t-45.5 -195.5q74 0 153 1t157.5 3t152.5 4t137 4q29 -6 30 -28.5t-26 -32.5q-66 -2 -141.5 -4t-155 -4t-160.5 -3t-157 -1q-14 -80 -19.5 -194t23.5 -230q16 -66 49 -123.5t82 -100.5q47 -41 110.5 -67.5t145.5 -30.5q80 -4 157 15.5t148 52.5 q109 53 201 125.5t174 160.5q12 12 24.5 12.5t19.5 -8t9 -20.5t-8 -25q-86 -92 -182 -169.5t-213 -131.5q-82 -37 -160 -57t-168 -16q-84 4 -155.5 33.5t-128.5 78.5q-61 53 -104.5 126t-63.5 157q-25 102 -21 201.5t19 210.5h-78q-16 0 -24.5 9t-8.5 19zM411 1372 q-1 10 7 22q66 53 127 107.5t125 112.5q25 12 45 -2q63 -57 123.5 -111.5t122.5 -110.5q16 -25 -1.5 -42t-41.5 -3q-55 51 -111.5 102.5t-114.5 100.5q-59 -49 -117.5 -99t-115.5 -102q-12 -6 -23.5 -4t-17.5 10.5t-7 18.5z" />
<glyph unicode="&#xcb;" horiz-adv-x="1146" d="M125 733q0 10 8 20.5t25 12.5h88q4 27 10 51.5t12 50.5q6 31 18.5 73t25 85t24.5 84t20 72q2 12 28 21t58.5 15.5t66.5 11.5t54 7q111 10 244 18.5t260 4.5q29 -6 29 -30t-27 -32q-104 4 -205.5 0t-206.5 -12q-25 -2 -59.5 -5t-69 -7.5t-65.5 -11.5t-49 -15 q-35 -88 -61.5 -185.5t-45.5 -195.5q74 0 153 1t157.5 3t152.5 4t137 4q29 -6 30 -28.5t-26 -32.5q-66 -2 -141.5 -4t-155 -4t-160.5 -3t-157 -1q-14 -80 -19.5 -194t23.5 -230q16 -66 49 -123.5t82 -100.5q47 -41 110.5 -67.5t145.5 -30.5q80 -4 157 15.5t148 52.5 q109 53 201 125.5t174 160.5q12 12 24.5 12.5t19.5 -8t9 -20.5t-8 -25q-86 -92 -182 -169.5t-213 -131.5q-82 -37 -160 -57t-168 -16q-84 4 -155.5 33.5t-128.5 78.5q-61 53 -104.5 126t-63.5 157q-25 102 -21 201.5t19 210.5h-78q-16 0 -24.5 9t-8.5 19zM514 1433 q0 20 14.5 33.5t37.5 13.5t37 -13t14 -34q0 -20 -14.5 -33.5t-36.5 -13.5q-23 0 -37.5 13.5t-14.5 33.5zM760 1433q0 20 14.5 33.5t36.5 13.5q23 0 37.5 -13t14.5 -34q0 -20 -14.5 -33.5t-37.5 -13.5t-37 13.5t-14 33.5z" />
<glyph unicode="&#xcc;" horiz-adv-x="765" d="M40 1281q-5 24 21 34q145 18 291 29.5t293 21.5q20 -4 29 -25q10 -80 19 -158.5t16 -158.5q10 -121 12 -240.5t-8 -248.5q-4 -61 -18.5 -131t-40 -136.5t-61.5 -125t-86 -99.5t-113.5 -59.5t-143.5 -1.5q-47 10 -86 30.5t-78 42.5q-25 23 -8.5 44.5t45.5 4.5 q33 -20 65.5 -37.5t71.5 -23.5q104 -18 174 24t115 119q37 66 59.5 136.5t34.5 148.5q23 135 18.5 276.5t-14.5 270.5q-6 72 -13 142.5t-18 142.5q-135 -10 -271 -21t-271 -27q-29 2 -34 26zM189 1710.5q-2 12.5 3 21.5t17.5 13t26.5 -2q51 -35 92 -62.5t79 -54t79 -54.5 t94 -64q18 -18 7 -40t-38 -14q-53 37 -94 65t-79 54.5t-79 54t-92 62.5q-14 8 -16 20.5z" />
<glyph unicode="&#xcd;" horiz-adv-x="765" d="M40 1281q-5 24 21 34q145 18 291 29.5t293 21.5q20 -4 29 -25q10 -80 19 -158.5t16 -158.5q10 -121 12 -240.5t-8 -248.5q-4 -61 -18.5 -131t-40 -136.5t-61.5 -125t-86 -99.5t-113.5 -59.5t-143.5 -1.5q-47 10 -86 30.5t-78 42.5q-25 23 -8.5 44.5t45.5 4.5 q33 -20 65.5 -37.5t71.5 -23.5q104 -18 174 24t115 119q37 66 59.5 136.5t34.5 148.5q23 135 18.5 276.5t-14.5 270.5q-6 72 -13 142.5t-18 142.5q-135 -10 -271 -21t-271 -27q-29 2 -34 26zM262.5 1450.5q-11.5 21.5 7.5 40.5q53 37 94 64.5t79 54t78 54t93 62.5 q14 6 26.5 2t17.5 -13t3 -21.5t-16 -20.5q-53 -35 -93 -62.5t-78 -54t-79 -54.5t-94 -65q-27 -8 -38.5 13.5z" />
<glyph unicode="&#xce;" horiz-adv-x="765" d="M40 1281q-5 24 21 34q145 18 291 29.5t293 21.5q20 -4 29 -25q10 -80 19 -158.5t16 -158.5q10 -121 12 -240.5t-8 -248.5q-4 -61 -18.5 -131t-40 -136.5t-61.5 -125t-86 -99.5t-113.5 -59.5t-143.5 -1.5q-47 10 -86 30.5t-78 42.5q-25 23 -8.5 44.5t45.5 4.5 q33 -20 65.5 -37.5t71.5 -23.5q104 -18 174 24t115 119q37 66 59.5 136.5t34.5 148.5q23 135 18.5 276.5t-14.5 270.5q-6 72 -13 142.5t-18 142.5q-135 -10 -271 -21t-271 -27q-29 2 -34 26zM153 1499q-1 10 7 22q66 53 127 107.5t125 112.5q25 12 45 -2 q63 -57 123.5 -111.5t122.5 -110.5q16 -25 -1.5 -42t-41.5 -3q-55 51 -111.5 102.5t-114.5 100.5q-59 -49 -117.5 -99t-115.5 -102q-12 -6 -23.5 -4t-17.5 10.5t-7 18.5z" />
<glyph unicode="&#xcf;" horiz-adv-x="765" d="M40 1281q-5 24 21 34q145 18 291 29.5t293 21.5q20 -4 29 -25q10 -80 19 -158.5t16 -158.5q10 -121 12 -240.5t-8 -248.5q-4 -61 -18.5 -131t-40 -136.5t-61.5 -125t-86 -99.5t-113.5 -59.5t-143.5 -1.5q-47 10 -86 30.5t-78 42.5q-25 23 -8.5 44.5t45.5 4.5 q33 -20 65.5 -37.5t71.5 -23.5q104 -18 174 24t115 119q37 66 59.5 136.5t34.5 148.5q23 135 18.5 276.5t-14.5 270.5q-6 72 -13 142.5t-18 142.5q-135 -10 -271 -21t-271 -27q-29 2 -34 26zM243 1577q0 20 14.5 33.5t37.5 13.5t37 -13t14 -34q0 -20 -14.5 -33.5 t-36.5 -13.5q-23 0 -37.5 13.5t-14.5 33.5zM489 1577q0 20 14.5 33.5t36.5 13.5q23 0 37.5 -13t14.5 -34q0 -20 -14.5 -33.5t-37.5 -13.5t-37 13.5t-14 33.5z" />
<glyph unicode="&#xd0;" horiz-adv-x="1130" d="M40.5 185.5q16.5 21.5 45.5 4.5q92 -59 185.5 -105t199.5 -75q80 -20 166 -27.5t168 9.5q129 29 208 98.5t121 162.5t49 204.5t-9 226.5q-12 86 -36 174t-73 160q-59 88 -135 130t-162 46q-76 4 -150.5 -22.5t-146.5 -77.5q-14 -115 -24.5 -227.5t-20.5 -227.5 q115 2 226.5 4t203.5 6q29 -6 30 -28.5t-26 -32.5q-94 -4 -208.5 -6t-231.5 -4q-10 -106 -23.5 -212t-29.5 -214q-10 -27 -34 -26t-28 30q14 104 28.5 208.5t24.5 213.5q-68 -2 -132 -2.5t-120 -0.5q-16 0 -24 9.5t-8 19.5t8 20.5t24 12.5h123t136 2q2 10 2 19.5t2 19.5 q10 109 22 214t21 216q0 12 17 26.5t40 29t48.5 27.5t43.5 19q123 49 236 39q63 -4 123.5 -28.5t119.5 -77.5q68 -61 111 -149.5t66.5 -187.5t27.5 -200.5t-4 -187.5q-8 -80 -34.5 -163t-86.5 -142q-123 -129 -274.5 -168t-325.5 -8q-131 25 -245.5 78.5t-225.5 125.5 q-25 23 -8.5 44.5z" />
<glyph unicode="&#xd1;" horiz-adv-x="1605" d="M160 8q35 168 74.5 337t91 335t116 325.5t148.5 311.5q16 16 31.5 12t23.5 -24q29 -193 61.5 -382.5t90.5 -375.5q20 -74 50 -163t73 -167t103 -130t142 -52q88 0 131 55t70 143q23 80 28 170.5t-2.5 183.5t-23.5 183t-37 170q-4 14 3 24.5t17.5 13.5t21.5 -2t18 -20 q45 -182 57 -366t-23 -369q-6 -31 -22.5 -68.5t-34.5 -66.5q-37 -55 -84 -80.5t-113 -30.5q-37 -2 -88 9.5t-107 61.5t-114.5 152.5t-111.5 284.5q-18 57 -37 122t-37.5 150t-38 193.5t-39.5 253.5q-63 -117 -108.5 -241.5t-86.5 -249.5q-57 -178 -102 -355.5t-82 -359.5 q-4 -16 -15 -21.5t-21.5 -3.5t-17.5 11.5t-5 25.5zM703 1502q31 35 64.5 57t70.5 29q66 12 133 -33q29 -18 51.5 -45t52.5 -43q55 -29 121 -10q33 10 58.5 30.5t35.5 50.5q6 14 18.5 18.5t22 0.5t15.5 -15.5t0 -25.5q-16 -45 -53 -76t-84 -43q-63 -18 -123 0 q-35 10 -62.5 31.5t-54.5 44.5q-29 23 -54.5 41t-54.5 18q-25 0 -51 -16t-61 -55q-23 -16 -40.5 0t-4.5 41z" />
<glyph unicode="&#xd2;" horiz-adv-x="1331" d="M166 651q20 141 90 268.5t184 206.5q92 66 201 91.5t219 17.5q14 -4 21.5 -14.5t6.5 -21.5t-10.5 -18t-25.5 -7q-143 10 -273 -43.5t-221 -167.5q-74 -96 -109.5 -226.5t-23.5 -261.5q12 -129 72.5 -241.5t181.5 -174.5q98 -49 206 -51t206 37q106 41 189 121t118 190 q27 86 27 183.5t-23.5 193.5t-70 183.5t-109.5 150.5q-10 23 1 38t36 11q76 -27 146.5 -24.5t150.5 18.5q29 0 34 -23.5t-20 -35.5q-72 -16 -129 -19.5t-119 10.5q51 -72 90 -164t59.5 -189t17.5 -190t-36 -165q-14 -31 -25 -55.5t-23.5 -48t-28 -46t-39.5 -47.5 q-57 -63 -130 -105t-153 -61.5t-164 -18.5t-162 23q-29 8 -60.5 25.5t-62 39t-58.5 45.5t-46 46q-92 109 -124 244t-11 276zM527 1566.5q-2 12.5 3 21.5t17.5 13t26.5 -2q51 -35 92 -62.5t79 -54t79 -54.5t94 -64q18 -18 7 -40t-38 -14q-53 37 -94 65t-79 54.5t-79 54 t-92 62.5q-14 8 -16 20.5z" />
<glyph unicode="&#xd3;" horiz-adv-x="1331" d="M166 651q20 141 90 268.5t184 206.5q92 66 201 91.5t219 17.5q14 -4 21.5 -14.5t6.5 -21.5t-10.5 -18t-25.5 -7q-143 10 -273 -43.5t-221 -167.5q-74 -96 -109.5 -226.5t-23.5 -261.5q12 -129 72.5 -241.5t181.5 -174.5q98 -49 206 -51t206 37q106 41 189 121t118 190 q27 86 27 183.5t-23.5 193.5t-70 183.5t-109.5 150.5q-10 23 1 38t36 11q76 -27 146.5 -24.5t150.5 18.5q29 0 34 -23.5t-20 -35.5q-72 -16 -129 -19.5t-119 10.5q51 -72 90 -164t59.5 -189t17.5 -190t-36 -165q-14 -31 -25 -55.5t-23.5 -48t-28 -46t-39.5 -47.5 q-57 -63 -130 -105t-153 -61.5t-164 -18.5t-162 23q-29 8 -60.5 25.5t-62 39t-58.5 45.5t-46 46q-92 109 -124 244t-11 276zM707.5 1340.5q-11.5 21.5 7.5 40.5q53 37 94 64.5t79 54t78 54t93 62.5q14 6 26.5 2t17.5 -13t3 -21.5t-16 -20.5q-53 -35 -93 -62.5t-78 -54 t-79 -54.5t-94 -65q-27 -8 -38.5 13.5z" />
<glyph unicode="&#xd4;" horiz-adv-x="1331" d="M166 651q20 141 90 268.5t184 206.5q92 66 201 91.5t219 17.5q14 -4 21.5 -14.5t6.5 -21.5t-10.5 -18t-25.5 -7q-143 10 -273 -43.5t-221 -167.5q-74 -96 -109.5 -226.5t-23.5 -261.5q12 -129 72.5 -241.5t181.5 -174.5q98 -49 206 -51t206 37q106 41 189 121t118 190 q27 86 27 183.5t-23.5 193.5t-70 183.5t-109.5 150.5q-10 23 1 38t36 11q76 -27 146.5 -24.5t150.5 18.5q29 0 34 -23.5t-20 -35.5q-72 -16 -129 -19.5t-119 10.5q51 -72 90 -164t59.5 -189t17.5 -190t-36 -165q-14 -31 -25 -55.5t-23.5 -48t-28 -46t-39.5 -47.5 q-57 -63 -130 -105t-153 -61.5t-164 -18.5t-162 23q-29 8 -60.5 25.5t-62 39t-58.5 45.5t-46 46q-92 109 -124 244t-11 276zM550 1344q-1 10 7 22q66 53 127 107.5t125 112.5q25 12 45 -2q63 -57 123.5 -111.5t122.5 -110.5q16 -25 -1.5 -42t-41.5 -3q-55 51 -111.5 102.5 t-114.5 100.5q-59 -49 -117.5 -99t-115.5 -102q-12 -6 -23.5 -4t-17.5 10.5t-7 18.5z" />
<glyph unicode="&#xd5;" horiz-adv-x="1331" d="M166 651q20 141 90 268.5t184 206.5q92 66 201 91.5t219 17.5q14 -4 21.5 -14.5t6.5 -21.5t-10.5 -18t-25.5 -7q-143 10 -273 -43.5t-221 -167.5q-74 -96 -109.5 -226.5t-23.5 -261.5q12 -129 72.5 -241.5t181.5 -174.5q98 -49 206 -51t206 37q106 41 189 121t118 190 q27 86 27 183.5t-23.5 193.5t-70 183.5t-109.5 150.5q-10 23 1 38t36 11q76 -27 146.5 -24.5t150.5 18.5q29 0 34 -23.5t-20 -35.5q-72 -16 -129 -19.5t-119 10.5q51 -72 90 -164t59.5 -189t17.5 -190t-36 -165q-14 -31 -25 -55.5t-23.5 -48t-28 -46t-39.5 -47.5 q-57 -63 -130 -105t-153 -61.5t-164 -18.5t-162 23q-29 8 -60.5 25.5t-62 39t-58.5 45.5t-46 46q-92 109 -124 244t-11 276zM475 1440q31 35 64.5 57t70.5 29q66 12 133 -33q29 -18 51.5 -45t52.5 -43q55 -29 121 -10q33 10 58.5 30.5t35.5 50.5q6 14 18.5 18.5t22 0.5 t15.5 -15.5t0 -25.5q-16 -45 -53 -76t-84 -43q-63 -18 -123 0q-35 10 -62.5 31.5t-54.5 44.5q-29 23 -54.5 41t-54.5 18q-25 0 -51 -16t-61 -55q-23 -16 -40.5 0t-4.5 41z" />
<glyph unicode="&#xd6;" horiz-adv-x="1331" d="M166 651q20 141 90 268.5t184 206.5q92 66 201 91.5t219 17.5q14 -4 21.5 -14.5t6.5 -21.5t-10.5 -18t-25.5 -7q-143 10 -273 -43.5t-221 -167.5q-74 -96 -109.5 -226.5t-23.5 -261.5q12 -129 72.5 -241.5t181.5 -174.5q98 -49 206 -51t206 37q106 41 189 121t118 190 q27 86 27 183.5t-23.5 193.5t-70 183.5t-109.5 150.5q-10 23 1 38t36 11q76 -27 146.5 -24.5t150.5 18.5q29 0 34 -23.5t-20 -35.5q-72 -16 -129 -19.5t-119 10.5q51 -72 90 -164t59.5 -189t17.5 -190t-36 -165q-14 -31 -25 -55.5t-23.5 -48t-28 -46t-39.5 -47.5 q-57 -63 -130 -105t-153 -61.5t-164 -18.5t-162 23q-29 8 -60.5 25.5t-62 39t-58.5 45.5t-46 46q-92 109 -124 244t-11 276zM614 1425q0 20 14.5 33.5t37.5 13.5t37 -13t14 -34q0 -20 -14.5 -33.5t-36.5 -13.5q-23 0 -37.5 13.5t-14.5 33.5zM860 1425q0 20 14.5 33.5 t36.5 13.5q23 0 37.5 -13t14.5 -34q0 -20 -14.5 -33.5t-37.5 -13.5t-37 13.5t-14 33.5z" />
<glyph unicode="&#xd7;" horiz-adv-x="1257" d="M422 672q-14 25 3 42t42 1q55 -51 111.5 -100.5t111.5 -100.5q51 47 102.5 95t102.5 96q27 12 41 -6.5t-2 -41.5q-49 -47 -99.5 -92t-99.5 -92l215 -197q10 -12 9 -24t-9 -19.5t-20 -8.5t-25 9l-215 197q-49 -47 -97 -92t-97 -90q-12 -10 -24.5 -7t-19 11t-6.5 20.5 t11 22.5q47 43 94 87t94 89q-57 51 -112.5 100.5t-110.5 100.5z" />
<glyph unicode="&#xd8;" horiz-adv-x="1331" d="M166 651q20 141 90 268.5t184 206.5q92 66 201 91.5t219 17.5q2 -2 4 -2t4 -2q23 45 46.5 88t46.5 88q20 20 40.5 8t10.5 -41q-162 -311 -322 -617t-321 -618q45 -49 110 -80q98 -49 206 -51t206 37q106 41 189 121t118 190q27 86 27 183.5t-23.5 193.5t-70 183.5 t-109.5 150.5q-10 23 1 38t36 11q76 -27 146.5 -24.5t150.5 18.5q29 0 34 -23.5t-20 -35.5q-72 -16 -129 -19.5t-119 10.5q51 -72 90 -164t59.5 -189t17.5 -190t-36 -165q-14 -31 -25 -55.5t-23.5 -48t-28 -46t-39.5 -47.5q-57 -63 -130 -105t-153 -61.5t-164 -18.5t-162 23 q-43 14 -94 46t-92 67q-20 -39 -39.5 -77t-40.5 -79q-10 -12 -21.5 -14t-20.5 3t-13 17.5t4 26.5q23 41 43 84t43 84q-90 109 -121 243t-10 275zM225 475q8 -78 32 -151.5t69 -135.5q129 248 257 493t257 493q-141 8 -267.5 -46.5t-214.5 -164.5q-74 -96 -109.5 -226.5 t-23.5 -261.5z" />
<glyph unicode="&#xd9;" horiz-adv-x="1495" d="M186 635q0 158 18.5 313t53.5 309q12 27 34.5 22t24.5 -34q-59 -264 -67 -534q-2 -61 -1 -126t8 -129.5t24.5 -127t48.5 -117.5q49 -92 120.5 -136t150.5 -46t156 39t138 118q51 68 85 141.5t55.5 151.5t33.5 159t23 163q10 68 17 152.5t11 168.5q2 14 11.5 22.5 t20.5 7.5t20.5 -9t9.5 -25v-23.5t-2 -23.5q-2 -45 -4 -96t-2 -94q-2 -160 3 -321t48 -316q6 -25 16 -53.5t25.5 -55t37 -45t50.5 -22.5q41 -6 85 16t72 43q53 39 104.5 88t94.5 100q12 12 24.5 12.5t19.5 -8t9 -20.5t-8 -25q-37 -51 -89 -100t-85 -76q-23 -18 -55.5 -37.5 t-57.5 -31.5q-74 -35 -128 -24t-91 52t-60.5 104.5t-36.5 131t-19.5 131t-8.5 108.5q-2 27 -2 41.5v28.5q-25 -139 -73 -269t-148 -233q-66 -68 -145.5 -101.5t-161.5 -30.5t-157 44t-132 121q-74 109 -96.5 241t-22.5 261zM469 1636.5q-2 12.5 3 21.5t17.5 13t26.5 -2 q51 -35 92 -62.5t79 -54t79 -54.5t94 -64q18 -18 7 -40t-38 -14q-53 37 -94 65t-79 54.5t-79 54t-92 62.5q-14 8 -16 20.5z" />
<glyph unicode="&#xda;" horiz-adv-x="1495" d="M186 635q0 158 18.5 313t53.5 309q12 27 34.5 22t24.5 -34q-59 -264 -67 -534q-2 -61 -1 -126t8 -129.5t24.5 -127t48.5 -117.5q49 -92 120.5 -136t150.5 -46t156 39t138 118q51 68 85 141.5t55.5 151.5t33.5 159t23 163q10 68 17 152.5t11 168.5q2 14 11.5 22.5 t20.5 7.5t20.5 -9t9.5 -25v-23.5t-2 -23.5q-2 -45 -4 -96t-2 -94q-2 -160 3 -321t48 -316q6 -25 16 -53.5t25.5 -55t37 -45t50.5 -22.5q41 -6 85 16t72 43q53 39 104.5 88t94.5 100q12 12 24.5 12.5t19.5 -8t9 -20.5t-8 -25q-37 -51 -89 -100t-85 -76q-23 -18 -55.5 -37.5 t-57.5 -31.5q-74 -35 -128 -24t-91 52t-60.5 104.5t-36.5 131t-19.5 131t-8.5 108.5q-2 27 -2 41.5v28.5q-25 -139 -73 -269t-148 -233q-66 -68 -145.5 -101.5t-161.5 -30.5t-157 44t-132 121q-74 109 -96.5 241t-22.5 261zM582.5 1303.5q-11.5 21.5 7.5 40.5q53 37 94 64.5 t79 54t78 54t93 62.5q14 6 26.5 2t17.5 -13t3 -21.5t-16 -20.5q-53 -35 -93 -62.5t-78 -54t-79 -54.5t-94 -65q-27 -8 -38.5 13.5z" />
<glyph unicode="&#xdb;" horiz-adv-x="1495" d="M186 635q0 158 18.5 313t53.5 309q12 27 34.5 22t24.5 -34q-59 -264 -67 -534q-2 -61 -1 -126t8 -129.5t24.5 -127t48.5 -117.5q49 -92 120.5 -136t150.5 -46t156 39t138 118q51 68 85 141.5t55.5 151.5t33.5 159t23 163q10 68 17 152.5t11 168.5q2 14 11.5 22.5 t20.5 7.5t20.5 -9t9.5 -25v-23.5t-2 -23.5q-2 -45 -4 -96t-2 -94q-2 -160 3 -321t48 -316q6 -25 16 -53.5t25.5 -55t37 -45t50.5 -22.5q41 -6 85 16t72 43q53 39 104.5 88t94.5 100q12 12 24.5 12.5t19.5 -8t9 -20.5t-8 -25q-37 -51 -89 -100t-85 -76q-23 -18 -55.5 -37.5 t-57.5 -31.5q-74 -35 -128 -24t-91 52t-60.5 104.5t-36.5 131t-19.5 131t-8.5 108.5q-2 27 -2 41.5v28.5q-25 -139 -73 -269t-148 -233q-66 -68 -145.5 -101.5t-161.5 -30.5t-157 44t-132 121q-74 109 -96.5 241t-22.5 261zM468 1385q-1 10 7 22q66 53 127 107.5t125 112.5 q25 12 45 -2q63 -57 123.5 -111.5t122.5 -110.5q16 -25 -1.5 -42t-41.5 -3q-55 51 -111.5 102.5t-114.5 100.5q-59 -49 -117.5 -99t-115.5 -102q-12 -6 -23.5 -4t-17.5 10.5t-7 18.5z" />
<glyph unicode="&#xdc;" horiz-adv-x="1495" d="M186 635q0 158 18.5 313t53.5 309q12 27 34.5 22t24.5 -34q-59 -264 -67 -534q-2 -61 -1 -126t8 -129.5t24.5 -127t48.5 -117.5q49 -92 120.5 -136t150.5 -46t156 39t138 118q51 68 85 141.5t55.5 151.5t33.5 159t23 163q10 68 17 152.5t11 168.5q2 14 11.5 22.5 t20.5 7.5t20.5 -9t9.5 -25v-23.5t-2 -23.5q-2 -45 -4 -96t-2 -94q-2 -160 3 -321t48 -316q6 -25 16 -53.5t25.5 -55t37 -45t50.5 -22.5q41 -6 85 16t72 43q53 39 104.5 88t94.5 100q12 12 24.5 12.5t19.5 -8t9 -20.5t-8 -25q-37 -51 -89 -100t-85 -76q-23 -18 -55.5 -37.5 t-57.5 -31.5q-74 -35 -128 -24t-91 52t-60.5 104.5t-36.5 131t-19.5 131t-8.5 108.5q-2 27 -2 41.5v28.5q-25 -139 -73 -269t-148 -233q-66 -68 -145.5 -101.5t-161.5 -30.5t-157 44t-132 121q-74 109 -96.5 241t-22.5 261zM561 1462q0 20 14.5 33.5t37.5 13.5t37 -13 t14 -34q0 -20 -14.5 -33.5t-36.5 -13.5q-23 0 -37.5 13.5t-14.5 33.5zM807 1462q0 20 14.5 33.5t36.5 13.5q23 0 37.5 -13t14.5 -34q0 -20 -14.5 -33.5t-37.5 -13.5t-37 13.5t-14 33.5z" />
<glyph unicode="&#xdd;" horiz-adv-x="974" d="M121 1278q2 16 11 22.5t20 6.5q10 0 19 -8.5t11 -24.5q-6 -61 0 -129t24.5 -132.5t50.5 -124t77 -104.5q55 -57 131 -84.5t174 -9.5q12 2 23.5 5t21.5 7q23 78 45.5 139.5t56.5 133.5q8 18 21.5 46t30 58.5t37 62.5t43.5 56q31 35 65.5 51.5t69.5 1.5q14 -8 18 -22 q10 -29 8 -60.5t-11 -64.5t-22.5 -63.5t-23.5 -55.5q-29 -72 -70 -136.5t-94 -113.5q-29 -25 -59.5 -45t-65.5 -35q-47 -160 -78.5 -321.5t-66.5 -321.5q-4 -16 -15.5 -21t-21.5 -3t-17.5 11t-5.5 26q16 80 34 161.5t36 159.5q14 66 26.5 118t28.5 116q6 35 13 53 q-4 0 -7.5 -1t-7.5 -1q-109 -20 -194.5 8.5t-151.5 89.5q-53 49 -91 113.5t-60.5 137.5t-30.5 149.5t-2 148.5zM508.5 1336.5q-11.5 21.5 7.5 40.5q53 37 94 64.5t79 54t78 54t93 62.5q14 6 26.5 2t17.5 -13t3 -21.5t-16 -20.5q-53 -35 -93 -62.5t-78 -54t-79 -54.5t-94 -65 q-27 -8 -38.5 13.5zM758 737q41 27 80 66q41 43 73.5 95t55.5 110q6 16 16 40.5t21 51.5q14 37 19 65.5t-9 28.5q-20 0 -43 -24.5t-47 -63.5q-35 -53 -65 -117.5t-48 -107.5q-16 -35 -28.5 -71t-24.5 -73z" />
<glyph unicode="&#xdf;" horiz-adv-x="1120" d="M129 -127l57.5 287.5t59.5 285.5q23 111 48 218.5t58 214.5q18 63 41 128.5t58 122.5q23 37 47 73t63 71q29 27 65 42t64 19q82 8 146 -24q55 -29 85.5 -85.5t36.5 -121.5q6 -84 -32.5 -153.5t-104.5 -116.5q-6 -4 -13 -11.5t-15 -13.5q37 -10 69.5 -29.5t65.5 -48.5 q68 -59 105.5 -139t45.5 -166q8 -84 -10 -167t-68 -153q-39 -53 -90 -84.5t-116 -46.5q-72 -16 -142.5 -1.5t-122.5 63.5q-10 10 -8 21.5t10.5 19.5t20.5 9t22 -7q41 -41 96.5 -49t112.5 6q51 12 95.5 38.5t70.5 63.5q37 51 54.5 114.5t15.5 131.5q-4 84 -34 162t-85 133 q-39 39 -90 61.5t-113 22.5h-4q-10 0 -19 3t-13 19q-6 25 24 37q39 16 73 38t62 50q33 35 52.5 76t23.5 90q4 70 -25.5 119t-78.5 72q-43 18 -93.5 10t-99.5 -51q-29 -27 -53.5 -60.5t-44.5 -68.5q-29 -53 -50.5 -112.5t-39.5 -119.5q-33 -109 -58.5 -215t-48.5 -217 q-31 -143 -59.5 -286.5t-57.5 -286.5q-4 -16 -14 -22.5t-21.5 -3.5t-18.5 12.5t-5 25.5z" />
<glyph unicode="&#xe0;" d="M176 118q0 44 10 91q20 82 65.5 163t88.5 128q66 70 145.5 117t163.5 45q55 0 97 -22t71 -53.5t44.5 -68t19.5 -67.5q4 -18 -4.5 -28.5t-18.5 -11.5t-21.5 6t-13.5 23q-16 76 -61 116t-111 44q-72 4 -151.5 -43t-149.5 -141q-45 -59 -77.5 -131t-32.5 -148 q0 -80 53 -114.5t127 -14.5q57 16 110.5 51t100.5 78t88 91t78 94q14 18 35.5 12t19.5 -35q-4 -23 -9 -55.5t-7 -61.5q-4 -49 6 -89t32.5 -63.5t58.5 -27.5t87 21t107.5 67.5t109.5 89.5q41 35 76 70l63 63q12 12 24.5 12.5t19.5 -8t9.5 -20.5t-8.5 -25q-35 -35 -76.5 -74.5 t-89.5 -78.5q-61 -51 -126.5 -95t-131.5 -69q-57 -20 -99 -8t-69.5 45t-41 80t-13.5 94v33q-35 -41 -76 -82t-85 -76t-90 -59.5t-91 -32.5q-33 -6 -53.5 -9t-48.5 1q-55 8 -89 33.5t-49.5 62.5t-15.5 81zM449 991.5q-2 12.5 3 21.5t17.5 13t26.5 -2q51 -35 92 -62.5t79 -54 t79 -54.5t94 -64q18 -18 7 -40t-38 -14q-53 37 -94 65t-79 54.5t-79 54t-92 62.5q-14 8 -16 20.5z" />
<glyph unicode="&#xe1;" d="M180 139.5q2 73.5 29 148t59 122.5q33 49 77 95t93 81t103.5 55.5t107.5 20.5q55 0 97 -22t71 -53.5t44.5 -68t19.5 -67.5q4 -18 -4.5 -28.5t-18.5 -11.5t-21.5 6t-13.5 23q-16 76 -61 116t-111 44q-72 4 -151.5 -43t-149.5 -141q-45 -59 -77.5 -131t-32.5 -148 q0 -80 53 -114.5t127 -14.5q57 16 110.5 51t100.5 78t88 91t78 94q14 18 35.5 12t19.5 -35q-4 -23 -9 -55.5t-7 -61.5q-4 -49 6 -89t32.5 -63.5t58.5 -27.5t87 21q43 20 92 56t96 77t90 82t78 75q12 12 24.5 12.5t19.5 -8t9.5 -20.5t-8.5 -25q-41 -41 -91 -87t-105.5 -90 t-113.5 -82t-114 -58q-57 -20 -99 -8t-69.5 45t-41 80t-13.5 94v33q-35 -41 -76 -82t-85 -76t-90 -59.5t-91 -32.5q-33 -6 -53.5 -9t-48.5 1q-86 12 -119 68.5t-31 130zM498.5 754.5q-11.5 21.5 7.5 40.5q53 37 94 64.5t79 54t78 54t93 62.5q14 6 26.5 2t17.5 -13t3 -21.5 t-16 -20.5q-53 -35 -93 -62.5t-78 -54t-79 -54.5t-94 -65q-27 -8 -38.5 13.5z" />
<glyph unicode="&#xe2;" d="M176 118q0 44 10 91q20 82 65.5 163t88.5 128q66 70 145.5 117t163.5 45q55 0 97 -22t71 -53.5t44.5 -68t19.5 -67.5q4 -18 -4.5 -28.5t-18.5 -11.5t-21.5 6t-13.5 23q-16 76 -61 116t-111 44q-72 4 -151.5 -43t-149.5 -141q-45 -59 -77.5 -131t-32.5 -148 q0 -80 53 -114.5t127 -14.5q57 16 110.5 51t100.5 78t88 91t78 94q14 18 35.5 12t19.5 -35q-4 -23 -9 -55.5t-7 -61.5q-4 -49 6 -89t32.5 -63.5t58.5 -27.5t87 21t107.5 67.5t109.5 89.5q41 35 76 70l63 63q12 12 24.5 12.5t19.5 -8t9.5 -20.5t-8.5 -25q-35 -35 -76.5 -74.5 t-89.5 -78.5q-61 -51 -126.5 -95t-131.5 -69q-57 -20 -99 -8t-69.5 45t-41 80t-13.5 94v33q-35 -41 -76 -82t-85 -76t-90 -59.5t-91 -32.5q-33 -6 -53.5 -9t-48.5 1q-55 8 -89 33.5t-49.5 62.5t-15.5 81zM386 772q-1 10 7 22q66 53 127 107.5t125 112.5q25 12 45 -2 q63 -57 123.5 -111.5t122.5 -110.5q16 -25 -1.5 -42t-41.5 -3q-55 51 -111.5 102.5t-114.5 100.5q-59 -49 -117.5 -99t-115.5 -102q-12 -6 -23.5 -4t-17.5 10.5t-7 18.5z" />
<glyph unicode="&#xe3;" d="M176 118q0 44 10 91q20 82 65.5 163t88.5 128q66 70 145.5 117t163.5 45q55 0 97 -22t71 -53.5t44.5 -68t19.5 -67.5q4 -18 -4.5 -28.5t-18.5 -11.5t-21.5 6t-13.5 23q-16 76 -61 116t-111 44q-72 4 -151.5 -43t-149.5 -141q-45 -59 -77.5 -131t-32.5 -148 q0 -80 53 -114.5t127 -14.5q57 16 110.5 51t100.5 78t88 91t78 94q14 18 35.5 12t19.5 -35q-4 -23 -9 -55.5t-7 -61.5q-4 -49 6 -89t32.5 -63.5t58.5 -27.5t87 21t107.5 67.5t109.5 89.5q41 35 76 70l63 63q12 12 24.5 12.5t19.5 -8t9.5 -20.5t-8.5 -25q-35 -35 -76.5 -74.5 t-89.5 -78.5q-61 -51 -126.5 -95t-131.5 -69q-57 -20 -99 -8t-69.5 45t-41 80t-13.5 94v33q-35 -41 -76 -82t-85 -76t-90 -59.5t-91 -32.5q-33 -6 -53.5 -9t-48.5 1q-55 8 -89 33.5t-49.5 62.5t-15.5 81zM338 883q31 35 64.5 57t70.5 29q66 12 133 -33q29 -18 51.5 -45 t52.5 -43q55 -29 121 -10q33 10 58.5 30.5t35.5 50.5q6 14 18.5 18.5t22 0.5t15.5 -15.5t0 -25.5q-16 -45 -53 -76t-84 -43q-63 -18 -123 0q-35 10 -62.5 31.5t-54.5 44.5q-29 23 -54.5 41t-54.5 18q-25 0 -51 -16t-61 -55q-23 -16 -40.5 0t-4.5 41z" />
<glyph unicode="&#xe4;" d="M176 118q0 44 10 91q20 82 65.5 163t88.5 128q66 70 145.5 117t163.5 45q55 0 97 -22t71 -53.5t44.5 -68t19.5 -67.5q4 -18 -4.5 -28.5t-18.5 -11.5t-21.5 6t-13.5 23q-16 76 -61 116t-111 44q-72 4 -151.5 -43t-149.5 -141q-45 -59 -77.5 -131t-32.5 -148 q0 -80 53 -114.5t127 -14.5q57 16 110.5 51t100.5 78t88 91t78 94q14 18 35.5 12t19.5 -35q-4 -23 -9 -55.5t-7 -61.5q-4 -49 6 -89t32.5 -63.5t58.5 -27.5t87 21t107.5 67.5t109.5 89.5q41 35 76 70l63 63q12 12 24.5 12.5t19.5 -8t9.5 -20.5t-8.5 -25q-35 -35 -76.5 -74.5 t-89.5 -78.5q-61 -51 -126.5 -95t-131.5 -69q-57 -20 -99 -8t-69.5 45t-41 80t-13.5 94v33q-35 -41 -76 -82t-85 -76t-90 -59.5t-91 -32.5q-33 -6 -53.5 -9t-48.5 1q-55 8 -89 33.5t-49.5 62.5t-15.5 81zM440 837q0 20 14.5 33.5t37.5 13.5t37 -13t14 -34q0 -20 -14.5 -33.5 t-36.5 -13.5q-23 0 -37.5 13.5t-14.5 33.5zM686 837q0 20 14.5 33.5t36.5 13.5q23 0 37.5 -13t14.5 -34q0 -20 -14.5 -33.5t-37.5 -13.5t-37 13.5t-14 33.5z" />
<glyph unicode="&#xe5;" d="M176 118q0 44 10 91q20 82 65.5 163t88.5 128q66 70 145.5 117t163.5 45q55 0 97 -22t71 -53.5t44.5 -68t19.5 -67.5q4 -18 -4.5 -28.5t-18.5 -11.5t-21.5 6t-13.5 23q-16 76 -61 116t-111 44q-72 4 -151.5 -43t-149.5 -141q-45 -59 -77.5 -131t-32.5 -148 q0 -80 53 -114.5t127 -14.5q57 16 110.5 51t100.5 78t88 91t78 94q14 18 35.5 12t19.5 -35q-4 -23 -9 -55.5t-7 -61.5q-4 -49 6 -89t32.5 -63.5t58.5 -27.5t87 21t107.5 67.5t109.5 89.5q41 35 76 70l63 63q12 12 24.5 12.5t19.5 -8t9.5 -20.5t-8.5 -25q-35 -35 -76.5 -74.5 t-89.5 -78.5q-61 -51 -126.5 -95t-131.5 -69q-57 -20 -99 -8t-69.5 45t-41 80t-13.5 94v33q-35 -41 -76 -82t-85 -76t-90 -59.5t-91 -32.5q-33 -6 -53.5 -9t-48.5 1q-55 8 -89 33.5t-49.5 62.5t-15.5 81zM475 846q4 51 25.5 93t64.5 71q49 33 106 22q29 -4 55.5 -20 t49.5 -39q25 -29 39 -62.5t12 -68.5q-2 -63 -33 -107q-39 -59 -106.5 -70t-124.5 23q-35 23 -59.5 62t-28.5 96zM536 842q4 -33 17.5 -58.5t46.5 -50.5q29 -10 51 -10t51 10q43 33 57 84q10 37 -4 75t-53 67q-29 10 -52.5 10t-51.5 -10q-31 -25 -44.5 -51.5t-17.5 -65.5z " />
<glyph unicode="&#xe6;" horiz-adv-x="1622" d="M176 118q0 44 10 91q20 82 65.5 163t88.5 128q66 70 145.5 117t163.5 45q55 0 97 -22t71 -53.5t44.5 -68.5t19.5 -67q4 -18 -4.5 -28.5t-18.5 -11.5t-21.5 6t-13.5 23q-16 76 -61 116t-111 44q-72 4 -151.5 -43t-149.5 -141q-45 -59 -77.5 -131t-32.5 -148 q0 -80 53 -114.5t127 -14.5q68 18 134.5 52t124.5 76t104 87t73 84q27 74 77 138.5t114 113.5q18 14 36.5 27.5t38.5 23.5q33 18 75 33.5t85 21t83 -4t73 -39.5q37 -35 44 -75t-5.5 -80t-39 -75.5t-57.5 -62.5q-43 -39 -102 -59.5t-125 -26.5t-131.5 -1t-120.5 17 q-4 -10 -5 -21.5t-3 -21.5q-8 -49 7 -94t48 -79t80 -55.5t102 -25.5q150 -14 300 45q104 41 205.5 119t203.5 188q10 12 22.5 12.5t20.5 -7t10 -20.5t-8 -26q-78 -80 -153.5 -145.5t-153.5 -112.5q-100 -61 -205.5 -90.5t-230.5 -21.5q-92 6 -153.5 37.5t-98.5 78.5 q-29 37 -42 79t-13 87q-45 -41 -97.5 -78.5t-105.5 -70.5t-104.5 -55.5t-94.5 -30.5q-33 -6 -53.5 -9t-48.5 1q-55 8 -89 33.5t-49.5 62.5t-15.5 81zM924 317q51 -12 106 -16t110.5 2t106.5 23.5t94 48.5q20 14 41 39.5t31 53.5t8 56.5t-26 50.5q-25 23 -56.5 28t-64.5 0 t-64.5 -18.5t-56.5 -27.5q-72 -41 -133.5 -102.5t-95.5 -137.5z" />
<glyph unicode="&#xe7;" horiz-adv-x="1112" d="M215 281.5q2 54.5 23 105.5q41 102 122 178q41 37 87.5 64.5t99.5 42.5q98 29 178 0q47 -18 76.5 -60t29.5 -112q0 -16 -9 -23.5t-21.5 -6.5t-21.5 9t-9 25q0 45 -20.5 71.5t-53.5 38.5q-29 10 -63.5 10.5t-69.5 -10.5q-86 -25 -153 -84q-76 -68 -115 -163 q-16 -45 -18.5 -93.5t8.5 -93.5q16 -66 54 -107.5t91 -66.5q43 -20 92 -29.5t99.5 -11.5t100.5 2t95 10q78 16 142.5 46t123.5 71q70 47 130.5 104.5t117.5 114.5q12 12 24.5 12.5t20.5 -7t9 -20.5t-9 -26q-59 -59 -123.5 -118.5t-138.5 -108.5q-66 -43 -137.5 -74.5 t-153.5 -48.5q-49 -10 -105 -14t-114 0q-10 -23 -21.5 -58.5t-17.5 -62.5q49 14 98.5 12t89.5 -21.5t64.5 -59.5t22.5 -99q-2 -33 -12.5 -66.5t-32.5 -58.5q-41 -45 -95.5 -68.5t-114 -30.5t-119.5 -1t-116 22q-16 6 -20 17.5t-1 23t13 17.5t27 2q49 -14 98 -21.5t102 0.5 q23 2 48.5 7.5t50 14.5t46 23.5t36.5 34.5q37 49 26 113q-6 45 -32.5 65.5t-62.5 23.5t-75 -5t-69 -23q-37 -10 -43 29q0 37 15 90t32 88q-45 8 -86 20.5t-78 32.5q-55 31 -96 81t-58 124q-10 53 -8 107.5z" />
<glyph unicode="&#xe8;" horiz-adv-x="978" d="M193 223q12 100 71.5 186.5t138.5 149.5q18 14 37 27.5t39 23.5q33 18 75 33.5t85 21t83 -4t73 -39.5q37 -35 44 -75t-5.5 -80t-39 -75.5t-57.5 -62.5q-43 -39 -102.5 -59.5t-125 -26.5t-131 -1t-120.5 17q-4 -10 -5 -21.5t-3 -21.5q-8 -49 7 -94t48 -79t80 -55.5 t102 -25.5q150 -14 299 45q104 41 206 119t204 188q10 12 22.5 12.5t20.5 -7t10 -20.5t-8 -26q-78 -80 -153.5 -145.5t-153.5 -112.5q-100 -61 -205.5 -90.5t-230.5 -21.5q-92 6 -153.5 37.5t-98.5 78.5q-35 45 -47.5 98.5t-5.5 106.5zM281 317q51 -12 106 -16t110.5 2 t106.5 23.5t94 48.5q20 14 41 39.5t31 53.5t8 56.5t-26 50.5q-25 23 -56.5 28t-64.5 0t-64.5 -18.5t-56.5 -27.5q-72 -41 -133.5 -102.5t-95.5 -137.5zM381 977.5q-2 12.5 3 21.5t17.5 13t26.5 -2q51 -35 92 -62.5t79 -54t79 -54.5t94 -64q18 -18 7 -40t-38 -14 q-53 37 -94 65t-79 54.5t-79 54t-92 62.5q-14 8 -16 20.5z" />
<glyph unicode="&#xe9;" horiz-adv-x="978" d="M193 223q8 61 33.5 118.5t64.5 107t87 90.5t101 71q33 18 75 33.5t85 21t83 -4t73 -39.5q37 -35 44 -75t-5.5 -80t-39 -75.5t-57.5 -62.5q-43 -39 -102.5 -59.5t-125 -26.5t-131 -1t-120.5 17q-4 -10 -5 -21.5t-3 -21.5q-8 -49 7 -94t48 -79t80 -55.5t102 -25.5 q190 -16 362.5 75t346.5 277q10 12 22.5 12.5t20.5 -7t10 -20.5t-8 -26q-90 -92 -175 -163.5t-175 -119.5t-186.5 -70.5t-206.5 -16.5q-88 6 -149.5 35.5t-98.5 75.5t-50.5 100.5t-6.5 109.5zM281 317q51 -12 106 -16t110.5 2t106.5 23.5t94 48.5q20 14 41 39.5t31 53.5 t8 56.5t-26 50.5q-25 23 -56.5 28t-64.5 0t-64.5 -18.5t-56.5 -27.5q-72 -41 -133.5 -102.5t-95.5 -137.5zM494 754.5q-11 21.5 8 40.5q53 37 94 64.5t79 54t78 54t93 62.5q14 6 26.5 2t17.5 -13t3 -21.5t-16 -20.5q-53 -35 -93.5 -62.5t-78 -54t-79 -54.5t-94.5 -65 q-27 -8 -38 13.5z" />
<glyph unicode="&#xea;" horiz-adv-x="978" d="M193 223q12 100 71.5 186.5t138.5 149.5q18 14 37 27.5t39 23.5q33 18 75 33.5t85 21t83 -4t73 -39.5q37 -35 44 -75t-5.5 -80t-39 -75.5t-57.5 -62.5q-43 -39 -102.5 -59.5t-125 -26.5t-131 -1t-120.5 17q-4 -10 -5 -21.5t-3 -21.5q-8 -49 7 -94t48 -79t80 -55.5 t102 -25.5q150 -14 299 45q104 41 206 119t204 188q10 12 22.5 12.5t20.5 -7t10 -20.5t-8 -26q-78 -80 -153.5 -145.5t-153.5 -112.5q-100 -61 -205.5 -90.5t-230.5 -21.5q-92 6 -153.5 37.5t-98.5 78.5q-35 45 -47.5 98.5t-5.5 106.5zM281 317q51 -12 106 -16t110.5 2 t106.5 23.5t94 48.5q20 14 41 39.5t31 53.5t8 56.5t-26 50.5q-25 23 -56.5 28t-64.5 0t-64.5 -18.5t-56.5 -27.5q-72 -41 -133.5 -102.5t-95.5 -137.5zM341 760q-1 10 7 22q66 53 127 107.5t125 112.5q25 12 45 -2q63 -57 123.5 -111.5t122.5 -110.5q16 -25 -1.5 -42 t-41.5 -3q-55 51 -111.5 102.5t-114.5 100.5q-59 -49 -117.5 -99t-115.5 -102q-12 -6 -23.5 -4t-17.5 10.5t-7 18.5z" />
<glyph unicode="&#xeb;" horiz-adv-x="978" d="M193 223q12 100 71.5 186.5t138.5 149.5q18 14 37 27.5t39 23.5q33 18 75 33.5t85 21t83 -4t73 -39.5q37 -35 44 -75t-5.5 -80t-39 -75.5t-57.5 -62.5q-43 -39 -102.5 -59.5t-125 -26.5t-131 -1t-120.5 17q-4 -10 -5 -21.5t-3 -21.5q-8 -49 7 -94t48 -79t80 -55.5 t102 -25.5q150 -14 299 45q104 41 206 119t204 188q10 12 22.5 12.5t20.5 -7t10 -20.5t-8 -26q-78 -80 -153.5 -145.5t-153.5 -112.5q-100 -61 -205.5 -90.5t-230.5 -21.5q-92 6 -153.5 37.5t-98.5 78.5q-35 45 -47.5 98.5t-5.5 106.5zM281 317q51 -12 106 -16t110.5 2 t106.5 23.5t94 48.5q20 14 41 39.5t31 53.5t8 56.5t-26 50.5q-25 23 -56.5 28t-64.5 0t-64.5 -18.5t-56.5 -27.5q-72 -41 -133.5 -102.5t-95.5 -137.5zM487 817q0 20 14.5 33.5t37.5 13.5t37 -13t14 -34q0 -20 -14.5 -33.5t-36.5 -13.5q-23 0 -37.5 13.5t-14.5 33.5z M733 817q0 20 14.5 33.5t36.5 13.5q23 0 37.5 -13t14.5 -34q0 -20 -14.5 -33.5t-37.5 -13.5t-37 13.5t-14 33.5z" />
<glyph unicode="&#xec;" horiz-adv-x="899" d="M143.5 882.5q-2.5 12.5 3 21.5t17.5 13.5t26 -2.5q51 -35 92.5 -62.5t79 -54t78.5 -54t95 -64.5q18 -18 7 -39.5t-38 -13.5q-53 37 -94 64.5t-79 54t-79 54t-92 62.5q-14 8 -16.5 20.5zM211 297q0 -12 6 -21.5t18.5 -12.5t24.5 7l109 115q10 -119 36.5 -194.5 t65.5 -122.5q53 -63 124 -79t144 -3q61 10 114.5 33.5t100.5 58.5q55 39 105.5 89t103.5 105q10 12 8 25.5t-10 21t-20.5 7.5t-22.5 -13q-47 -51 -94 -99t-102 -87q-88 -63 -203 -84q-113 -18 -182 49q-98 96 -109 348q0 18 -7 31.5t-18 17.5q-23 8 -45 -14 q-31 -35 -64.5 -75t-72.5 -81q-10 -10 -10 -22z" />
<glyph unicode="&#xed;" horiz-adv-x="899" d="M211 297q0 12 10 22q39 41 73 81t64 75q23 23 45 14q10 -4 17.5 -17t7.5 -32q10 -252 109 -348q70 -68 182 -49q68 12 123 39t102 63.5t90 79.5t84 88q10 12 22.5 12.5t20.5 -7t10.5 -20.5t-8.5 -26q-49 -53 -96 -100t-98 -85t-107.5 -64.5t-122.5 -36.5 q-74 -12 -144.5 3t-123.5 79q-39 47 -65.5 122.5t-36.5 194.5l-109 -115q-12 -10 -24.5 -7t-18.5 12.5t-6 21.5zM257 648.5q-11 21.5 7 39.5q53 37 94 64.5t79 54.5t78 54.5t93 62.5q14 6 26.5 2t17.5 -13.5t3 -21.5t-16 -21q-53 -35 -93 -62.5t-78 -54t-79 -54t-94 -64.5 q-27 -8 -38 13.5z" />
<glyph unicode="&#xee;" horiz-adv-x="899" d="M118 602.5q-1 10.5 7 22.5q66 53 127 107t125 112q25 12 45 -2q63 -57 123.5 -111.5t122.5 -109.5q16 -25 -1.5 -42.5t-41.5 -3.5q-55 51 -111.5 102.5t-114.5 100.5q-59 -49 -117.5 -99t-115.5 -101q-12 -6 -23.5 -4.5t-17.5 10t-7 19zM211 297q0 -12 6 -21.5 t18.5 -12.5t24.5 7l109 115q10 -119 36.5 -194.5t65.5 -122.5q53 -63 124 -79t144 -3q61 10 114.5 33.5t100.5 58.5q55 39 105.5 89t103.5 105q10 12 8 25.5t-10 21t-20.5 7.5t-22.5 -13q-47 -51 -94 -99t-102 -87q-88 -63 -203 -84q-113 -18 -182 49q-98 96 -109 348 q0 18 -7 31.5t-18 17.5q-23 8 -45 -14q-31 -35 -64.5 -75t-72.5 -81q-10 -10 -10 -22z" />
<glyph unicode="&#xef;" horiz-adv-x="899" d="M211 297q0 12 10 22q39 41 73 81t64 75q23 23 45 14q10 -4 17.5 -17t7.5 -32q10 -252 109 -348q70 -68 182 -49q115 20 203 84q55 39 102 87t94 99q10 12 22.5 12.5t20.5 -7t10.5 -20.5t-8.5 -26q-53 -55 -103 -105t-106 -89q-47 -35 -100 -58.5t-115 -33.5 q-74 -12 -144.5 3t-123.5 79q-39 47 -65.5 122.5t-36.5 194.5l-109 -115q-12 -10 -24.5 -7t-18.5 12.5t-6 21.5zM264 745q0 20 14.5 34t36.5 14q23 0 37.5 -13.5t14.5 -34.5q0 -20 -14.5 -33.5t-37.5 -13.5t-37 13.5t-14 33.5zM510 745q0 20 14.5 34t36.5 14q23 0 37 -13.5 t14 -34.5q0 -20 -14 -33.5t-37 -13.5t-37 13.5t-14 33.5z" />
<glyph unicode="&#xf1;" horiz-adv-x="1558" d="M211 295q0 10 8 20q84 92 132 143.5t89 55.5q31 -4 34 -25.5t1 -64.5q-12 -131 -15 -174t-9 -92q59 123 116.5 222t113.5 168.5t114.5 108.5t119.5 41q57 0 101.5 -22.5t81.5 -70.5t70.5 -123.5t74.5 -184.5q27 -78 54.5 -122t52 -65.5t47 -27.5t41.5 -6q31 0 71.5 18.5 t85.5 51t92.5 75.5t88.5 90q10 10 24 11q29 0 29 -29q0 -14 -8 -23q-45 -51 -95.5 -97t-100.5 -82t-99 -56.5t-94 -20.5q-57 0 -107.5 36t-97.5 116q-37 63 -67 145t-62.5 155t-75.5 123t-109 50q-51 0 -109.5 -51t-115.5 -130t-109.5 -174.5t-89.5 -183.5 q-10 -25 -19 -54.5t-18.5 -54t-19.5 -42t-24 -17.5q-12 0 -21.5 7.5t-9.5 21.5q6 109 12 173.5t9 102t7.5 73.5t10.5 108q0 18 -4 18q-6 0 -21.5 -16.5t-36 -40t-43.5 -50t-41 -46.5q-16 -16 -30 -17q-29 0 -29 29zM541 940q31 35 64.5 57t70.5 29q66 12 133 -33 q29 -18 51.5 -45t52.5 -43q55 -29 121 -10q33 10 58.5 30.5t35.5 50.5q6 14 18.5 18.5t22 0.5t15.5 -15.5t0 -25.5q-16 -45 -53 -76t-84 -43q-63 -18 -123 0q-35 10 -62.5 31.5t-54.5 44.5q-29 23 -54.5 41t-54.5 18q-25 0 -51 -16t-61 -55q-23 -16 -40.5 0t-4.5 41z" />
<glyph unicode="&#xf2;" horiz-adv-x="1236" d="M219 279q0 80 33 148.5t88 127.5q12 12 24.5 12t19.5 -8t9 -20.5t-8 -24.5q-47 -49 -75.5 -106.5t-28.5 -128.5q0 -80 34.5 -143.5t90.5 -104.5q51 -39 113.5 -56.5t125.5 -11.5q53 4 102.5 26.5t92.5 63.5q14 14 26.5 29.5t22.5 32.5q-53 16 -106.5 42.5t-112.5 71.5 q-35 27 -70 70t-57 94q-18 41 -25.5 84t2.5 82q10 45 34 72.5t54 38.5q57 20 127 -2q59 -18 107 -60q80 -68 116 -155q51 -117 29 -240q-4 -16 -7 -29.5t-7 -27.5q8 -2 15 -3t18 -1q49 -6 100 -4t104 14q59 14 128 55t122 100q8 10 20.5 8.5t19.5 -10t7 -21.5t-14 -28 q-88 -100 -215 -147q-59 -23 -123.5 -31t-132.5 0q-18 2 -36.5 4t-37.5 6q-27 -47 -65.5 -87t-91.5 -68q-47 -25 -97.5 -35t-99.5 -6q-106 6 -191 57q-80 49 -132 131t-52 189zM379 1079.5q-2 12.5 3 21.5t17.5 13t26.5 -2q51 -35 92 -62.5t79 -54t79 -54.5t94 -64 q18 -18 7 -40t-38 -14q-53 37 -94 65t-79 54.5t-79 54t-92 62.5q-14 8 -16 20.5zM583 484q7 -44 29 -85q25 -47 61 -85.5t75 -63.5q41 -27 81.5 -47.5t85.5 -32.5q4 12 7.5 25.5t7.5 27.5q10 72 -9.5 145.5t-66.5 135.5q-20 29 -53 56.5t-68 45.5q-43 23 -84 19t-63 -56 q-10 -41 -3 -85z" />
<glyph unicode="&#xf3;" horiz-adv-x="1236" d="M219 279q0 80 33 148.5t88 127.5q12 12 24.5 12t19.5 -8t9 -20.5t-8 -24.5q-47 -49 -75.5 -106.5t-28.5 -128.5q0 -80 34.5 -143.5t90.5 -104.5q51 -39 113.5 -56.5t125.5 -11.5q53 4 102.5 26.5t92.5 63.5q39 37 60.5 80t29.5 90q10 72 -9.5 145.5t-66.5 135.5 q-20 29 -53 56.5t-68 45.5q-43 23 -84 19t-63 -56q-10 -41 -3 -85t29 -85q25 -47 61 -86t75 -63q59 -39 123.5 -63.5t134.5 -34.5q49 -6 100 -4t104 14q59 14 128 55t122 100q8 10 20.5 8.5t19.5 -10t7 -21.5t-14 -28q-88 -100 -215 -147q-59 -23 -123.5 -31t-132.5 0 q-86 10 -171 40t-181 101q-35 27 -70 70t-57 94q-18 41 -25.5 84t2.5 82q10 45 34 72.5t54 38.5q57 20 127 -2q59 -18 107 -60q80 -68 116 -155q51 -117 29 -240q-16 -84 -63 -154.5t-133 -115.5q-47 -25 -97.5 -35t-99.5 -6q-106 6 -191 57q-80 49 -132 131t-52 189z M460 754.5q-11 21.5 7 40.5q53 37 94 64.5t79 54t78 54t93 62.5q14 6 26.5 2t17.5 -13t3 -21.5t-16 -20.5q-53 -35 -93 -62.5t-78 -54t-79 -54.5t-94 -65q-27 -8 -38 13.5z" />
<glyph unicode="&#xf4;" horiz-adv-x="1236" d="M219 279q0 80 33 148.5t88 127.5q12 12 24.5 12t19.5 -8t9 -20.5t-8 -24.5q-47 -49 -75.5 -106.5t-28.5 -128.5q0 -80 34.5 -143.5t90.5 -104.5q51 -39 113.5 -56.5t125.5 -11.5q53 4 102.5 26.5t92.5 63.5q14 14 26.5 29.5t22.5 32.5q-53 16 -106.5 42.5t-112.5 71.5 q-35 27 -70 70t-57 94q-18 41 -25.5 84t2.5 82q10 45 34 72.5t54 38.5q57 20 127 -2q59 -18 107 -60q80 -68 116 -155q51 -117 29 -240q-4 -16 -7 -29.5t-7 -27.5q8 -2 15 -3t18 -1q49 -6 100 -4t104 14q59 14 128 55t122 100q8 10 20.5 8.5t19.5 -10t7 -21.5t-14 -28 q-88 -100 -215 -147q-59 -23 -123.5 -31t-132.5 0q-18 2 -36.5 4t-37.5 6q-27 -47 -65.5 -87t-91.5 -68q-47 -25 -97.5 -35t-99.5 -6q-106 6 -191 57q-80 49 -132 131t-52 189zM343 807q-1 10 7 22q66 53 127 107.5t125 112.5q25 12 45 -2q63 -57 123.5 -111.5t122.5 -110.5 q16 -25 -1.5 -42t-41.5 -3q-55 51 -111.5 102.5t-114.5 100.5q-59 -49 -117.5 -99t-115.5 -102q-12 -6 -23.5 -4t-17.5 10.5t-7 18.5zM583 484q7 -44 29 -85q25 -47 61 -85.5t75 -63.5q41 -27 81.5 -47.5t85.5 -32.5q4 12 7.5 25.5t7.5 27.5q10 72 -9.5 145.5t-66.5 135.5 q-20 29 -53 56.5t-68 45.5q-43 23 -84 19t-63 -56q-10 -41 -3 -85z" />
<glyph unicode="&#xf5;" horiz-adv-x="1236" d="M219 279q0 80 33 148.5t88 127.5q12 12 24.5 12t19.5 -8t9 -20.5t-8 -24.5q-47 -49 -75.5 -106.5t-28.5 -128.5q0 -80 34.5 -143.5t90.5 -104.5q51 -39 113.5 -56.5t125.5 -11.5q53 4 102.5 26.5t92.5 63.5q14 14 26.5 29.5t22.5 32.5q-53 16 -106.5 42.5t-112.5 71.5 q-35 27 -70 70t-57 94q-18 41 -25.5 84t2.5 82q10 45 34 72.5t54 38.5q57 20 127 -2q59 -18 107 -60q80 -68 116 -155q51 -117 29 -240q-4 -16 -7 -29.5t-7 -27.5q8 -2 15 -3t18 -1q49 -6 100 -4t104 14q59 14 128 55t122 100q8 10 20.5 8.5t19.5 -10t7 -21.5t-14 -28 q-88 -100 -215 -147q-59 -23 -123.5 -31t-132.5 0q-18 2 -36.5 4t-37.5 6q-27 -47 -65.5 -87t-91.5 -68q-47 -25 -97.5 -35t-99.5 -6q-106 6 -191 57q-80 49 -132 131t-52 189zM293 912q31 35 64.5 57t70.5 29q66 12 133 -33q29 -18 51.5 -45t52.5 -43q55 -29 121 -10 q33 10 58.5 30.5t35.5 50.5q6 14 18.5 18.5t22 0.5t15.5 -15.5t0 -25.5q-16 -45 -53 -76t-84 -43q-63 -18 -123 0q-35 10 -62.5 31.5t-54.5 44.5q-29 23 -54.5 41t-54.5 18q-25 0 -51 -16t-61 -55q-23 -16 -40.5 0t-4.5 41zM583 484q7 -44 29 -85q25 -47 61 -85.5t75 -63.5 q41 -27 81.5 -47.5t85.5 -32.5q4 12 7.5 25.5t7.5 27.5q10 72 -9.5 145.5t-66.5 135.5q-20 29 -53 56.5t-68 45.5q-43 23 -84 19t-63 -56q-10 -41 -3 -85z" />
<glyph unicode="&#xf6;" horiz-adv-x="1236" d="M219 279q0 80 33 148.5t88 127.5q12 12 24.5 12t19.5 -8t9 -20.5t-8 -24.5q-47 -49 -75.5 -106.5t-28.5 -128.5q0 -80 34.5 -143.5t90.5 -104.5q51 -39 113.5 -56.5t125.5 -11.5q53 4 102.5 26.5t92.5 63.5q14 14 26.5 29.5t22.5 32.5q-53 16 -106.5 42.5t-112.5 71.5 q-35 27 -70 70t-57 94q-18 41 -25.5 84t2.5 82q10 45 34 72.5t54 38.5q57 20 127 -2q59 -18 107 -60q80 -68 116 -155q51 -117 29 -240q-4 -16 -7 -29.5t-7 -27.5q8 -2 15 -3t18 -1q49 -6 100 -4t104 14q59 14 128 55t122 100q8 10 20.5 8.5t19.5 -10t7 -21.5t-14 -28 q-88 -100 -215 -147q-59 -23 -123.5 -31t-132.5 0q-18 2 -36.5 4t-37.5 6q-27 -47 -65.5 -87t-91.5 -68q-47 -25 -97.5 -35t-99.5 -6q-106 6 -191 57q-80 49 -132 131t-52 189zM440 878q0 20 14.5 33.5t37.5 13.5t37 -13t14 -34q0 -20 -14.5 -33.5t-36.5 -13.5 q-23 0 -37.5 13.5t-14.5 33.5zM583 484q7 -44 29 -85q25 -47 61 -85.5t75 -63.5q41 -27 81.5 -47.5t85.5 -32.5q4 12 7.5 25.5t7.5 27.5q10 72 -9.5 145.5t-66.5 135.5q-20 29 -53 56.5t-68 45.5q-43 23 -84 19t-63 -56q-10 -41 -3 -85zM686 878q0 20 14.5 33.5t36.5 13.5 q23 0 37.5 -13t14.5 -34q0 -20 -14.5 -33.5t-37.5 -13.5t-37 13.5t-14 33.5z" />
<glyph unicode="&#xf8;" horiz-adv-x="1236" d="M219 279q0 80 33 148.5t88 127.5q12 12 24.5 12t19.5 -8t9 -20.5t-8 -24.5q-47 -49 -75.5 -106.5t-28.5 -128.5q0 -80 33.5 -142.5t86.5 -103.5l172 301q-18 27 -30 59q-18 41 -25.5 84t2.5 82q10 45 34 72.5t54 38.5q57 20 127 -2q6 -4 12.5 -5t12.5 -6q23 41 46 78 t46 78q20 20 40.5 8t10.5 -41q-23 -39 -45 -76.5t-45 -74.5q8 -4 15.5 -10.5t13.5 -10.5q80 -68 116 -155q51 -117 29 -240q-4 -16 -7 -29.5t-7 -27.5q8 -2 15 -3t18 -1q49 -6 100 -4t104 14q59 14 128 55t122 100q8 10 20.5 8.5t19.5 -10t7 -21.5t-14 -28 q-88 -100 -215 -147q-59 -23 -123.5 -31t-132.5 0q-18 2 -36.5 4t-37.5 6q-27 -47 -65.5 -87t-91.5 -68q-47 -25 -97.5 -35t-99.5 -6q-45 4 -88 14t-82 33q-10 -18 -20.5 -36.5t-20.5 -37.5q-10 -12 -21.5 -14t-20.5 3t-13 17.5t4 26.5q16 35 41 72q-68 51 -111 126.5 t-43 172.5zM453 0q45 -23 94 -32t98 -5q53 4 102.5 26.5t92.5 63.5q14 14 26.5 29.5t22.5 32.5q-53 16 -106.5 42.5t-112.5 71.5q-31 21 -56 52q-41 -72 -80.5 -140.5t-80.5 -140.5zM582.5 484q6.5 -44 29.5 -85q29 53 58.5 104.5t60.5 102.5q-43 23 -83 17.5t-62 -54.5 q-10 -41 -3.5 -85zM647 342q23 -29 48.5 -52.5t52.5 -39.5q41 -27 81.5 -47.5t85.5 -32.5q4 12 7.5 25.5t7.5 27.5q10 72 -9.5 145.5t-66.5 135.5q-14 16 -31.5 34.5t-40.5 34.5q-35 -59 -67.5 -115.5t-67.5 -115.5z" />
<glyph unicode="&#xf9;" horiz-adv-x="1540" d="M217 309q41 47 80 92t82 88q16 16 34.5 9.5t20.5 -31.5q0 -74 9.5 -142.5t35.5 -131.5q16 -41 40 -79t65 -69q35 -27 74.5 -36t72.5 -9q53 0 94 30.5t72 71.5q41 55 65.5 126t38.5 132q4 29 9.5 66t11.5 66q2 14 12 19t20.5 2t18.5 -11t8 -23q0 -41 5.5 -89t17.5 -97 t31.5 -95t48.5 -83t67.5 -61.5t87.5 -28.5q37 -4 76 9t78 36q37 23 71.5 51.5t67.5 58.5q37 37 70 72t55 63q12 12 23.5 12.5t19.5 -8t9 -20.5t-9 -25q-45 -53 -99 -109t-114 -104q-59 -45 -121.5 -72.5t-128.5 -23.5q-53 4 -110.5 33t-89.5 74q-31 41 -48.5 79.5 t-27.5 73.5q-4 12 -8 25.5t-9 28.5q-16 -68 -44.5 -132.5t-77.5 -113.5q-47 -47 -106.5 -68.5t-121.5 -17.5q-59 4 -112.5 29.5t-94.5 72.5q-45 55 -71 129q-20 53 -28.5 108.5t-12.5 108.5q-29 -31 -56.5 -62.5t-56.5 -64.5q-23 -16 -40 0.5t-5 40.5zM496 925.5 q-2 12.5 3 21.5t17.5 13t26.5 -2q51 -35 92 -62.5t79 -54t79 -54.5t94 -64q18 -18 7 -40t-38 -14q-53 37 -94 65t-79 54.5t-79 54t-92 62.5q-14 8 -16 20.5z" />
<glyph unicode="&#xfa;" horiz-adv-x="1540" d="M217 309q41 47 80 92t82 88q16 16 34.5 9.5t20.5 -31.5q0 -74 9.5 -142.5t35.5 -131.5q16 -41 40 -79t65 -69q35 -27 74.5 -36t72.5 -9q53 0 94 30.5t72 71.5q41 55 65.5 126t38.5 132q4 29 9.5 66t11.5 66q2 14 12 19t20.5 2t18.5 -11t8 -23q0 -41 5.5 -89t17.5 -97 t31.5 -95t48.5 -83t67.5 -61.5t87.5 -28.5q37 -4 76 9t78 36q39 25 78 56.5t72.5 65t62.5 66.5t51 57q12 12 23.5 12.5t19.5 -8t9 -20.5t-9 -25q-43 -53 -96 -109t-113.5 -101.5t-124 -74t-129.5 -24.5q-53 4 -110.5 33t-89.5 74q-31 41 -48.5 79.5t-27.5 73.5 q-4 12 -8 25.5t-9 28.5q-16 -68 -44.5 -132.5t-77.5 -113.5q-47 -47 -106.5 -68.5t-121.5 -17.5q-59 4 -112.5 29.5t-94.5 72.5q-45 55 -71 129q-20 53 -28.5 108.5t-12.5 108.5q-29 -31 -56.5 -62.5t-56.5 -64.5q-23 -16 -40 0.5t-5 40.5zM572 713.5q-11 21.5 8 40.5 q53 37 94 64.5t79 54t77.5 54t93.5 62.5q14 6 26.5 2t17.5 -13t3 -21.5t-17 -20.5q-53 -35 -93 -62.5t-78 -54t-79 -54.5t-94 -65q-27 -8 -38 13.5z" />
<glyph unicode="&#xfb;" horiz-adv-x="1540" d="M217 309q41 47 80 92t82 88q16 16 34.5 9.5t20.5 -31.5q0 -74 9.5 -142.5t35.5 -131.5q16 -41 40 -79t65 -69q35 -27 74.5 -36t72.5 -9q53 0 94 30.5t72 71.5q41 55 65.5 126t38.5 132q4 29 9.5 66t11.5 66q2 14 12 19t20.5 2t18.5 -11t8 -23q0 -41 5.5 -89t17.5 -97 t31.5 -95t48.5 -83t67.5 -61.5t87.5 -28.5q37 -4 76 9t78 36q37 23 71.5 51.5t67.5 58.5q37 37 70 72t55 63q12 12 23.5 12.5t19.5 -8t9 -20.5t-9 -25q-45 -53 -99 -109t-114 -104q-59 -45 -121.5 -72.5t-128.5 -23.5q-53 4 -110.5 33t-89.5 74q-31 41 -48.5 79.5 t-27.5 73.5q-4 12 -8 25.5t-9 28.5q-16 -68 -44.5 -132.5t-77.5 -113.5q-47 -47 -106.5 -68.5t-121.5 -17.5q-59 4 -112.5 29.5t-94.5 72.5q-45 55 -71 129q-20 53 -28.5 108.5t-12.5 108.5q-29 -31 -56.5 -62.5t-56.5 -64.5q-23 -16 -40 0.5t-5 40.5zM466 694q-1 10 7 22 q66 53 127 107.5t125 112.5q25 12 45 -2q63 -57 123.5 -111.5t122.5 -110.5q16 -25 -1.5 -42t-41.5 -3q-55 51 -111.5 102.5t-114.5 100.5q-59 -49 -117.5 -99t-115.5 -102q-12 -6 -23.5 -4t-17.5 10.5t-7 18.5z" />
<glyph unicode="&#xfc;" horiz-adv-x="1540" d="M217 309q41 47 80 92t82 88q16 16 34.5 9.5t20.5 -31.5q0 -74 9.5 -142.5t35.5 -131.5q16 -41 40 -79t65 -69q35 -27 74.5 -36t72.5 -9q53 0 94 30.5t72 71.5q41 55 65.5 126t38.5 132q4 29 9.5 66t11.5 66q2 14 12 19t20.5 2t18.5 -11t8 -23q0 -41 5.5 -89t17.5 -97 t31.5 -95t48.5 -83t67.5 -61.5t87.5 -28.5q37 -4 76 9t78 36q37 23 71.5 51.5t67.5 58.5q37 37 70 72t55 63q12 12 23.5 12.5t19.5 -8t9 -20.5t-9 -25q-45 -53 -99 -109t-114 -104q-59 -45 -121.5 -72.5t-128.5 -23.5q-53 4 -110.5 33t-89.5 74q-31 41 -48.5 79.5 t-27.5 73.5q-4 12 -8 25.5t-9 28.5q-16 -68 -44.5 -132.5t-77.5 -113.5q-47 -47 -106.5 -68.5t-121.5 -17.5q-59 4 -112.5 29.5t-94.5 72.5q-45 55 -71 129q-20 53 -28.5 108.5t-12.5 108.5q-29 -31 -56.5 -62.5t-56.5 -64.5q-23 -16 -40 0.5t-5 40.5zM559 801 q0 20 14.5 33.5t37.5 13.5t37 -13t14 -34q0 -20 -14.5 -33.5t-36.5 -13.5q-23 0 -37.5 13.5t-14.5 33.5zM805 801q0 20 14.5 33.5t36.5 13.5q23 0 37.5 -13t14.5 -34q0 -20 -14.5 -33.5t-37.5 -13.5t-37 13.5t-14 33.5z" />
<glyph unicode="&#xfd;" horiz-adv-x="1396" d="M213 297q0 12 10 22q43 41 79 84t67 78q18 23 38.5 12.5t22.5 -53.5q10 -233 92 -331q74 -86 199 -66q68 12 122 37.5t98 60.5t80 75t64 81q16 25 44 21.5t32 -31.5q12 -92 3 -183.5t-27 -181.5q70 33 128 71t107 79q76 61 134.5 124.5t109.5 116.5q12 12 24.5 12.5 t19.5 -7t9 -19.5t-8 -25q-55 -63 -120.5 -126.5t-139.5 -122.5q-92 -74 -197 -129q-23 -10 -43 -21.5t-41 -21.5q-2 -10 -4 -21.5t-4 -21.5q-27 -111 -66.5 -211.5t-105.5 -192.5q-25 -35 -52.5 -66.5t-62.5 -62.5q-41 -41 -82 -48t-69 11q-49 33 -56 119q-6 100 39 188 q23 43 53.5 78t67.5 66q66 57 140.5 106t150.5 90q18 86 27.5 168t9.5 158l-12 -12q-12 -12 -23.5 -25.5t-28.5 -25.5q-66 -63 -135 -105.5t-166 -58.5q-72 -12 -139 1t-121 72q-41 47 -70.5 126t-39.5 204l-109 -119q-12 -10 -24.5 -7t-18.5 12.5t-6 21.5zM601 754.5 q-11 21.5 7 40.5q53 37 94 64.5t79 54t78 54t93 62.5q14 6 26.5 2t17.5 -13t3 -21.5t-16 -20.5q-53 -35 -93 -62.5t-78 -54t-79 -54.5t-94 -65q-27 -8 -38 13.5zM672 -635q17 -106 80 -67q29 20 56.5 44.5t49.5 53.5q72 86 118 192.5t77 225.5q-49 -29 -94.5 -59.5 t-94.5 -71.5q-57 -47 -104 -90.5t-70 -102.5q-10 -27 -16 -59.5t-2 -65.5z" />
<glyph unicode="&#xff;" horiz-adv-x="1396" d="M213 297q0 12 10 22q43 41 79 84t67 78q18 23 38.5 12.5t22.5 -53.5q10 -233 92 -331q74 -86 199 -66q68 12 122 37.5t98 60.5t80 75t64 81q16 25 44 21.5t32 -31.5q12 -92 3 -183.5t-27 -181.5q70 33 128 71t107 79q76 61 134.5 124.5t109.5 116.5q12 12 24.5 12.5 t19.5 -7t9 -19.5t-8 -25q-55 -63 -120.5 -126.5t-139.5 -122.5q-92 -74 -197 -129q-23 -10 -43 -21.5t-41 -21.5q-2 -10 -4 -21.5t-4 -21.5q-27 -111 -66.5 -211.5t-105.5 -192.5q-25 -35 -52.5 -66.5t-62.5 -62.5q-41 -41 -82 -48t-69 11q-49 33 -56 119q-6 100 39 188 q23 43 53.5 78t67.5 66q66 57 140.5 106t150.5 90q18 86 27.5 168t9.5 158l-12 -12q-12 -12 -23.5 -25.5t-28.5 -25.5q-66 -63 -135 -105.5t-166 -58.5q-72 -12 -139 1t-121 72q-41 47 -70.5 126t-39.5 204l-109 -119q-12 -10 -24.5 -7t-18.5 12.5t-6 21.5zM585 723 q0 20 14.5 33.5t37.5 13.5t37 -13t14 -34q0 -20 -14.5 -33.5t-36.5 -13.5q-23 0 -37.5 13.5t-14.5 33.5zM672 -635q17 -106 80 -67q29 20 56.5 44.5t49.5 53.5q72 86 118 192.5t77 225.5q-49 -29 -94.5 -59.5t-94.5 -71.5q-57 -47 -104 -90.5t-70 -102.5q-10 -27 -16 -59.5 t-2 -65.5zM831 723q0 20 14.5 33.5t36.5 13.5q23 0 37.5 -13t14.5 -34q0 -20 -14.5 -33.5t-37.5 -13.5t-37 13.5t-14 33.5z" />
<glyph unicode="&#x178;" horiz-adv-x="974" d="M121 1278q2 16 11 22.5t20 6.5q10 0 19 -8.5t11 -24.5q-6 -61 0 -129t24.5 -132.5t50.5 -124t77 -104.5q55 -57 131 -84.5t174 -9.5q12 2 23.5 5t21.5 7q23 78 45.5 139.5t56.5 133.5q8 18 21.5 46t30 58.5t37 62.5t43.5 56q31 35 65.5 51.5t69.5 1.5q14 -8 18 -22 q10 -29 8 -60.5t-11 -64.5t-22.5 -63.5t-23.5 -55.5q-29 -72 -70 -136.5t-94 -113.5q-29 -25 -59.5 -45t-65.5 -35q-47 -160 -78.5 -321.5t-66.5 -321.5q-4 -16 -15.5 -21t-21.5 -3t-17.5 11t-5.5 26q16 80 34 161.5t36 159.5q14 66 26.5 118t28.5 116q6 35 13 53 q-4 0 -7.5 -1t-7.5 -1q-109 -20 -194.5 8.5t-151.5 89.5q-53 49 -91 113.5t-60.5 137.5t-30.5 149.5t-2 148.5zM432 1425q0 20 14.5 33.5t37.5 13.5t37 -13t14 -34q0 -20 -14.5 -33.5t-36.5 -13.5q-23 0 -37.5 13.5t-14.5 33.5zM678 1425q0 20 14.5 33.5t36.5 13.5 q23 0 37.5 -13t14.5 -34q0 -20 -14.5 -33.5t-37.5 -13.5t-37 13.5t-14 33.5zM758 737q41 27 80 66q41 43 73.5 95t55.5 110q6 16 16 40.5t21 51.5q14 37 19 65.5t-9 28.5q-20 0 -43 -24.5t-47 -63.5q-35 -53 -65 -117.5t-48 -107.5q-16 -35 -28.5 -71t-24.5 -73z" />
<glyph unicode="&#x2c6;" d="M370 807q-1 10 7 22q66 53 127 107.5t125 112.5q25 12 45 -2q63 -57 123.5 -111.5t122.5 -110.5q16 -25 -1.5 -42t-41.5 -3q-55 51 -111.5 102.5t-114.5 100.5q-59 -49 -117.5 -99t-115.5 -102q-12 -6 -23.5 -4t-17.5 10.5t-7 18.5z" />
<glyph unicode="&#x2dc;" horiz-adv-x="1138" d="M201 793q31 35 64.5 57t70.5 29q66 12 133 -33q29 -18 51.5 -45t52.5 -43q55 -29 121 -10q33 10 58.5 30.5t35.5 50.5q6 14 18.5 18.5t22 0.5t15.5 -15.5t0 -25.5q-16 -45 -53 -76t-84 -43q-63 -18 -123 0q-35 10 -62.5 31.5t-54.5 44.5q-29 23 -54.5 41t-54.5 18 q-25 0 -51 -16t-61 -55q-23 -16 -40.5 0t-4.5 41z" />
<glyph unicode="&#x2000;" horiz-adv-x="873" />
<glyph unicode="&#x2001;" horiz-adv-x="1746" />
<glyph unicode="&#x2002;" horiz-adv-x="873" />
<glyph unicode="&#x2003;" horiz-adv-x="1746" />
<glyph unicode="&#x2004;" horiz-adv-x="582" />
<glyph unicode="&#x2005;" horiz-adv-x="436" />
<glyph unicode="&#x2006;" horiz-adv-x="291" />
<glyph unicode="&#x2007;" horiz-adv-x="291" />
<glyph unicode="&#x2008;" horiz-adv-x="218" />
<glyph unicode="&#x2009;" horiz-adv-x="349" />
<glyph unicode="&#x200a;" horiz-adv-x="97" />
<glyph unicode="&#x2010;" horiz-adv-x="1404" d="M430 465q0 10 8 20.5t25 12.5q80 0 177 1t197.5 3t198 3t176.5 5q29 -6 30 -28.5t-25 -32.5q-80 -4 -178.5 -5.5t-199 -3.5t-198.5 -3t-178 -1q-16 0 -24.5 9.5t-8.5 19.5z" />
<glyph unicode="&#x2011;" horiz-adv-x="1404" d="M430 465q0 10 8 20.5t25 12.5q80 0 177 1t197.5 3t198 3t176.5 5q29 -6 30 -28.5t-25 -32.5q-80 -4 -178.5 -5.5t-199 -3.5t-198.5 -3t-178 -1q-16 0 -24.5 9.5t-8.5 19.5z" />
<glyph unicode="&#x2012;" horiz-adv-x="1404" d="M430 465q0 10 8 20.5t25 12.5q80 0 177 1t197.5 3t198 3t176.5 5q29 -6 30 -28.5t-25 -32.5q-80 -4 -178.5 -5.5t-199 -3.5t-198.5 -3t-178 -1q-16 0 -24.5 9.5t-8.5 19.5z" />
<glyph unicode="&#x2013;" horiz-adv-x="1614" d="M430 465q0 10 10 20.5t32 12.5q100 0 222.5 1t249.5 3t250 3t222 5q37 -6 38 -28.5t-32 -32.5q-100 -4 -224.5 -5.5t-251 -3.5t-250.5 -3t-224 -1q-21 0 -31.5 9.5t-10.5 19.5z" />
<glyph unicode="&#x2014;" horiz-adv-x="2638" d="M430 465q0 10 20 20.5t63 12.5q202 0 446.5 1t498 3t499.5 3t445 5q73 -6 75.5 -28.5t-62.5 -32.5q-202 -4 -450.5 -5.5t-502 -3.5t-500.5 -3t-449 -1q-40 0 -61.5 9.5t-21.5 19.5z" />
<glyph unicode="&#x2018;" horiz-adv-x="671" d="M227 1020q0 111 54.5 209t136.5 170q12 8 24.5 6t18.5 -10.5t6 -20.5t-10 -22q-137 -121 -166 -305h90q16 0 24.5 -9.5t8.5 -20.5t-7.5 -20.5t-23.5 -11.5h-127q-29 6 -29 35z" />
<glyph unicode="&#x2019;" horiz-adv-x="671" d="M246 1034.5q0 12.5 10 22.5q137 121 166 305h-90q-16 0 -24.5 9t-8.5 20.5t7 20.5t24 11h127q29 -6 28 -34q0 -111 -54 -209.5t-136 -169.5q-12 -10 -24.5 -7t-18.5 11t-6 20.5z" />
<glyph unicode="&#x201a;" horiz-adv-x="671" d="M246 -276.5q0 12.5 10 22.5q137 121 166 305h-90q-16 0 -24.5 9.5t-8.5 20.5t7 20.5t24 11.5h127q29 -6 28 -35q0 -111 -54 -209t-136 -170q-12 -10 -24.5 -7t-18.5 11t-6 20.5z" />
<glyph unicode="&#x201c;" horiz-adv-x="827" d="M227 1020q0 111 54.5 209t136.5 170q12 8 24.5 6t18.5 -10.5t6 -20.5t-10 -22q-137 -121 -166 -305h90q16 0 24.5 -9.5t8.5 -20.5t-7.5 -20.5t-23.5 -11.5h-127q-29 6 -29 35zM494 1020q0 111 54 209t136 170q12 8 24.5 6t18.5 -10.5t6 -20.5t-10 -22 q-137 -121 -166 -305h90q16 0 24.5 -9.5t8.5 -20.5t-7 -20.5t-24 -11.5h-127q-29 6 -28 35z" />
<glyph unicode="&#x201d;" horiz-adv-x="872" d="M246 1034.5q0 12.5 10 22.5q137 121 166 305h-90q-16 0 -24.5 9t-8.5 20.5t7 20.5t24 11h127q29 -6 28 -34q0 -111 -54 -209.5t-136 -169.5q-12 -10 -24.5 -7t-18.5 11t-6 20.5zM512 1034.5q0 12.5 10 22.5q137 121 166 305h-90q-16 0 -24.5 9t-8.5 20.5t7.5 20.5 t23.5 11h127q29 -6 29 -34q0 -111 -54.5 -209.5t-136.5 -169.5q-12 -10 -24.5 -7t-18.5 11t-6 20.5z" />
<glyph unicode="&#x201e;" horiz-adv-x="897" d="M246 -276.5q0 12.5 10 22.5q137 121 166 305h-90q-16 0 -24.5 9.5t-8.5 20.5t7 20.5t24 11.5h127q29 -6 28 -35q0 -111 -54 -209t-136 -170q-12 -10 -24.5 -7t-18.5 11t-6 20.5zM492 -276.5q0 12.5 10 22.5q137 121 166 305h-90q-16 0 -24.5 9.5t-8.5 20.5t7 20.5 t23 11.5h127q29 -6 29 -35q0 -111 -54 -209t-136 -170q-12 -10 -24.5 -7t-18.5 11t-6 20.5z" />
<glyph unicode="&#x202f;" horiz-adv-x="349" />
<glyph unicode="&#x205f;" horiz-adv-x="436" />
<glyph unicode="&#x20ac;" horiz-adv-x="1146" d="M125 524.5q0 10.5 8 20.5t25 12q80 0 177 1t197.5 3t197.5 3t177 5q29 -6 30 -28.5t-26 -32.5q-80 -4 -178 -5t-198.5 -3t-198.5 -3t-178 -1q-16 0 -24.5 9t-8.5 19.5zM143 741.5q0 10.5 8.5 20.5t24.5 12q80 0 177.5 1t197.5 3t197.5 3t177.5 5q29 -6 29.5 -28.5 t-25.5 -32.5q-80 -4 -178.5 -5t-198.5 -3t-198.5 -3t-178.5 -1q-16 0 -24.5 9t-8.5 19.5zM217 506.5q4 109.5 33 216t82 203t127 174.5q61 66 156.5 118t215.5 56q59 2 121 -29t88 -94q6 -16 0 -26.5t-16 -14.5t-22.5 -1t-18.5 17q-20 51 -60 71t-89 20q-63 0 -116.5 -16.5 t-99 -43.5t-81 -60.5t-66.5 -70.5q-66 -78 -110 -169t-65.5 -188.5t-20.5 -196.5t26 -191q16 -66 48 -122.5t79 -99.5t111.5 -69.5t148.5 -30.5q80 -4 157 15.5t148 52.5q109 53 201 125.5t174 160.5q12 12 24.5 12.5t19.5 -8t9 -20.5t-8 -25q-86 -92 -182 -169.5 t-213 -131.5q-82 -37 -160 -57t-168 -16q-86 2 -160.5 34.5t-133 86t-99.5 124t-59 150.5q-25 104 -21 213.5z" />
<glyph unicode="&#x25fc;" horiz-adv-x="501" d="M0 0v502h502v-502h-502z" />
</font>
</defs>
</svg>
